<svg width="382" height="749" viewBox="0 0 382 749" fill="none" xmlns="http://www.w3.org/2000/svg">
<path d="M322.67 526.036H89.0112L139.142 373.274C160.315 308.588 229.818 256.226 294.325 256.226C358.831 256.226 393.974 308.622 372.766 373.274L322.67 526.036Z" fill="#595C5E"/>
<path d="M335.142 454.03H52.9512V526.002H335.142V454.03Z" fill="#595C5E"/>
<path d="M203.002 122.768C203.002 145.681 186.009 164.235 164.767 164.235C154.741 164.235 154.775 154.566 126.566 122.768C112.972 107.516 108.588 104.451 109.403 98.9361C111.408 85.9308 140.535 74.5596 164.767 81.3006C179.178 85.2839 203.002 98.7319 203.002 122.768Z" fill="#312F2F"/>
<path d="M109.403 356.286L78.2712 352.677L100.872 292.45C106.786 276.551 112.768 260.72 118.715 244.787C122.114 230.352 131.936 221.193 139.107 221.976C147.128 222.759 156.441 236.752 152.94 255.477C150.289 265.691 147.06 276.245 142.948 287.378C141.181 292.28 139.345 297.081 137.374 301.643C135.981 305.047 134.553 308.452 133.092 311.856C126.264 327.213 118.347 342.061 109.403 356.286Z" fill="#EAD8D5"/>
<path d="M133.126 311.788C122.318 305.354 111.612 298.885 100.872 292.45C102.979 290.714 105.155 289.046 107.33 287.31L137.408 301.677C136.015 305.115 134.587 308.554 133.126 311.788Z" fill="#413640"/>
<path d="M139.311 309.609L97.4739 290.952L117.22 244.48C118.648 241.416 120.109 238.318 121.536 235.22C122.42 233.722 131.087 219.457 140.365 220.615C150.561 221.874 156.849 240.804 154.673 255.103C154.257 257.911 153.492 260.656 152.396 263.274C148.046 278.73 143.684 294.175 139.311 309.609Z" fill="#ACD4E5"/>
<path d="M47.8191 425.568L55.3641 467.206C91.3182 480.012 129.013 487.245 167.146 488.654C185.296 489.329 203.471 488.669 221.525 486.68C214.342 461.713 207.16 436.746 199.977 411.78C166.576 410.492 133.126 412.053 99.9886 416.444C81.296 418.759 63.9288 422.164 47.8191 425.568Z" fill="#679EB0"/>
<path d="M90.5067 442.591C80.3107 445.995 75.3825 458.763 77.8975 470.168C78.8364 474.381 80.7841 478.303 83.5728 481.595C86.3615 484.887 89.9077 487.45 93.9053 489.063C97.5079 487.803 101.178 486.544 104.985 485.318C108.18 484.297 111.306 483.309 114.399 482.424C116.443 479.15 117.798 475.493 118.382 471.676C118.967 467.859 118.768 463.963 117.798 460.226C114.365 448.208 101.926 438.574 90.5067 442.591Z" fill="#EAD8D5"/>
<path d="M96.5222 441.638C101.167 454.938 105.835 468.239 110.525 481.539C143.129 489.042 176.775 490.896 210.004 487.02C225.606 485.129 241.022 481.929 256.09 477.454C245.463 453.894 234.803 430.323 224.108 406.741C180.081 411.94 137.077 423.702 96.5222 441.638Z" fill="#EAD8D5"/>
<path d="M58.3551 644.787L74.2949 647.511C75.8243 638.216 78.4073 623.679 82.4178 605.635C94.7889 550.413 105.189 532.914 102.334 503.975C100.338 485.869 94.1337 468.483 84.219 453.213L40.0364 446.064C45.7461 481.539 50.5382 519.67 53.8009 560.218C56.3499 589.633 57.7434 617.891 58.3551 644.787Z" fill="#EAD8D5"/>
<path d="M0 690.816C2.40566 692.249 5.11283 693.096 7.90453 693.291C10.6962 693.487 13.4947 693.024 16.0756 691.94C20.0181 690.476 27.2233 691.633 40.9539 688.876C55.0961 686.38 69.6142 687.042 83.4713 690.816C84.7429 685.742 84.5781 680.413 82.9954 675.428C82.4498 673.834 81.7557 672.295 80.9222 670.832C78.3733 666.338 76.0621 657.792 76.5039 640.191L55.3982 638.999C55.2552 643.886 54.1582 648.697 52.1695 653.162C49.1365 659.366 44.7938 664.835 39.4418 669.191C34.0898 673.547 27.8565 676.686 21.1736 678.39C15.6494 678.953 10.3668 680.948 5.84571 684.177C3.51316 686.019 1.53266 688.268 0 690.816Z" fill="#938888"/>
<path d="M260.984 474.355C259.352 475.104 257.585 475.955 255.784 476.67C253.982 477.385 251.263 478.577 248.782 479.496C228.66 486.844 207.257 490.017 185.873 488.825H185.465C169.415 487.747 153.612 484.305 138.564 478.611C137.894 466.847 138.224 455.048 139.549 443.34C140.365 436.326 141.452 429.722 142.608 424.104C143.526 419.814 144.511 415.933 145.395 412.529C145.905 410.656 146.381 408.92 146.822 407.354C147.264 405.788 147.978 403.711 148.454 402.213C149.541 399.013 149.779 398.434 150.255 396.868C156.135 378.926 149.847 362.822 144.579 339.944C138.224 312.707 133.941 279.683 127.586 258.848C127.076 257.213 126.6 255.715 126.09 254.251C125.581 252.787 125.105 250.847 124.697 249.111C124.697 248.634 124.459 248.123 124.357 247.613C122.459 240.371 122.754 232.726 125.207 225.653C125.547 224.683 125.98 223.748 126.498 222.861C135.335 215.678 147.706 216.665 156.678 209.482L158.344 207.984C158.526 207.878 158.688 207.74 158.82 207.575C159.329 207.575 159.805 207.337 160.315 207.235C167.537 205.809 174.876 205.068 182.236 205.022C191.882 204.64 201.523 205.895 210.751 208.733C211.601 208.971 212.417 209.141 213.232 209.311C213.367 209.342 213.506 209.342 213.64 209.311C218.823 210.4 224.189 210.26 229.308 208.903C231.041 208.494 232.707 208.154 234.032 207.745L235.664 207.507C237.329 207.098 238.892 206.86 240.354 206.588C246.539 211.797 251.161 220.546 253.948 232.02C258.017 251.05 258.57 270.667 255.58 289.897V290.135C248.782 317.372 241.169 343.416 233.318 367.929C234.236 368.508 235.12 369.189 236.139 369.836C242.135 373.944 247.815 378.496 253.133 383.454C255.468 386.531 257.613 389.749 259.556 393.089C266.2 404.507 270.044 417.342 270.772 430.539C271.517 445.761 268.134 460.902 260.984 474.355Z" fill="#EAD8D5"/>
<path d="M122.794 279.888C123.213 284.125 124.877 288.143 127.576 291.432C130.275 294.721 133.888 297.135 137.957 298.366C142.026 299.597 146.369 299.592 150.435 298.35C154.5 297.108 158.107 294.685 160.798 291.389C163.488 288.092 165.142 284.07 165.55 279.832C165.957 275.593 165.1 271.329 163.087 267.579C161.074 263.828 157.995 260.761 154.241 258.764C150.487 256.767 146.225 255.932 141.996 256.362C136.339 256.939 131.14 259.739 127.54 264.149C123.941 268.559 122.234 274.219 122.794 279.888Z" fill="#EAD8D5"/>
<path d="M144.138 300.077C140.077 300.077 136.094 298.966 132.618 296.864C129.142 294.763 126.305 291.75 124.412 288.152C122.52 284.553 121.645 280.506 121.88 276.445C122.116 272.385 123.455 268.466 125.751 265.112C125.812 265.021 125.891 264.943 125.983 264.884C126.075 264.824 126.177 264.783 126.285 264.764C126.393 264.745 126.504 264.748 126.61 264.773C126.717 264.797 126.818 264.843 126.906 264.908C127 264.966 127.08 265.043 127.143 265.134C127.206 265.225 127.25 265.327 127.272 265.435C127.295 265.544 127.295 265.655 127.273 265.763C127.251 265.872 127.207 265.974 127.144 266.065C124.919 269.31 123.667 273.125 123.536 277.06C123.405 280.995 124.401 284.885 126.405 288.271C128.41 291.657 131.34 294.398 134.849 296.17C138.359 297.942 142.301 298.672 146.211 298.272C149.415 297.969 152.502 296.91 155.219 295.182C157.936 293.454 160.207 291.106 161.845 288.331C161.958 288.138 162.143 287.997 162.359 287.94C162.576 287.882 162.806 287.913 163 288.025C163.195 288.145 163.337 288.336 163.394 288.558C163.451 288.781 163.419 289.017 163.306 289.216C161.502 292.208 159.027 294.738 156.078 296.606C153.128 298.473 149.785 299.626 146.313 299.974C145.61 300.043 144.885 300.077 144.138 300.077Z" fill="#413640"/>
<path d="M189.17 273.181C189.595 277.416 191.264 281.43 193.967 284.714C196.67 287.998 200.284 290.406 204.353 291.632C208.422 292.859 212.763 292.849 216.826 291.603C220.889 290.358 224.492 287.933 227.18 284.636C229.867 281.339 231.518 277.318 231.923 273.081C232.329 268.843 231.47 264.581 229.457 260.833C227.444 257.084 224.366 254.019 220.612 252.023C216.859 250.027 212.6 249.191 208.372 249.621C205.564 249.898 202.838 250.728 200.352 252.063C197.865 253.398 195.666 255.213 193.881 257.402C192.097 259.591 190.762 262.112 189.953 264.82C189.145 267.528 188.879 270.369 189.17 273.181Z" fill="#EAD8D5"/>
<path d="M210.513 293.37C205.73 293.36 201.075 291.813 197.233 288.958C193.392 286.102 190.566 282.088 189.17 277.505C189.107 277.288 189.132 277.055 189.24 276.857C189.349 276.659 189.531 276.512 189.747 276.449C189.964 276.386 190.196 276.411 190.394 276.52C190.592 276.628 190.738 276.811 190.801 277.028C192.04 281.057 194.481 284.609 197.796 287.206C201.111 289.803 205.141 291.321 209.343 291.554C213.545 291.788 217.718 290.727 221.299 288.513C224.881 286.299 227.7 283.04 229.376 279.173C229.472 278.97 229.642 278.812 229.85 278.73C230.058 278.648 230.289 278.648 230.497 278.73C230.699 278.827 230.857 278.996 230.939 279.205C231.021 279.413 231.021 279.645 230.939 279.854C229.356 283.483 226.838 286.626 223.643 288.959C220.447 291.292 216.69 292.732 212.756 293.131C212.015 293.259 211.265 293.339 210.513 293.37Z" fill="#413640"/>
<path d="M240.286 206.792C246.471 212.001 251.094 220.751 253.88 232.224L247.593 233.075L245.86 233.314C233.828 234.88 221.797 236.446 209.766 238.114C209.189 238.08 208.61 238.08 208.033 238.114C183.29 241.519 158.65 244.651 133.908 247.953C130.781 248.294 127.722 248.702 124.595 249.111C124.595 249.111 124.357 249.111 124.255 249.111L117.458 249.928C116.481 242.479 118.179 234.925 122.25 228.615C123.021 227.481 123.935 226.451 124.969 225.551C125.365 225.107 125.797 224.698 126.261 224.326C134.587 217.516 146.075 218.027 154.877 212.103L156.271 211.116C156.849 210.605 157.528 210.026 158.106 209.448C158.281 209.306 158.441 209.147 158.582 208.971C159.092 208.392 159.567 207.814 160.077 207.133C161.299 205.529 162.273 203.75 162.966 201.856C164.434 197.828 164.659 193.451 163.612 189.293C162.688 186.194 161.095 183.337 158.945 180.925C156.796 178.512 154.142 176.604 151.173 175.334C159.33 169.58 165.277 165.121 169.492 162.227C172.686 159.809 174.997 158.175 176.663 156.95C182.237 152.626 179.79 144.149 176.221 136.863C179.212 141.731 186.043 153.068 194.948 167.844C210.615 193.855 212.587 197.396 218.534 200.8C219.152 201.13 219.788 201.425 220.438 201.685C221.312 202.191 222.249 202.58 223.225 202.843C225.018 203.523 226.873 204.025 228.764 204.341C229.988 204.341 231.143 204.579 232.163 204.681C234.066 204.681 235.8 204.681 237.601 204.681C238.556 205.304 239.455 206.011 240.286 206.792Z" fill="#EAD8D5"/>
<path d="M185.465 212.273C185.087 213.284 184.384 214.14 183.468 214.707C182.551 215.274 181.472 215.52 180.401 215.406C177.512 214.963 176.085 211.627 175.983 211.388L185.465 212.273Z" fill="#413640"/>
<path d="M174.997 219.797C174.226 220.472 173.396 221.076 172.516 221.602C169.748 223.237 166.543 223.975 163.34 223.713C157.144 223.519 150.961 223.008 144.817 222.181L162.388 221.329L174.997 219.797Z" fill="#413640"/>
<path d="M186.111 218.64C187.475 219.125 188.872 219.512 190.291 219.797C195.006 220.687 199.854 220.594 204.532 219.525C216.801 217.244 228.05 214.35 231.721 213.363L205.211 216.972L186.111 218.64Z" fill="#413640"/>
<path d="M178.396 181.53C178.396 192.936 172.04 202.162 164.359 202.162C164.009 202.195 163.656 202.195 163.306 202.162C164.774 198.134 164.999 193.757 163.952 189.599C163.028 186.5 161.435 183.643 159.285 181.231C157.135 178.818 154.482 176.91 151.512 175.64C159.669 169.887 165.617 165.427 169.831 162.533C174.657 165.597 178.396 172.951 178.396 181.53Z" fill="#413640"/>
<path d="M180.435 160.627C176.568 172.289 169.501 182.624 160.043 190.45C158.539 191.579 156.908 192.527 155.183 193.276C153.417 193.907 151.597 194.375 149.745 194.672C141.588 195.557 129.353 186.501 128.402 185.752C122.91 182.244 118.351 177.454 115.113 171.793C112.734 166.823 113.21 164.201 109.607 156.167C107.534 151.707 106.208 149.902 104.577 146.94L104.305 146.43C103.829 145.51 103.319 144.625 102.742 143.468C102.504 142.957 102.266 142.548 102.096 142.072C101.67 141.321 101.284 140.548 100.94 139.757C97.8815 132.948 95.1626 123.823 97.9835 114.972C100.597 108.301 105.024 102.499 110.763 98.2212C112.687 96.7744 114.695 95.4443 116.778 94.2379L118.987 93.0803C125.343 90.1865 141.826 83.9902 157.426 90.8674C182.678 102.136 186.859 139.246 180.435 160.627Z" fill="#EAD8D5"/>
<path d="M111.34 160.014C111.617 160.926 112.234 161.697 113.063 162.166C113.892 162.635 114.87 162.767 115.793 162.533C116.262 162.501 116.72 162.371 117.137 162.153C117.553 161.934 117.92 161.631 118.214 161.263C118.508 160.895 118.723 160.47 118.844 160.015C118.965 159.559 118.991 159.084 118.919 158.618C118.65 157.7 118.035 156.924 117.203 156.454C116.372 155.983 115.391 155.856 114.467 156.098C113.998 156.131 113.54 156.26 113.123 156.479C112.707 156.697 112.339 157 112.046 157.368C111.752 157.736 111.537 158.161 111.416 158.617C111.294 159.072 111.269 159.548 111.34 160.014Z" fill="#413640"/>
<path d="M107.976 158.039C107.756 158.039 107.545 157.954 107.386 157.802C107.228 157.65 107.135 157.442 107.126 157.222C107.116 157.109 107.131 156.995 107.167 156.888C107.204 156.781 107.263 156.683 107.339 156.6C107.416 156.516 107.509 156.45 107.613 156.405C107.717 156.359 107.828 156.336 107.942 156.337H109.947C115.175 155.936 120.294 154.623 125.071 152.456C125.174 152.386 125.291 152.34 125.413 152.321C125.536 152.302 125.661 152.309 125.78 152.344C125.899 152.378 126.01 152.438 126.103 152.52C126.197 152.601 126.271 152.702 126.322 152.816C126.372 152.93 126.397 153.053 126.395 153.177C126.392 153.301 126.363 153.423 126.309 153.535C126.254 153.647 126.176 153.745 126.08 153.823C125.983 153.901 125.871 153.958 125.751 153.988C120.8 156.266 115.482 157.638 110.049 158.039C109.369 158.039 108.655 158.039 107.976 158.039Z" fill="#413640"/>
<path d="M139.243 148.779C139.513 149.696 140.128 150.472 140.959 150.943C141.791 151.413 142.772 151.541 143.696 151.298C144.165 151.266 144.623 151.136 145.039 150.918C145.456 150.699 145.823 150.396 146.117 150.028C146.411 149.66 146.626 149.235 146.747 148.78C146.868 148.324 146.894 147.849 146.822 147.383C146.538 146.475 145.92 145.709 145.093 145.241C144.266 144.773 143.293 144.638 142.37 144.863C141.901 144.896 141.443 145.025 141.026 145.244C140.609 145.462 140.242 145.765 139.948 146.133C139.654 146.501 139.44 146.926 139.319 147.382C139.197 147.837 139.172 148.313 139.243 148.779Z" fill="#413640"/>
<path d="M135.879 146.974C135.653 146.974 135.437 146.885 135.278 146.725C135.119 146.565 135.029 146.349 135.029 146.123C135.019 146.012 135.033 145.9 135.07 145.794C135.107 145.689 135.166 145.592 135.244 145.512C135.321 145.431 135.415 145.368 135.518 145.327C135.622 145.285 135.733 145.267 135.845 145.272H137.85C143.081 144.864 148.2 143.538 152.974 141.357C153.077 141.312 153.187 141.288 153.299 141.286C153.411 141.284 153.522 141.304 153.626 141.345C153.73 141.386 153.825 141.448 153.906 141.526C153.986 141.603 154.051 141.696 154.095 141.799C154.14 141.902 154.164 142.013 154.166 142.125C154.168 142.237 154.148 142.348 154.107 142.453C154.066 142.557 154.005 142.652 153.927 142.733C153.849 142.814 153.756 142.878 153.654 142.923C148.692 145.17 143.38 146.541 137.952 146.974H135.879Z" fill="#413640"/>
<path d="M152.566 126.309C148.117 127.272 143.811 128.805 139.753 130.871C136.234 132.678 132.918 134.858 129.863 137.373C129.556 136.71 129.328 136.013 129.183 135.297C128.897 133.714 128.955 132.088 129.353 130.53C132.752 128.862 135.675 127.636 137.816 126.819C140.288 125.571 142.976 124.808 145.735 124.572C148.127 124.523 150.487 125.123 152.566 126.309Z" fill="#413640"/>
<path d="M127.416 131.381C127.304 132.309 127.304 133.246 127.416 134.173C127.545 135.491 128.026 136.749 128.81 137.816C128.851 136.761 128.736 135.705 128.47 134.684C128.222 133.636 128.108 132.56 128.13 131.483C128.107 131.223 128.107 130.961 128.13 130.7L127.416 131.381Z" fill="#413640"/>
<path d="M112.428 145.272C109.71 145.489 107.009 145.876 104.339 146.429C103.863 145.51 103.353 144.625 102.776 143.468C102.538 142.957 102.3 142.548 102.13 142.072C103.863 141.391 105.834 140.744 108.078 139.995C109.465 140.842 110.63 142.009 111.476 143.399C111.865 143.984 112.185 144.613 112.428 145.272Z" fill="#413640"/>
<path d="M110.083 139.28C110.782 139.89 111.399 140.588 111.918 141.357C112.741 142.397 113.259 143.647 113.413 144.966C113.21 144.966 111.918 143.059 111.51 142.48C110.99 141.53 110.338 140.659 109.573 139.893L108.995 139.382L110.083 139.28Z" fill="#413640"/>
<path d="M137.85 168.968C136.513 168.906 135.181 169.164 133.963 169.721C132.746 170.277 131.678 171.116 130.849 172.168C132.182 172.242 133.513 171.985 134.723 171.419C135.955 170.88 137.031 170.036 137.85 168.968Z" fill="#413640"/>
<path d="M149.711 180.169C149.711 183.267 146.007 185.82 141.487 185.82C136.966 185.82 133.262 183.267 133.262 180.169C133.262 177.07 136.932 174.517 141.487 174.517C146.041 174.517 149.711 177.036 149.711 180.169Z" fill="#E77584"/>
<path d="M131.325 182.62C131.105 182.62 130.894 182.535 130.735 182.383C130.577 182.23 130.484 182.023 130.475 181.803C130.475 181.574 130.563 181.354 130.722 181.189C130.88 181.024 131.096 180.926 131.325 180.918C135.078 180.902 138.783 180.062 142.177 178.456C145.571 176.85 148.572 174.517 150.969 171.623C151.128 171.467 151.341 171.38 151.564 171.38C151.786 171.38 152 171.467 152.158 171.623C152.316 171.788 152.404 172.008 152.404 172.236C152.404 172.464 152.316 172.684 152.158 172.849C149.735 175.672 146.778 177.986 143.458 179.658C139.661 181.575 135.474 182.589 131.223 182.62H131.325Z" fill="#413640"/>
<path d="M262.071 474.253C260.848 476.67 259.692 478.645 258.673 480.109C231.306 486.408 203.4 490.068 175.337 491.038C149.854 491.824 124.35 490.423 99.1052 486.85L80.7864 432.922L143.526 413.38C145.225 404.687 146.936 396.017 148.658 387.369C192.569 392.135 220.234 381.037 237.023 369.904L239.606 368.167C248.825 375.897 256.405 385.398 261.898 396.111C267.391 406.823 270.686 418.53 271.588 430.539C272.397 445.702 269.11 460.804 262.071 474.253Z" fill="#679EB0"/>
<path d="M140.773 637.229L156.678 634.505C155.047 625.245 152.668 610.673 150.527 592.323C143.933 536.114 148.012 516.163 135.709 489.778C127.795 473.345 116.157 458.994 101.722 447.868L57.8452 455.732C74.8385 487.293 92.0359 521.713 108.553 558.89C120.619 585.854 131.29 612.035 140.773 637.229Z" fill="#EAD8D5"/>
<path d="M104.237 694.323C114.204 696.406 124.469 696.637 134.519 695.004C151.496 692.127 167.226 684.231 179.688 672.33C179.187 667.128 177.257 662.167 174.114 657.997C173.094 656.67 171.957 655.44 170.715 654.32C167.078 651.085 162.592 644.685 159.092 630.93L135.301 636.378C137.51 638.863 139.719 641.382 142.098 643.868C136.728 672.364 128.504 680.773 121.332 682.748C116.302 684.143 107.194 683.599 104.645 688.876C103.881 690.589 103.737 692.515 104.237 694.323Z" fill="#938888"/>
<path d="M154.266 619.627C151.381 622.839 147.923 625.484 144.07 627.424C125.547 636.48 105.291 624.904 102.64 623.304C89.9514 581.791 77.2971 540.279 64.6768 498.766L78.7472 440.582C86.6963 438.748 94.9894 439.066 102.776 441.501C127.178 449.298 134.757 475.785 135.471 478.305C138.36 487.327 141.045 496.791 143.458 506.767C152.269 543.702 155.907 581.687 154.266 619.627Z" fill="#679EB0"/>
<path d="M92.2058 622.725C85.5124 625.147 78.4544 626.402 71.338 626.436C60.8966 626.425 50.6166 623.854 41.3957 618.946C41.9848 597.747 42.5853 576.537 43.197 555.315C38.0851 527.392 34.4322 499.221 32.2533 470.917C31.2113 460.503 32.9104 449.997 37.1814 440.446C39.8344 434.96 43.3968 429.964 47.7172 425.67C57.3015 427.168 77.6935 431.833 92.3417 448.855C114.535 474.662 114.603 518.41 89.8267 555.247C90.6651 577.74 91.4581 600.233 92.2058 622.725Z" fill="#679EB0"/>
<path d="M88.2294 582.688C88.1747 582.709 88.1143 582.709 88.0596 582.688L83.2334 560.388V560.184C83.2334 560.184 83.4033 560.184 83.4373 560.184L88.1954 582.347C88.1954 582.347 88.1954 582.347 88.1954 582.552L88.2294 582.688Z" fill="#312F2F"/>
<path d="M81.0922 546.94C81.0375 546.961 80.9771 546.961 80.9223 546.94L64.3708 465.503C64.3708 465.503 64.3708 465.333 64.3708 465.299C64.3708 465.265 64.5407 465.299 64.5407 465.299L81.1263 546.736V546.94H81.0922Z" fill="#312F2F"/>
<path d="M139.107 491.072L134.485 486.271C134.485 486.271 134.485 486.067 134.485 486.033C134.522 485.999 134.571 485.981 134.621 485.981C134.671 485.981 134.72 485.999 134.757 486.033L139.243 490.799V491.038L139.107 491.072Z" fill="#312F2F"/>
<path d="M123.066 477.658L118.75 474.9C118.75 474.9 118.75 474.9 118.75 474.662H118.987L123.236 477.385V477.624C123.236 477.624 123.134 477.658 123.066 477.658Z" fill="#312F2F"/>
<path d="M68.1432 448.038C68.1432 448.038 67.9732 448.038 68.1432 447.834L70.4542 439.459H70.6581C70.6581 439.459 70.6581 439.459 70.6581 439.663L68.313 448.038C68.313 448.038 68.2451 448.038 68.1432 448.038Z" fill="#312F2F"/>
<path d="M263.532 391.216L259.42 393.259C230.09 407.237 197.566 413.114 165.209 410.282C159.033 409.644 152.896 408.678 146.822 407.388C141.69 406.298 136.932 405.073 132.48 403.745C136.871 380.643 135.789 356.831 129.319 334.224C123.473 314.648 111.782 292.655 120.924 270.627C122.255 267.383 123.967 264.309 126.022 261.469C126.872 260.312 127.518 259.767 127.518 258.882C127.518 256.09 121.298 253.775 115.622 252.073C114.467 245.127 113.821 232.939 120.958 224.7C128.096 216.461 141.35 213.329 154.775 210.129L156.61 209.72C156.61 210.299 156.61 210.878 156.61 211.456C155.897 219.048 155.795 230.862 161.912 234.165C165.311 236.139 170.545 234.914 193.554 220.546C200.079 216.393 205.857 212.614 210.853 209.141C212.756 207.916 214.49 206.656 216.155 205.498C217.82 204.341 219.554 203.285 220.845 202.298C222.423 201.976 224.027 201.805 225.637 201.787C228.473 201.757 231.293 202.229 233.964 203.183C235.401 203.762 236.779 204.481 238.076 205.328C238.912 205.845 239.708 206.426 240.456 207.064C246.641 212.273 251.263 221.023 254.05 232.496C258.119 251.527 258.672 271.143 255.682 290.374V290.612C258.242 324.135 260.859 357.67 263.532 391.216Z" fill="#ACD4E5"/>
<path d="M240.252 339.501L209.664 347.093C209.664 325.713 209.664 304.276 209.664 282.782C209.664 265.759 209.664 248.736 209.664 231.713C207.862 216.972 213.776 204.954 220.777 203.149C228.56 201.106 242.223 210.878 245.52 229.637C246.607 240.089 247.321 251.187 247.389 263.035C247.389 268.278 247.389 273.249 247.151 278.356C247.151 282.067 246.947 285.778 246.709 289.318C245.757 306.179 243.599 322.95 240.252 339.501Z" fill="#EAD8D5"/>
<path d="M246.811 289.386L209.834 282.577C211.193 280.194 212.621 277.845 214.082 275.496L247.253 278.322C247.185 282.237 247.049 285.982 246.811 289.386Z" fill="#413640"/>
<path d="M251.841 285.267L206.129 282.577L208.27 232.122C208.542 228.717 208.78 225.313 209.052 221.908C209.358 220.206 212.451 203.796 221.559 201.481C231.449 199.098 244.058 214.554 247.049 228.717C247.649 231.49 247.9 234.326 247.797 237.161C249.111 253.253 250.459 269.288 251.841 285.267Z" fill="#ACD4E5"/>
<path d="M119.429 129.066C135.215 129.066 148.012 120.927 148.012 110.886C148.012 100.845 135.215 92.7058 119.429 92.7058C103.643 92.7058 90.8464 100.845 90.8464 110.886C90.8464 120.927 103.643 129.066 119.429 129.066Z" fill="#312F2F"/>
<path d="M180.129 111.056C178.77 118.785 169.933 124.674 162.592 124.674C156.033 124.674 154.197 118.717 145.089 111.056C129.591 98.2893 116.778 99.7532 116.812 95.5656C116.812 89.4715 144.001 78.7131 163.884 89.2672C165.855 90.3226 182.236 99.2425 180.129 111.056Z" fill="#312F2F"/>
<path d="M201.575 280.432C201.456 280.428 201.339 280.4 201.231 280.349C201.123 280.298 201.027 280.226 200.947 280.137C200.868 280.048 200.807 279.944 200.769 279.831C200.731 279.718 200.716 279.598 200.725 279.479L205.28 246.557C205.313 246.337 205.432 246.139 205.61 246.005C205.787 245.871 206.011 245.813 206.231 245.842C206.451 245.876 206.649 245.995 206.782 246.173C206.916 246.351 206.974 246.575 206.945 246.796L202.425 279.717C202.386 279.916 202.28 280.095 202.126 280.225C201.971 280.355 201.777 280.428 201.575 280.432Z" fill="#413640"/>
<path d="M248.715 285.744C248.592 285.74 248.472 285.71 248.362 285.658C248.251 285.605 248.153 285.53 248.073 285.437C247.993 285.344 247.934 285.236 247.898 285.118C247.862 285.001 247.851 284.878 247.865 284.756L250.992 263.001C251.033 262.785 251.153 262.591 251.329 262.459C251.505 262.327 251.724 262.265 251.943 262.286C252.055 262.303 252.163 262.342 252.26 262.4C252.357 262.459 252.441 262.537 252.508 262.629C252.574 262.721 252.622 262.826 252.648 262.936C252.673 263.047 252.676 263.162 252.657 263.274L249.564 284.995C249.532 285.199 249.43 285.386 249.275 285.523C249.12 285.66 248.921 285.738 248.715 285.744Z" fill="#413640"/>
<path d="M120.075 299.362C119.962 299.366 119.85 299.348 119.744 299.307C119.639 299.266 119.543 299.203 119.463 299.123C119.384 299.043 119.321 298.947 119.28 298.842C119.239 298.736 119.221 298.624 119.225 298.511L119.395 289.114C119.395 288.888 119.485 288.672 119.644 288.512C119.804 288.353 120.02 288.263 120.245 288.263C120.473 288.272 120.689 288.369 120.848 288.534C121.006 288.699 121.095 288.919 121.095 289.148L120.925 298.511C120.916 298.734 120.824 298.945 120.667 299.103C120.509 299.261 120.298 299.353 120.075 299.362Z" fill="#413640"/>
<path d="M120.925 277.368H120.619C120.511 277.334 120.411 277.278 120.325 277.204C120.239 277.13 120.168 277.04 120.118 276.938C120.067 276.837 120.037 276.726 120.03 276.613C120.023 276.5 120.038 276.386 120.075 276.279L126.329 257.622C126.412 257.415 126.571 257.248 126.772 257.153C126.974 257.058 127.204 257.043 127.416 257.111C127.626 257.181 127.801 257.331 127.902 257.528C128.004 257.725 128.024 257.954 127.96 258.167L121.672 276.824C121.614 276.977 121.512 277.11 121.379 277.207C121.246 277.303 121.088 277.36 120.925 277.368Z" fill="#413640"/>
<path d="M124.833 257.077C124.64 257.077 124.453 257.014 124.3 256.897C124.146 256.78 124.035 256.616 123.983 256.43L123.202 252.651C123.162 252.43 123.211 252.202 123.338 252.017C123.466 251.832 123.661 251.705 123.881 251.664C123.989 251.639 124.1 251.636 124.208 251.656C124.317 251.675 124.42 251.716 124.512 251.777C124.604 251.837 124.683 251.916 124.744 252.007C124.805 252.099 124.847 252.202 124.867 252.311L125.649 256.056C125.674 256.165 125.677 256.279 125.658 256.39C125.639 256.5 125.598 256.606 125.538 256.701C125.478 256.796 125.4 256.878 125.308 256.943C125.216 257.007 125.113 257.053 125.003 257.077H124.833Z" fill="#413640"/>
<path d="M671.203 645.536V749H284.06C239.878 726.836 216.087 700.043 202.085 675.564C153.008 589.361 187.47 463.597 130.713 436.939C105.563 425.092 77.2516 442.216 60.8021 422.913C46.8675 406.571 53.461 378.245 59.9185 359.18C59.9185 355.026 61.4479 324.113 78.8151 315.908C85.1827 313.566 91.8152 312.022 98.5613 311.312C107.636 309.78 112.156 309.031 117.118 310.426C124.697 312.639 126.906 318.734 133.092 323.398C142.447 330.385 153.031 335.548 164.292 338.616C232.435 423.73 278.045 444.566 307.851 446.778C314.648 447.289 332.797 447.698 349.383 459.75C371.134 475.513 362.23 497.2 381.364 522.462C390.371 534.411 408.554 543.808 444.783 562.056C488.014 583.88 511.397 592.697 511.397 592.697C530.022 600.868 549.87 608.801 570.942 616.291C603.761 628 637.239 637.765 671.203 645.536Z" fill="#A96FE7"/>
<path d="M671.203 645.536V749H284.06C239.878 726.836 216.087 700.043 202.085 675.564C153.008 589.361 187.47 463.597 130.713 436.939C105.563 425.092 77.2516 442.216 60.8021 422.913C46.8675 406.571 53.461 378.245 59.9185 359.18C59.9185 355.026 61.4479 324.113 78.8151 315.908C85.1827 313.566 91.8152 312.022 98.5613 311.312C107.636 309.78 112.156 309.031 117.118 310.426C124.697 312.639 126.906 318.734 133.092 323.398C142.447 330.385 153.031 335.548 164.292 338.616C232.435 423.73 278.045 444.566 307.851 446.778C314.648 447.289 332.797 447.698 349.383 459.75C371.134 475.513 362.23 497.2 381.364 522.462C390.371 534.411 408.554 543.808 444.783 562.056C488.014 583.88 511.397 592.697 511.397 592.697C530.022 600.868 549.87 608.801 570.942 616.291C603.761 628 637.239 637.765 671.203 645.536Z" fill="#DFAFAF"/>
<path d="M124.255 302.698L118.817 313.388C142.513 340.052 172.786 360.011 206.605 371.266C212.557 373.166 218.604 374.757 224.72 376.032C229.304 372.745 233.1 368.477 235.833 363.537C239.775 356.258 241.321 347.917 240.252 339.706C235.953 337.353 231.528 335.239 226.997 333.373C192.161 319.04 170.239 327.483 138.632 311.686C133.613 309.069 128.807 306.064 124.255 302.698Z" fill="#EAD8D5"/>
<path d="M109.097 331.058C108.997 331.087 108.891 331.087 108.791 331.058C108.719 330.972 108.68 330.864 108.68 330.752C108.68 330.64 108.719 330.531 108.791 330.445L160.995 271.036C161.033 270.998 161.078 270.968 161.127 270.947C161.177 270.926 161.23 270.916 161.284 270.916C161.337 270.916 161.39 270.926 161.44 270.947C161.49 270.968 161.535 270.998 161.573 271.036C161.651 271.118 161.696 271.228 161.696 271.342C161.696 271.457 161.651 271.566 161.573 271.649L109.403 330.922C109.366 330.967 109.319 331.003 109.266 331.026C109.213 331.05 109.155 331.061 109.097 331.058Z" fill="white"/>
<path d="M160.417 277.607C163.908 277.607 166.739 274.771 166.739 271.274C166.739 267.777 163.908 264.942 160.417 264.942C156.926 264.942 154.095 267.777 154.095 271.274C154.095 274.771 156.926 277.607 160.417 277.607Z" fill="white"/>
<path d="M144.885 324.487H127.11L110.592 319.551L104.917 303.958L125.309 287.31C135.199 296.264 138.903 298.136 140.127 297.217C141.35 296.298 140.739 295.038 142.098 294.425C142.862 294.118 143.714 294.118 144.477 294.425C148.929 302.766 153.416 311.073 157.902 319.414L144.885 324.487Z" fill="#EAD8D5"/>
<path d="M107.262 311.243C107.099 311.251 106.937 311.21 106.798 311.125C106.659 311.04 106.548 310.915 106.48 310.767L103.455 303.958C103.41 303.855 103.386 303.744 103.384 303.632C103.382 303.52 103.402 303.408 103.443 303.304C103.484 303.199 103.545 303.104 103.623 303.024C103.701 302.943 103.794 302.879 103.897 302.834C104.1 302.741 104.332 302.732 104.542 302.808C104.752 302.885 104.923 303.041 105.019 303.243L108.044 310.052C108.089 310.155 108.113 310.265 108.115 310.378C108.117 310.49 108.097 310.601 108.056 310.706C108.015 310.81 107.954 310.905 107.876 310.986C107.798 311.067 107.705 311.131 107.602 311.175C107.497 311.23 107.379 311.254 107.262 311.243Z" fill="#413640"/>
<path d="M106.276 302.528C106.134 302.52 105.995 302.479 105.871 302.408C105.747 302.337 105.642 302.238 105.563 302.119C105.446 301.924 105.41 301.691 105.46 301.469C105.511 301.247 105.645 301.053 105.834 300.928L112.122 296.979C112.215 296.898 112.324 296.839 112.442 296.806C112.56 296.772 112.684 296.764 112.805 296.783C112.927 296.802 113.043 296.847 113.145 296.914C113.247 296.982 113.334 297.072 113.398 297.176C113.463 297.281 113.504 297.398 113.519 297.52C113.534 297.642 113.522 297.766 113.485 297.883C113.448 298 113.386 298.108 113.303 298.198C113.22 298.289 113.119 298.361 113.006 298.408L106.718 302.392C106.584 302.473 106.432 302.52 106.276 302.528Z" fill="#413640"/>
<path d="M110.627 305.149C110.494 305.155 110.362 305.127 110.243 305.067C110.124 305.008 110.022 304.919 109.947 304.809C109.88 304.719 109.831 304.618 109.803 304.509C109.776 304.401 109.77 304.288 109.785 304.178C109.801 304.067 109.839 303.961 109.895 303.865C109.952 303.768 110.028 303.684 110.117 303.617L121.502 295.004C121.661 294.848 121.875 294.76 122.097 294.76C122.319 294.76 122.533 294.848 122.692 295.004C122.763 295.091 122.816 295.193 122.846 295.302C122.877 295.411 122.884 295.525 122.868 295.637C122.852 295.749 122.813 295.856 122.754 295.953C122.694 296.049 122.615 296.131 122.522 296.195L111.136 304.809C111.079 304.897 111.004 304.973 110.916 305.031C110.829 305.09 110.73 305.13 110.627 305.149Z" fill="#413640"/>
<path d="M130.815 304.911C130.66 304.958 130.494 304.958 130.339 304.911L122.08 299.225C121.986 299.164 121.904 299.083 121.841 298.99C121.778 298.896 121.734 298.791 121.712 298.68C121.689 298.569 121.69 298.455 121.712 298.344C121.734 298.233 121.779 298.127 121.842 298.034C121.973 297.85 122.169 297.722 122.39 297.678C122.611 297.634 122.841 297.676 123.032 297.796L131.291 303.515C131.475 303.646 131.602 303.842 131.646 304.064C131.69 304.285 131.648 304.515 131.528 304.707C131.431 304.791 131.317 304.852 131.194 304.888C131.071 304.923 130.941 304.931 130.815 304.911Z" fill="#413640"/>
<path d="M219.18 337.05C218.959 337.038 218.752 336.94 218.602 336.778L210.751 329.117C210.589 328.959 210.496 328.743 210.493 328.517C210.49 328.29 210.577 328.071 210.734 327.909C210.892 327.746 211.108 327.653 211.334 327.65C211.56 327.647 211.779 327.734 211.941 327.892L219.792 335.586C219.9 335.711 219.971 335.863 219.997 336.026C220.023 336.189 220.003 336.356 219.94 336.508C219.876 336.661 219.771 336.792 219.637 336.888C219.503 336.983 219.345 337.04 219.18 337.05Z" fill="#413640"/>
<path d="M220.03 589.463C219.832 589.461 219.642 589.393 219.488 589.269C219.334 589.146 219.225 588.974 219.18 588.782L216.461 574.755C216.421 574.53 216.469 574.298 216.595 574.108C216.722 573.917 216.918 573.783 217.141 573.734C217.25 573.709 217.364 573.708 217.474 573.729C217.585 573.751 217.69 573.795 217.782 573.859C217.875 573.923 217.953 574.005 218.012 574.101C218.071 574.197 218.11 574.304 218.126 574.415L220.845 588.442C220.87 588.549 220.873 588.661 220.854 588.769C220.834 588.878 220.793 588.981 220.733 589.073C220.672 589.166 220.594 589.245 220.502 589.306C220.411 589.367 220.308 589.409 220.199 589.429L220.03 589.463Z" fill="#413640"/>
<path d="M230.192 582.45C229.966 582.45 229.75 582.36 229.591 582.2C229.432 582.041 229.342 581.824 229.342 581.599V579.828C229.342 579.602 229.432 579.386 229.591 579.226C229.75 579.067 229.966 578.977 230.192 578.977C230.417 578.977 230.633 579.067 230.793 579.226C230.952 579.386 231.041 579.602 231.041 579.828V581.599C231.041 581.824 230.952 582.041 230.793 582.2C230.633 582.36 230.417 582.45 230.192 582.45Z" fill="#413640"/>
<path d="M218.67 536.08C218.508 536.083 218.348 536.04 218.21 535.956C218.071 535.871 217.96 535.749 217.888 535.603L211.771 522.836C211.72 522.736 211.69 522.627 211.683 522.515C211.676 522.403 211.693 522.291 211.731 522.185C211.769 522.08 211.829 521.984 211.906 521.902C211.983 521.821 212.076 521.756 212.179 521.713C212.378 521.617 212.606 521.602 212.815 521.672C213.024 521.742 213.198 521.891 213.3 522.087L219.418 534.854C219.513 535.053 219.528 535.282 219.458 535.492C219.388 535.701 219.24 535.876 219.044 535.978L218.67 536.08Z" fill="#413640"/>
<path d="M247.253 528.794C247.069 528.794 246.89 528.734 246.743 528.624C246.596 528.513 246.489 528.358 246.437 528.181L243.378 517.593C243.315 517.376 243.341 517.143 243.449 516.946C243.558 516.748 243.74 516.601 243.956 516.538C244.173 516.475 244.405 516.5 244.603 516.609C244.8 516.717 244.947 516.9 245.01 517.116L248.069 527.705C248.132 527.921 248.106 528.154 247.998 528.352C247.89 528.55 247.707 528.697 247.491 528.76L247.253 528.794Z" fill="#413640"/>
<path d="M265.3 533.22C265.098 533.216 264.904 533.143 264.749 533.013C264.595 532.883 264.489 532.703 264.45 532.505L262.717 522.802C262.692 522.692 262.691 522.578 262.712 522.468C262.734 522.357 262.778 522.252 262.841 522.16C262.905 522.067 262.988 521.988 263.083 521.929C263.179 521.87 263.285 521.831 263.397 521.815C263.506 521.79 263.62 521.788 263.73 521.81C263.841 521.831 263.946 521.875 264.038 521.939C264.131 522.003 264.209 522.086 264.268 522.181C264.327 522.277 264.366 522.384 264.382 522.496L266.116 532.199C266.14 532.308 266.142 532.422 266.12 532.533C266.099 532.643 266.055 532.748 265.991 532.841C265.927 532.934 265.845 533.012 265.75 533.071C265.654 533.131 265.547 533.17 265.436 533.186L265.3 533.22Z" fill="#413640"/>
<path d="M298.301 521.951C298.117 521.951 297.938 521.891 297.791 521.781C297.644 521.67 297.537 521.515 297.485 521.338L296.805 518.887C296.774 518.78 296.764 518.667 296.777 518.556C296.789 518.445 296.823 518.337 296.876 518.239C296.93 518.141 297.002 518.055 297.089 517.985C297.176 517.915 297.276 517.863 297.383 517.831C297.493 517.801 297.607 517.792 297.72 517.807C297.832 517.821 297.941 517.858 298.039 517.915C298.138 517.972 298.223 518.048 298.292 518.139C298.36 518.23 298.409 518.334 298.437 518.444L299.117 520.861C299.153 520.969 299.166 521.082 299.156 521.195C299.147 521.308 299.113 521.417 299.059 521.516C299.005 521.616 298.931 521.702 298.841 521.771C298.751 521.84 298.649 521.89 298.539 521.917L298.301 521.951Z" fill="#413640"/>
<path d="M351.184 631.782L335.006 628.99C334.894 628.973 334.786 628.934 334.689 628.876C334.592 628.817 334.508 628.739 334.442 628.647C334.375 628.555 334.328 628.45 334.302 628.34C334.277 628.229 334.273 628.114 334.293 628.003C334.334 627.782 334.461 627.586 334.645 627.459C334.83 627.331 335.058 627.282 335.278 627.322L351.32 630.079C351.545 630.079 351.761 630.169 351.921 630.329C352.08 630.488 352.17 630.705 352.17 630.93C352.17 631.156 352.08 631.373 351.921 631.532C351.761 631.692 351.545 631.782 351.32 631.782H351.184Z" fill="#413640"/>
<path d="M302.855 647.204H302.617L296.262 645.366C296.045 645.302 295.863 645.156 295.755 644.958C295.646 644.76 295.621 644.527 295.684 644.31C295.711 644.2 295.76 644.097 295.829 644.008C295.898 643.918 295.985 643.843 296.084 643.789C296.183 643.735 296.292 643.701 296.405 643.691C296.517 643.682 296.63 643.695 296.737 643.731L303.059 645.57C303.169 645.598 303.273 645.647 303.363 645.715C303.454 645.784 303.53 645.87 303.587 645.968C303.644 646.067 303.681 646.175 303.695 646.288C303.71 646.401 303.701 646.516 303.671 646.625C303.613 646.796 303.503 646.944 303.357 647.048C303.21 647.152 303.035 647.206 302.855 647.204Z" fill="#413640"/>
<path d="M275.156 650.609L265.334 649.928C265.112 649.902 264.907 649.793 264.762 649.622C264.617 649.452 264.542 649.232 264.552 649.009C264.556 648.895 264.583 648.783 264.633 648.681C264.682 648.579 264.752 648.488 264.838 648.414C264.925 648.34 265.026 648.286 265.134 648.253C265.243 648.221 265.357 648.211 265.47 648.225L275.224 648.906C275.449 648.906 275.665 648.996 275.825 649.156C275.984 649.315 276.074 649.532 276.074 649.758C276.074 649.983 275.984 650.2 275.825 650.359C275.665 650.519 275.449 650.609 275.224 650.609H275.156Z" fill="#413640"/>
<path d="M271.859 636.275H271.621L262.683 634.028C262.573 633.999 262.471 633.949 262.381 633.88C262.291 633.811 262.215 633.726 262.159 633.628C262.102 633.53 262.065 633.421 262.05 633.309C262.035 633.197 262.042 633.082 262.071 632.973C262.1 632.863 262.15 632.761 262.219 632.671C262.288 632.581 262.373 632.505 262.471 632.448C262.569 632.391 262.677 632.354 262.789 632.339C262.901 632.324 263.015 632.331 263.125 632.36L272.063 634.641C272.278 634.697 272.463 634.836 272.577 635.027C272.691 635.218 272.727 635.446 272.675 635.663C272.629 635.842 272.523 636.001 272.374 636.112C272.226 636.224 272.044 636.281 271.859 636.275Z" fill="#413640"/>
<path d="M253.608 643.459H253.337L237.023 638.216C236.913 638.189 236.81 638.139 236.721 638.07C236.631 638.002 236.557 637.915 236.503 637.815C236.448 637.716 236.415 637.607 236.405 637.494C236.395 637.381 236.409 637.268 236.445 637.161C236.522 636.948 236.678 636.772 236.881 636.671C237.083 636.57 237.316 636.55 237.533 636.616L253.88 641.825C254.093 641.902 254.268 642.058 254.369 642.261C254.47 642.464 254.49 642.697 254.424 642.914C254.353 643.073 254.239 643.208 254.095 643.305C253.951 643.401 253.782 643.455 253.608 643.459Z" fill="#413640"/>
<path d="M350.504 543.399C350.389 543.405 350.273 543.385 350.165 543.342C350.057 543.299 349.96 543.233 349.88 543.15C349.799 543.066 349.737 542.966 349.699 542.856C349.66 542.747 349.645 542.63 349.655 542.514L350.538 527.875C350.564 527.652 350.673 527.447 350.843 527.302C351.013 527.157 351.233 527.082 351.456 527.092C351.675 527.109 351.879 527.211 352.025 527.376C352.171 527.541 352.247 527.757 352.238 527.977L351.354 542.616C351.337 542.83 351.24 543.03 351.082 543.175C350.925 543.32 350.718 543.4 350.504 543.399Z" fill="#413640"/>
<path d="M356.826 548.54C356.612 548.541 356.405 548.461 356.248 548.316C356.09 548.17 355.993 547.971 355.976 547.757L355.534 538.803C355.525 538.574 355.605 538.35 355.757 538.179C355.909 538.007 356.122 537.902 356.35 537.884C356.462 537.88 356.573 537.897 356.678 537.936C356.783 537.974 356.879 538.033 356.961 538.109C357.043 538.185 357.11 538.276 357.156 538.378C357.203 538.48 357.229 538.589 357.234 538.701L357.676 547.655C357.69 547.766 357.681 547.879 357.648 547.986C357.615 548.093 357.56 548.192 357.486 548.276C357.412 548.36 357.321 548.427 357.219 548.473C357.116 548.518 357.006 548.541 356.894 548.54H356.826Z" fill="#413640"/>
<path d="M333.035 553.102C332.848 553.099 332.667 553.039 332.515 552.929C332.363 552.82 332.248 552.666 332.186 552.49L330.622 547.008C330.591 546.901 330.581 546.789 330.593 546.678C330.606 546.566 330.639 546.459 330.693 546.361C330.747 546.263 330.819 546.176 330.906 546.106C330.993 546.036 331.093 545.984 331.2 545.953C331.416 545.899 331.645 545.928 331.84 546.035C332.036 546.143 332.183 546.32 332.254 546.532L333.851 552.013C333.904 552.234 333.87 552.467 333.756 552.663C333.642 552.86 333.457 553.005 333.239 553.068L333.035 553.102Z" fill="#413640"/>
<path d="M166.704 444.532C166.504 444.536 166.309 444.463 166.161 444.327L157.256 436.156C157.175 436.08 157.11 435.988 157.066 435.885C157.022 435.783 156.999 435.672 156.999 435.561C156.999 435.449 157.022 435.338 157.066 435.236C157.11 435.133 157.175 435.041 157.256 434.965C157.415 434.809 157.629 434.721 157.851 434.721C158.073 434.721 158.287 434.809 158.446 434.965L167.316 443.136C167.472 443.295 167.559 443.509 167.559 443.731C167.559 443.954 167.472 444.168 167.316 444.327C167.233 444.401 167.137 444.457 167.031 444.493C166.926 444.528 166.815 444.541 166.704 444.532Z" fill="#413640"/>
<path d="M177.478 444.532C177.346 444.537 177.213 444.509 177.094 444.45C176.975 444.39 176.874 444.301 176.799 444.191L172.72 438.403C172.634 438.316 172.567 438.211 172.525 438.096C172.483 437.981 172.466 437.857 172.476 437.735C172.486 437.613 172.523 437.494 172.583 437.387C172.643 437.28 172.725 437.187 172.825 437.115C172.924 437.043 173.038 436.993 173.158 436.969C173.278 436.945 173.402 436.947 173.521 436.976C173.641 437.005 173.752 437.059 173.849 437.135C173.945 437.211 174.024 437.307 174.08 437.416L178.158 443.204C178.293 443.384 178.351 443.611 178.319 443.835C178.288 444.058 178.168 444.26 177.988 444.395C177.834 444.488 177.658 444.535 177.478 444.532Z" fill="#413640"/>
<path d="M168.982 470.134C168.772 470.134 168.567 470.062 168.404 469.929L161.607 464.142C161.449 463.977 161.361 463.757 161.361 463.529C161.361 463.3 161.449 463.081 161.607 462.916C161.765 462.76 161.979 462.673 162.201 462.673C162.424 462.673 162.637 462.76 162.796 462.916L169.594 468.704C169.675 468.78 169.74 468.872 169.784 468.975C169.828 469.077 169.851 469.188 169.851 469.3C169.851 469.411 169.828 469.522 169.784 469.624C169.74 469.727 169.675 469.819 169.594 469.895C169.512 469.974 169.417 470.035 169.311 470.076C169.206 470.117 169.094 470.137 168.982 470.134Z" fill="#413640"/>
<path d="M199.876 412.597C199.665 412.597 199.461 412.525 199.298 412.393L193.486 407.388C193.33 407.229 193.243 407.015 193.243 406.792C193.243 406.569 193.33 406.355 193.486 406.196C193.562 406.115 193.654 406.05 193.757 406.006C193.859 405.961 193.969 405.938 194.081 405.938C194.192 405.938 194.303 405.961 194.405 406.006C194.507 406.05 194.599 406.115 194.676 406.196L200.487 411.201C200.643 411.36 200.73 411.574 200.73 411.797C200.73 412.02 200.643 412.233 200.487 412.393C200.409 412.472 200.312 412.532 200.206 412.568C200.1 412.603 199.986 412.613 199.876 412.597Z" fill="#413640"/>
<path d="M70.4883 401.736C70.3311 401.737 70.1768 401.693 70.0442 401.609C69.9115 401.524 69.8061 401.403 69.7406 401.26L64.9484 391.523C64.8908 391.423 64.8548 391.313 64.8426 391.199C64.8303 391.085 64.8422 390.969 64.8775 390.86C64.9128 390.751 64.9705 390.651 65.0472 390.565C65.1238 390.48 65.2176 390.412 65.3224 390.365C65.5213 390.269 65.7495 390.255 65.9588 390.325C66.1681 390.395 66.3421 390.544 66.4439 390.74L71.236 400.374C71.3332 400.579 71.3486 400.813 71.279 401.028C71.2095 401.243 71.0603 401.424 70.8621 401.532L70.4883 401.736Z" fill="#413640"/>
<path d="M82.8596 403.949C82.6327 403.951 82.4135 403.866 82.2477 403.711L75.1105 396.561C75.0283 396.482 74.9629 396.387 74.9182 396.282C74.8735 396.176 74.8506 396.063 74.8506 395.949C74.8506 395.834 74.8735 395.721 74.9182 395.616C74.9629 395.51 75.0283 395.415 75.1105 395.336C75.275 395.178 75.4943 395.089 75.7223 395.089C75.9504 395.089 76.1695 395.178 76.3341 395.336L83.4713 402.519C83.5831 402.64 83.6575 402.791 83.6856 402.953C83.7136 403.115 83.6941 403.282 83.6294 403.434C83.5646 403.585 83.4573 403.714 83.3207 403.806C83.1841 403.897 83.0239 403.947 82.8596 403.949Z" fill="#413640"/>
<path d="M520.574 0C518.297 17.0227 512.349 32.956 499.842 43.442C478.328 61.5201 456.203 47.902 433.636 67.0695C408.792 88.1096 422.114 115.891 397.984 131.994C377.184 145.851 361.924 128.828 336.808 142.208C308.429 157.256 312.575 187.148 291.64 198.145C276.719 206.009 248.239 204.681 188.286 155.554C186.958 147.052 184.296 138.813 180.401 131.143C165.753 102.409 138.02 91.2418 129.013 88.0756C159.194 88.4161 168.744 80.7218 173.672 74.1851C177.886 68.6016 174.42 61.8946 179.552 56.924C186.859 49.8085 197.157 56.6516 205.212 51.1363C214.796 44.5655 209.8 28.2577 212.757 14.6055C213.958 9.3389 216.277 4.39268 219.554 0.102136L520.574 0Z" fill="#312F2F"/>
<path d="M198.788 133.594C209.754 145.442 220.302 157.665 230.43 170.261C235.63 176.696 240.626 183.301 245.656 189.837C249.425 195.081 254.016 199.68 259.25 203.456C269.616 210.537 284.978 213.193 296.058 206.145C306.254 199.574 310.434 187.012 311.046 175.504C311.998 157.562 305.982 139.314 312.745 121.917C313.323 120.385 310.876 119.738 310.264 121.236C305.268 134.105 307.07 147.757 308.123 161.137C309.177 174.517 309.109 189.803 299.287 200.255C289.464 210.707 271.248 209.107 259.93 200.936C254.293 196.453 249.356 191.152 245.282 185.207C241.113 179.76 236.944 174.381 232.775 169.07C222.511 156.269 211.794 143.842 200.623 131.79C199.502 130.564 197.7 132.369 198.822 133.594H198.788Z" fill="#312F2F"/>
<path d="M306.594 147.008C320.494 135.229 339.969 138.122 355.806 143.604C371.644 149.085 387.38 157.699 404.815 158.073C439.957 158.754 452.397 122.053 454.64 92.8079C455.387 83.105 455.387 73.3339 455.421 63.5629C455.455 53.7918 455.421 43.1356 460.587 34.1136C461.403 32.6837 459.194 31.3899 458.412 32.8198C450.629 46.8125 453.11 64.2778 452.736 79.6664C452.294 97.1317 450.629 115.21 442.54 131.041C439.073 138.354 433.825 144.676 427.28 149.426C419.495 154.319 410.272 156.397 401.145 155.315C383.234 153.817 367.498 144.285 350.572 139.246C335.278 134.684 317.537 134.241 304.725 145.102C303.467 146.157 305.268 147.962 306.526 146.906L306.594 147.008Z" fill="#312F2F"/>
<path d="M149.032 85.5222C172.822 88.1096 161.063 52.8385 170.477 41.7397C177.275 33.8071 192.059 36.2924 201.065 37.3819C212.553 38.7778 223.87 41.195 235.46 41.7397C237.091 41.7397 237.091 39.2544 235.46 39.1863C224.142 38.6416 213.063 36.3265 201.847 34.9306C193.078 33.8071 182.339 32.2751 173.944 36.1222C166.263 39.5268 164.394 47.7317 163.748 55.4941C162.762 65.7077 164.598 84.637 149.134 82.9688C147.502 82.7985 147.536 85.352 149.134 85.5222H149.032Z" fill="#312F2F"/>
<path d="M187.912 123.925C190.631 129.986 189.238 136.556 184.786 138.565C180.333 140.574 174.59 137.339 171.735 131.279C168.88 125.219 170.375 118.648 174.861 116.64C179.348 114.631 185.193 117.865 187.912 123.925Z" fill="#EAD8D5"/>
<path d="M181.965 140.029C181.479 140.078 180.989 140.078 180.503 140.029C180.283 139.988 180.088 139.861 179.96 139.676C179.833 139.491 179.784 139.263 179.824 139.042C179.84 138.93 179.878 138.823 179.938 138.727C179.997 138.632 180.075 138.549 180.168 138.485C180.26 138.421 180.365 138.377 180.475 138.356C180.586 138.334 180.699 138.336 180.809 138.361C182.038 138.578 183.304 138.424 184.446 137.918C185.755 137.231 186.842 136.184 187.576 134.899C188.311 133.614 188.663 132.145 188.592 130.666C188.596 130.555 188.623 130.445 188.669 130.343C188.716 130.242 188.783 130.15 188.865 130.074C188.947 129.998 189.043 129.94 189.148 129.901C189.253 129.862 189.364 129.845 189.476 129.849C189.587 129.854 189.697 129.88 189.798 129.927C189.9 129.974 189.991 130.04 190.067 130.123C190.142 130.205 190.201 130.301 190.24 130.406C190.278 130.511 190.296 130.623 190.291 130.735C190.331 132.504 189.874 134.249 188.973 135.772C188.072 137.295 186.762 138.533 185.193 139.348C184.179 139.808 183.077 140.04 181.965 140.029Z" fill="#413640"/>
<path d="M189.272 129.883C189.165 129.888 189.058 129.871 188.957 129.834C188.856 129.797 188.764 129.741 188.685 129.668C188.606 129.596 188.542 129.508 188.497 129.411C188.452 129.313 188.427 129.208 188.422 129.1C188.283 127.736 187.963 126.396 187.471 125.117C187.39 124.905 187.396 124.669 187.488 124.462C187.581 124.254 187.752 124.092 187.963 124.011C188.175 123.929 188.411 123.936 188.618 124.028C188.825 124.121 188.987 124.292 189.068 124.504C189.62 125.934 189.963 127.436 190.088 128.964C190.102 129.074 190.093 129.186 190.063 129.293C190.033 129.399 189.981 129.499 189.911 129.585C189.841 129.671 189.754 129.742 189.656 129.793C189.558 129.844 189.45 129.875 189.34 129.883H189.272Z" fill="#413640"/>
<path d="M187.301 123.619C187.153 123.617 187.008 123.575 186.883 123.497C186.757 123.419 186.655 123.308 186.587 123.177C183.834 118.206 178.94 115.687 175.201 117.389C174.377 117.77 173.646 118.328 173.06 119.023C172.984 119.104 172.892 119.169 172.789 119.214C172.687 119.258 172.577 119.281 172.465 119.281C172.354 119.281 172.244 119.258 172.141 119.214C172.039 119.169 171.947 119.104 171.871 119.023C171.788 118.944 171.723 118.848 171.678 118.743C171.634 118.638 171.611 118.525 171.611 118.41C171.611 118.296 171.634 118.182 171.678 118.077C171.723 117.972 171.788 117.877 171.871 117.797C172.611 116.911 173.54 116.201 174.59 115.721C179.144 113.644 184.99 116.436 188.184 122.223C188.296 122.418 188.326 122.648 188.269 122.865C188.212 123.082 188.071 123.267 187.878 123.381C187.718 123.523 187.514 123.607 187.301 123.619Z" fill="#413640"/>
<path d="M180.503 134.445C180.284 134.446 180.073 134.361 179.914 134.208C179.756 134.056 179.662 133.848 179.654 133.628L179.144 121.746C179.151 121.525 179.237 121.314 179.387 121.151C179.537 120.989 179.74 120.886 179.959 120.861C180.071 120.857 180.182 120.874 180.287 120.913C180.392 120.951 180.488 121.01 180.57 121.086C180.653 121.162 180.719 121.254 180.766 121.355C180.812 121.457 180.839 121.567 180.843 121.678L181.353 133.56C181.362 133.673 181.348 133.787 181.312 133.894C181.275 134.001 181.216 134.099 181.139 134.183C181.063 134.266 180.97 134.332 180.866 134.377C180.762 134.423 180.65 134.446 180.537 134.445H180.503Z" fill="#413640"/>
<path d="M179.858 127.636C179.703 127.686 179.537 127.686 179.382 127.636L175.983 125.355C175.799 125.225 175.672 125.028 175.628 124.807C175.584 124.585 175.626 124.355 175.745 124.164C175.881 123.986 176.076 123.863 176.295 123.82C176.514 123.776 176.741 123.813 176.935 123.925L180.333 126.241C180.427 126.299 180.507 126.376 180.57 126.467C180.633 126.558 180.677 126.66 180.699 126.768C180.722 126.877 180.722 126.988 180.7 127.096C180.678 127.205 180.634 127.307 180.571 127.398C180.477 127.488 180.364 127.556 180.241 127.597C180.118 127.638 179.987 127.652 179.858 127.636Z" fill="#413640"/>
</svg>
