<svg width="360" height="257" viewBox="0 0 360 257" fill="none" xmlns="http://www.w3.org/2000/svg">
<g clip-path="url(#clip0_175_381)">
<path d="M288.546 27.8057C289.735 35.5467 288.123 43.4582 284.001 50.1155C279.879 56.7729 273.517 61.7386 266.061 64.1186C265.222 64.3812 264.347 64.6175 263.438 64.8276C262.677 65.0114 261.916 65.1426 261.129 65.2739C255.397 66.1696 249.53 65.5263 244.128 63.4097C243.472 63.1471 242.79 62.8846 242.134 62.5695L240.402 61.6768C239.72 61.3092 239.091 60.9416 238.461 60.5215C234.52 58.0212 231.161 54.7052 228.609 50.7966C226.056 46.888 224.37 42.4775 223.664 37.862V37.3631C223.664 36.4441 223.428 35.4989 223.375 34.5799C223.138 30.0208 223.848 25.4621 225.46 21.1914C227.072 16.9208 229.552 13.0309 232.741 9.76738L233.817 8.74337C235.189 7.45797 236.673 6.29805 238.251 5.2775L239.878 4.27974C242.873 2.55898 246.123 1.32698 249.506 0.63007L251.107 0.341245H251.71C257.308 -0.44545 263.014 0.242348 268.265 2.33675L269.603 2.88814C270.443 3.28199 271.256 3.67584 272.069 4.1222L273.145 4.75236C278.915 8.18708 283.493 13.3098 286.263 19.4298C286.797 20.6185 287.261 21.8371 287.654 23.0795C288.06 24.6324 288.358 26.2116 288.546 27.8057Z" fill="#E77584"/>
<path d="M79.5483 129.498L77.9741 129.708C74.3818 130.264 70.7392 130.423 67.1123 130.181C60.5863 129.735 54.2743 127.668 48.7469 124.168C42.9094 120.447 38.7009 114.648 36.972 107.941C35.243 101.234 36.1227 94.1211 39.4331 88.0386C42.7403 81.8988 47.3094 76.5296 52.8398 72.2846C64.0054 63.2257 78.2789 58.9168 92.5876 60.2853C104.682 61.6244 116.436 66.3506 127.77 70.788L135.038 73.6762L179.849 90.9794C190.895 95.2592 201.337 99.2765 213.641 99.5653C230.8 99.9854 245.991 94.3139 255.331 83.9951C264.725 73.5979 270.497 60.4326 271.781 46.4743C271.912 45.2403 271.964 43.8487 271.991 42.7459C271.991 42.2724 272.179 41.8182 272.513 41.4834C272.848 41.1486 273.302 40.9604 273.775 40.9604C274.248 40.9604 274.702 41.1486 275.036 41.4834C275.371 41.8182 275.559 42.2724 275.559 42.7459C275.559 44.0587 275.559 45.3716 275.323 46.7107C273.973 61.4438 267.878 75.3395 257.954 86.3057C249.58 95.0478 238.472 100.662 226.471 102.217C222.229 102.886 217.935 103.167 213.641 103.057C200.707 102.742 190.029 98.5938 178.642 94.2089L133.752 77.2471L126.406 74.3064C115.282 69.8165 103.764 65.2216 92.299 63.8037C78.9129 62.5169 65.5584 66.5537 55.1223 75.0416C47.8811 80.7918 36.3897 92.6598 40.64 107.495C43.7096 118.286 53.7581 125.376 67.4796 126.505C70.844 126.729 74.2229 126.58 77.5543 126.058C97.3396 123.263 115.48 113.496 128.715 98.515C133.409 93.4316 137.698 87.9886 141.544 82.2359C141.795 81.839 142.193 81.5579 142.65 81.4545C142.877 81.4033 143.111 81.3972 143.34 81.4367C143.569 81.4762 143.788 81.5604 143.984 81.6845C144.181 81.8086 144.351 81.9703 144.485 82.1602C144.619 82.35 144.714 82.5645 144.765 82.7912C144.816 83.018 144.822 83.2526 144.783 83.4817C144.744 83.7108 144.659 83.9298 144.535 84.1264C140.618 90.0447 136.231 95.6379 131.417 100.852C117.958 116.117 99.628 126.24 79.5483 129.498Z" fill="#E77584"/>
<path d="M286.053 19.4825C285.562 26.0996 283.966 32.5875 281.331 38.6761C281.095 39.2013 280.885 39.7527 280.648 40.2778C269.834 37.2462 259.748 32.0472 251.002 24.9964C250.771 24.9221 250.523 24.9221 250.293 24.9964C252.83 20.2117 256.187 15.9103 260.211 12.2882C263.957 9.00081 268.281 6.43687 272.961 4.7263L271.886 4.09614C251.343 11.6055 240.166 35.2365 241.399 56.3994C241.52 58.4877 241.774 60.5662 242.16 62.6222C242.816 62.9373 243.498 63.1998 244.154 63.4624C243.861 62.1618 243.633 60.8473 243.472 59.5239C251.107 61.7032 259.66 64.3289 267.321 61.0468C266.115 62.4024 264.827 63.6827 263.464 64.8803C264.356 64.6702 265.23 64.4339 266.087 64.1713C266.691 63.6199 267.268 63.016 267.845 62.4121C270.85 59.2312 273.563 55.7865 275.952 52.1195C280.832 44.7323 284.383 36.5484 286.447 27.9372C286.832 26.3093 287.146 24.6813 287.391 23.0534C287.013 21.8389 286.566 20.6467 286.053 19.4825ZM268.344 59.9178L267.924 60.4166C267.729 60.3321 267.52 60.2884 267.307 60.2884C267.095 60.2884 266.885 60.3321 266.691 60.4166C259.528 63.6987 251.133 60.7317 244.049 58.7099C243.815 58.6676 243.575 58.6676 243.341 58.7099C242.783 52.7883 243.164 46.8157 244.469 41.013C244.943 38.7481 245.547 36.5126 246.279 34.3175C254.3 42.4945 264.889 47.6588 276.267 48.9425C273.955 52.803 271.303 56.4496 268.344 59.839V59.9178ZM276.713 48.076C265.366 46.7093 254.87 41.3597 247.092 32.9784C247.005 32.8958 246.896 32.8409 246.778 32.8209C247.267 31.4206 247.818 30.0552 248.431 28.7249C256.897 36.5856 267.156 42.2554 278.314 45.2403C277.736 46.1855 277.238 47.0783 276.713 47.9972V48.076ZM278.733 44.3213C267.625 41.1876 257.461 35.3618 249.139 27.3595C249.088 27.3415 249.032 27.3415 248.981 27.3595L249.769 25.8104C258.642 32.8883 268.85 38.1034 279.783 41.1443H280.229C279.757 42.1945 279.258 43.2448 278.733 44.2425V44.3213ZM256.406 10.9491C260.196 7.45566 264.661 4.77505 269.524 3.07213L268.186 2.52074C265.666 3.42129 263.255 4.60143 260.998 6.03913C258.417 3.70651 255.392 1.92026 252.104 0.7878L251.631 0.604004H251.028L249.428 0.892829L251.29 1.68053C254.429 2.80014 257.285 4.59235 259.66 6.93185C258.402 7.81019 257.193 8.75685 256.039 9.76757C252.561 7.49249 248.705 5.85647 244.653 4.93635C243.042 4.65379 241.407 4.5394 239.773 4.59501L238.146 5.59276C240.065 5.43111 241.996 5.51937 243.892 5.85533C247.824 6.68144 251.574 8.21137 254.963 10.3715H255.121C254.195 11.2399 253.319 12.1604 252.497 13.1284C246.937 9.66107 240.391 8.12028 233.869 8.74356L232.794 9.76757C239.211 8.97371 245.705 10.4405 251.159 13.9161C251.331 13.9606 251.512 13.9606 251.684 13.9161C244.192 23.3036 239.63 34.6915 238.566 46.6581C232.646 43.8001 227.452 39.6344 223.375 34.4751C223.375 35.3941 223.532 36.3393 223.664 37.2583C227.566 41.6125 232.316 45.1238 237.621 47.5771C237.894 47.6692 238.189 47.6692 238.461 47.5771C238.303 49.3101 238.198 51.043 238.172 52.8285C238.132 55.3551 238.264 57.8815 238.566 60.3904C239.195 60.8105 239.825 61.1781 240.507 61.5457C239.485 53.8463 239.876 46.0248 241.662 38.4661C243.728 28.0059 248.861 18.3988 256.406 10.8703V10.9491Z" fill="#D26271"/>
<path d="M170.299 65.9042C170.118 65.6346 169.881 65.4063 169.605 65.2344C169.33 65.0625 169.021 64.9507 168.699 64.9065C167.796 64.8436 166.892 65.0154 166.075 65.4054C164.44 66.053 162.846 66.7983 161.3 67.6372C156.473 70.2628 152.039 73.5712 147.185 76.2231C142.331 78.875 136.507 81.4744 131.207 84.1001C129.502 84.9666 127.692 85.728 125.96 86.7258C124.228 87.7235 123.127 88.6425 121.579 89.3514C120.66 89.8503 119.69 90.2704 118.745 90.7168C117.563 91.1151 116.449 91.6905 115.439 92.4235C114.624 93.2087 114.051 94.2109 113.786 95.3117C113.467 96.6723 113.291 98.0628 113.262 99.4602C112.337 110.804 110.173 122.013 106.808 132.885C105.223 138.732 102.997 144.385 100.17 149.742C96.6817 155.816 92.6418 161.555 88.1012 166.887C83.2737 172.874 78.3763 178.808 73.4089 184.689C71.729 186.381 70.4629 188.439 69.7096 190.702C68.2142 196.452 75.4554 200.312 79.6269 202.491C85.3447 205.513 91.4552 207.722 97.7823 209.055L98.9892 209.292H98.7006C98.5169 209.292 98.307 209.528 98.4907 209.686C98.9673 210.02 99.5353 210.199 100.117 210.199C100.699 210.199 101.267 210.02 101.744 209.686C102.784 208.993 103.676 208.101 104.368 207.06C105.842 204.883 107.124 202.581 108.198 200.181L116.069 184.164C118.509 179.307 120.949 174.449 123.704 169.776C124.753 168.016 125.855 166.336 126.957 164.524C127.823 163.238 128.426 161.899 129.423 160.638L138.501 149.295C141.166 145.761 143.411 141.928 145.191 137.874L146.345 135.458C147.028 134.04 147.736 132.622 148.313 131.152C148.856 129.744 149.209 128.269 149.363 126.767C149.547 124.529 149.361 122.276 148.812 120.098C148.566 118.016 148.989 115.91 150.019 114.085C151.598 109.888 152.792 105.555 153.587 101.141C154.133 98.1981 154.353 95.2042 154.243 92.2134C154.243 89.5877 153.088 87.671 155.004 85.833L165.498 75.6192C167.129 74.2484 168.552 72.6475 169.722 70.8668C170.176 70.1327 170.463 69.3075 170.563 68.4499C170.663 67.5922 170.573 66.7231 170.299 65.9042Z" fill="#EAD8D5"/>
<path d="M114.101 202.097C112.107 208.872 109.93 215.567 107.568 222.236C107.175 223.365 106.781 224.494 106.362 225.623C102.846 235.391 99.0679 245.027 95.2899 254.689C95.0013 255.451 94.6865 256.239 94.3717 257H3.22705C16.3451 240.826 30.9062 225.676 44.0506 209.449C51.2108 200.089 58.9111 191.155 67.1122 182.694C68.1964 181.367 69.5674 180.305 71.1217 179.586C72.676 178.868 74.3732 178.512 76.085 178.545C80.6654 179.053 85.1469 180.23 89.3868 182.037L109.116 189.914C115.072 192.12 115.912 196.032 114.101 202.097Z" fill="#ACD4E5"/>
<path d="M76.1898 180.409C75.8145 180.146 75.3619 180.017 74.9043 180.042C74.4386 180.017 73.9776 180.146 73.5925 180.409C73.3424 180.7 73.1788 181.055 73.1203 181.433C73.0306 181.822 73.0306 182.226 73.1203 182.615C73.4088 183.56 74.5632 183.692 75.3241 183.481L75.875 183.219C76.1124 183.055 76.3097 182.84 76.4522 182.589C76.6572 182.248 76.7427 181.849 76.6952 181.454C76.6477 181.059 76.4698 180.692 76.1898 180.409Z" fill="#679EB0"/>
<path d="M64.4625 194.509C64.0931 194.234 63.6358 194.103 63.1769 194.142C62.7176 194.101 62.2596 194.232 61.8913 194.509C61.617 194.783 61.4495 195.146 61.4191 195.533C61.3294 195.922 61.3294 196.326 61.4191 196.715C61.7077 197.634 62.8883 197.765 63.6229 197.555C63.8187 197.508 64.0051 197.428 64.1738 197.319C64.4173 197.162 64.6161 196.945 64.751 196.689C64.9574 196.346 65.0412 195.944 64.9888 195.548C64.9363 195.152 64.7507 194.786 64.4625 194.509Z" fill="#679EB0"/>
<path d="M86.5008 194.509C86.1314 194.234 85.6742 194.103 85.2152 194.142C84.756 194.101 84.2979 194.232 83.9296 194.509C83.6553 194.783 83.4879 195.146 83.4574 195.533C83.3677 195.922 83.3677 196.326 83.4574 196.715C83.746 197.634 84.9267 197.765 85.6875 197.555C85.8734 197.504 86.0504 197.424 86.2122 197.319C86.4556 197.162 86.6545 196.945 86.7894 196.689C86.9957 196.346 87.0795 195.944 87.0271 195.548C86.9746 195.152 86.7891 194.786 86.5008 194.509Z" fill="#679EB0"/>
<path d="M108.565 194.509C108.184 194.238 107.72 194.108 107.254 194.142C106.794 194.101 106.336 194.232 105.968 194.509C105.694 194.783 105.526 195.146 105.496 195.533C105.406 195.922 105.406 196.326 105.496 196.715C105.784 197.634 106.965 197.765 107.726 197.555C107.912 197.504 108.089 197.424 108.251 197.319C108.494 197.162 108.693 196.945 108.828 196.689C109.042 196.351 109.133 195.949 109.085 195.552C109.037 195.155 108.854 194.786 108.565 194.509Z" fill="#679EB0"/>
<path d="M54.1514 208.53C53.7784 208.264 53.3216 208.143 52.8659 208.189C52.6574 208.147 52.4426 208.151 52.2356 208.199C52.0286 208.247 51.8342 208.339 51.6653 208.468C51.4965 208.597 51.3572 208.761 51.2565 208.948C51.1559 209.136 51.0964 209.342 51.0818 209.554C50.9773 209.95 50.9773 210.366 51.0818 210.762C51.3704 211.681 52.5248 211.812 53.2857 211.602C53.4832 211.548 53.6696 211.459 53.8366 211.34C54.079 211.193 54.2782 210.985 54.4138 210.736C54.6209 210.391 54.7075 209.987 54.66 209.588C54.6125 209.189 54.4335 208.817 54.1514 208.53Z" fill="#679EB0"/>
<path d="M76.19 208.53C75.817 208.264 75.3601 208.143 74.9044 208.189C74.696 208.147 74.4812 208.151 74.2741 208.199C74.0671 208.247 73.8727 208.339 73.7039 208.468C73.5351 208.597 73.3957 208.761 73.2951 208.948C73.1945 209.136 73.1349 209.342 73.1204 209.554C73.0266 209.951 73.0266 210.365 73.1204 210.762C73.409 211.681 74.5634 211.812 75.3242 211.602C75.5218 211.548 75.7082 211.459 75.8752 211.34C76.1176 211.193 76.3167 210.985 76.4524 210.736C76.6594 210.391 76.7461 209.987 76.6986 209.588C76.6511 209.189 76.4721 208.817 76.19 208.53Z" fill="#679EB0"/>
<path d="M98.2284 208.53C97.8554 208.264 97.3985 208.143 96.9428 208.189C96.4835 208.148 96.0255 208.279 95.6572 208.557C95.3903 208.828 95.2159 209.178 95.1587 209.554C95.0649 209.951 95.0649 210.365 95.1587 210.762C95.4473 211.681 96.6279 211.812 97.3625 211.602C97.5601 211.548 97.7466 211.459 97.9136 211.34C98.156 211.193 98.3551 210.985 98.4907 210.736C98.6977 210.391 98.7844 209.987 98.7369 209.588C98.6894 209.189 98.5105 208.817 98.2284 208.53Z" fill="#679EB0"/>
<path d="M42.4502 222.578C42.0749 222.315 41.6222 222.185 41.1646 222.21C40.7037 222.191 40.25 222.33 39.879 222.604C39.6045 222.867 39.4364 223.222 39.4068 223.602C39.3022 223.997 39.3022 224.414 39.4068 224.809C39.6954 225.728 40.876 225.86 41.6106 225.65C41.808 225.594 41.9944 225.506 42.1616 225.387C42.404 225.24 42.6031 225.032 42.7387 224.783C42.9471 224.437 43.032 224.031 42.9796 223.63C42.9272 223.229 42.7405 222.858 42.4502 222.578Z" fill="#679EB0"/>
<path d="M64.4624 222.578C64.0871 222.315 63.6343 222.185 63.1768 222.21C62.7159 222.191 62.2622 222.33 61.8912 222.604C61.6167 222.867 61.4486 223.222 61.419 223.602C61.3252 223.999 61.3252 224.412 61.419 224.809C61.7076 225.728 62.8882 225.86 63.6228 225.65C63.8202 225.594 64.0065 225.506 64.1737 225.387C64.4161 225.24 64.6153 225.032 64.7509 224.783C64.9593 224.437 65.0442 224.031 64.9918 223.63C64.9394 223.229 64.7527 222.858 64.4624 222.578Z" fill="#679EB0"/>
<path d="M86.5007 222.578C86.1254 222.315 85.6726 222.185 85.2151 222.21C84.7542 222.191 84.3006 222.33 83.9295 222.604C83.655 222.867 83.4869 223.222 83.4573 223.602C83.3635 223.999 83.3635 224.412 83.4573 224.809C83.7459 225.728 84.9265 225.86 85.6874 225.65C85.8744 225.589 86.0513 225.5 86.2121 225.387C86.4545 225.24 86.6537 225.032 86.7893 224.783C86.9976 224.437 87.0825 224.031 87.0301 223.63C86.9777 223.229 86.7911 222.858 86.5007 222.578Z" fill="#679EB0"/>
<path d="M107.568 222.236C107.175 223.365 106.781 224.494 106.361 225.623C106.167 225.564 105.99 225.459 105.844 225.317C105.698 225.176 105.588 225.002 105.522 224.809C105.428 224.412 105.428 223.999 105.522 223.602C105.552 223.222 105.72 222.867 105.994 222.604C106.365 222.33 106.819 222.191 107.28 222.21L107.568 222.236Z" fill="#679EB0"/>
<path d="M32.113 236.572C31.7377 236.309 31.285 236.18 30.8275 236.205C30.3617 236.18 29.9008 236.309 29.5157 236.572C29.2656 236.863 29.102 237.217 29.0434 237.596C28.9386 237.983 28.9386 238.391 29.0434 238.778C29.332 239.723 30.4864 239.854 31.2473 239.644C31.4343 239.584 31.6111 239.495 31.7719 239.382C32.0165 239.229 32.2229 239.023 32.3754 238.778C32.5825 238.433 32.669 238.029 32.6215 237.63C32.574 237.231 32.3951 236.859 32.113 236.572Z" fill="#679EB0"/>
<path d="M54.1514 236.572C53.776 236.309 53.3234 236.18 52.8658 236.205C52.4001 236.18 51.9391 236.309 51.554 236.572C51.3039 236.863 51.1403 237.217 51.0818 237.596C50.977 237.983 50.977 238.391 51.0818 238.778C51.3704 239.723 52.5247 239.854 53.2856 239.644C53.4788 239.579 53.6637 239.49 53.8365 239.382C54.0674 239.221 54.2637 239.016 54.4137 238.778C54.6208 238.433 54.7074 238.029 54.6599 237.63C54.6124 237.231 54.4335 236.859 54.1514 236.572Z" fill="#679EB0"/>
<path d="M76.1898 236.572C75.8145 236.309 75.3619 236.18 74.9043 236.205C74.4386 236.18 73.9776 236.309 73.5925 236.572C73.3424 236.863 73.1788 237.217 73.1203 237.596C73.0306 237.985 73.0306 238.389 73.1203 238.778C73.4088 239.723 74.5632 239.854 75.3241 239.644C75.5173 239.579 75.7022 239.49 75.875 239.382C76.1059 239.221 76.3022 239.016 76.4522 238.778C76.6593 238.433 76.7459 238.029 76.6984 237.63C76.6509 237.231 76.472 236.859 76.1898 236.572Z" fill="#679EB0"/>
<path d="M98.2283 236.572C97.8529 236.309 97.4002 236.18 96.9426 236.205C96.4846 236.176 96.0306 236.305 95.6571 236.572C95.3897 236.854 95.2156 237.212 95.1586 237.596C95.0689 237.985 95.0689 238.389 95.1586 238.778C95.4472 239.723 96.6278 239.854 97.3624 239.644C97.5556 239.579 97.7406 239.49 97.9134 239.382C98.1443 239.221 98.3405 239.016 98.4905 238.778C98.6976 238.433 98.7843 238.029 98.7368 237.63C98.6893 237.231 98.5104 236.859 98.2283 236.572Z" fill="#679EB0"/>
<path d="M20.3856 250.672C20.0103 250.409 19.5577 250.279 19.1001 250.304C18.6409 250.264 18.1828 250.395 17.8145 250.672C17.5471 250.954 17.3731 251.312 17.3161 251.696C17.2264 252.085 17.2264 252.489 17.3161 252.878C17.6047 253.823 18.7853 253.954 19.5199 253.718C19.7157 253.671 19.902 253.591 20.0708 253.482C20.3143 253.325 20.5131 253.108 20.648 252.851C20.8576 252.512 20.9458 252.112 20.8981 251.716C20.8505 251.32 20.6697 250.952 20.3856 250.672Z" fill="#679EB0"/>
<path d="M42.4501 250.672C42.0748 250.409 41.6221 250.279 41.1646 250.304C40.7054 250.264 40.2473 250.395 39.8789 250.672C39.6084 250.949 39.4416 251.31 39.4067 251.696C39.3019 252.083 39.3019 252.491 39.4067 252.878C39.6953 253.823 40.8759 253.954 41.6105 253.718C41.8064 253.671 41.9928 253.591 42.1616 253.482C42.405 253.325 42.6038 253.108 42.7387 252.851C42.945 252.509 43.0289 252.107 42.9765 251.711C42.924 251.315 42.7384 250.949 42.4501 250.672Z" fill="#679EB0"/>
<path d="M64.4625 250.672C64.0872 250.409 63.6344 250.279 63.1769 250.304C62.7176 250.264 62.2596 250.395 61.8913 250.672C61.6207 250.949 61.4539 251.31 61.4191 251.696C61.3294 252.085 61.3294 252.489 61.4191 252.878C61.7077 253.823 62.8883 253.954 63.6229 253.718C63.8187 253.671 64.0051 253.591 64.1738 253.482C64.4173 253.325 64.6161 253.108 64.751 252.851C64.9574 252.509 65.0412 252.107 64.9888 251.711C64.9363 251.315 64.7507 250.949 64.4625 250.672Z" fill="#679EB0"/>
<path d="M86.5008 250.672C86.1255 250.409 85.6728 250.279 85.2152 250.304C84.756 250.264 84.2979 250.395 83.9296 250.672C83.6591 250.949 83.4923 251.31 83.4574 251.696C83.3677 252.085 83.3677 252.489 83.4574 252.878C83.746 253.823 84.9267 253.954 85.6875 253.718C85.8734 253.666 86.0504 253.587 86.2122 253.482C86.4556 253.325 86.6545 253.108 86.7894 252.851C86.9957 252.509 87.0795 252.107 87.0271 251.711C86.9746 251.315 86.7891 250.949 86.5008 250.672Z" fill="#679EB0"/>
<path d="M111.058 228.249L115.282 229.614C116.043 229.851 116.777 229.614 116.908 229.247L168.987 60.889C168.987 60.4689 168.62 59.9175 167.859 59.655C167.098 59.4187 166.39 59.655 166.232 59.9963L109.956 226.91C109.798 227.435 110.297 228.013 111.058 228.249Z" fill="#312F2F"/>
<path d="M270.705 192.067C269.396 194.114 267.713 195.895 265.746 197.319C263.301 199.287 260.543 200.832 257.587 201.887C256.152 202.374 254.663 202.683 253.153 202.806C251.712 203.07 250.226 202.943 248.85 202.439C247.003 201.305 245.318 199.927 243.839 198.343C242.16 196.82 240.533 195.244 238.907 193.669C232.794 187.735 226.89 181.565 220.384 176.051L220.017 175.762C218.806 174.768 217.507 173.889 216.134 173.136C214.675 172.389 213.288 171.51 211.988 170.511C210.679 169.34 209.602 167.932 208.814 166.362C207.817 164.472 207.581 161.872 206.19 160.271C204.8 158.669 203.12 157.881 201.809 156.595C198.716 153.576 195.938 150.251 193.518 146.67C189.294 140.421 187.3 133.778 184.467 126.951C183.407 124.996 182.528 122.949 181.843 120.833C181.506 117.142 181.683 113.422 182.368 109.779C182.368 108.808 182.368 107.81 182.499 106.812L182.735 101.771C182.735 100.169 182.735 98.5413 182.997 96.9133C183.058 95.455 183.443 94.0286 184.125 92.7385C184.397 92.2964 184.723 91.8905 185.096 91.5307C187.405 89.2464 192.023 89.5877 194.909 90.2179C196.922 90.6032 198.823 91.4379 200.471 92.6598C202.228 93.9726 203.881 95.2854 205.534 96.7295C208.658 99.5764 212.197 101.931 216.029 103.714C217.133 104.046 218.178 104.551 219.125 105.21C220.284 106.299 221.181 107.637 221.748 109.123C222.273 110.436 222.588 111.748 223.086 113.192C225.08 118.444 227.599 123.433 229.881 128.474C232.715 134.723 235.653 140.893 238.854 146.853C240.927 150.739 243.655 154.1 245.964 157.776C248.754 161.431 252.07 164.651 255.803 167.334L266.455 176.261C268.386 177.819 270.145 179.579 271.702 181.512C274.089 184.164 272.2 189.494 270.705 192.067Z" fill="#EAD8D5"/>
<path d="M166.049 87.9596C165.592 87.9598 165.152 87.7817 164.824 87.4631C164.496 87.1444 164.305 86.7104 164.291 86.253C164.182 83.7755 163.795 81.3181 163.137 78.9273C162.901 78.0146 162.558 77.1331 162.114 76.3017C161.271 74.7667 159.942 73.5565 158.335 72.8621C157.276 72.4439 156.141 72.256 155.004 72.3107C154.238 72.3216 153.488 72.5295 152.826 72.9146C152.511 73.0721 152.144 73.2559 151.855 73.0459C151.567 72.8358 151.619 71.9431 151.855 71.5492C152.59 70.0789 154.767 69.5275 156.289 69.2649C158.141 69.1432 159.987 69.5781 161.591 70.5138C163.194 71.4494 164.482 72.8432 165.288 74.5162C165.858 75.6287 166.307 76.7995 166.626 78.0084C167.36 80.6635 167.782 83.395 167.885 86.1479C167.9 86.6171 167.729 87.0731 167.41 87.4171C167.09 87.761 166.649 87.9654 166.18 87.9859L166.049 87.9596Z" fill="#E77584"/>
<path d="M232.086 203.883C228.727 212.836 221.145 219.427 215.688 227.304C213.486 230.985 210.929 234.441 208.053 237.623C205.429 240.248 200.786 243.373 197.008 241.666C195.609 240.926 194.356 239.939 193.308 238.752L192.994 238.437L191.682 237.071L191.472 236.835C190.449 235.785 189.452 234.682 188.507 233.579L187.904 232.897L186.461 231.19C184.782 229.168 183.181 227.068 181.502 225.046C180.426 223.785 179.324 222.42 178.17 221.37C177.514 220.687 176.806 220.005 176.071 219.374C173.114 216.641 169.497 214.723 165.577 213.808H164.973C162.031 213.772 159.091 213.983 156.184 214.438C150.307 214.648 143.066 214.438 139.524 208.714C137.808 205.702 137.023 202.248 137.268 198.789C137.516 195.354 138.096 191.951 138.999 188.628C140.199 184.083 141.076 179.459 141.623 174.791C141.623 173.95 141.781 173.136 141.833 172.296C142.541 162.424 141.833 152.367 141.833 142.442C141.833 141.707 141.833 140.972 141.833 140.211C141.833 139.449 141.833 138.163 141.833 137.139C141.833 136.115 141.833 135.799 141.833 135.117C141.833 134.434 141.833 133.62 141.964 132.885C142.148 130.259 142.384 127.371 142.725 124.64C142.935 122.881 143.197 121.122 143.486 119.389C143.774 117.656 144.063 116.212 144.404 114.637C144.561 113.901 144.719 113.14 144.903 112.405C145.086 111.67 145.454 110.199 145.768 109.123L146.319 107.259C146.556 106.523 146.792 105.762 147.054 105.027L147.316 104.213C147.789 102.9 148.287 101.587 148.838 100.3C150.032 97.2874 151.573 94.4236 153.429 91.7671C154.344 90.7421 155.08 89.5705 155.607 88.3012C156.079 86.8046 156.289 85.2292 156.709 83.7063C156.862 82.9808 157.176 82.2989 157.627 81.7108C158.139 81.2078 158.785 80.8634 159.488 80.719C160.191 80.5746 160.92 80.6364 161.589 80.8968C162.919 81.4505 164.071 82.3587 164.921 83.5225C166.526 85.8748 168.902 87.5927 171.637 88.38C175.1 89.2727 179.062 87.8023 182.263 89.4302C184.783 91.1521 186.534 93.7894 187.143 96.7821C187.851 98.9351 188.481 101.114 189.084 103.294C189.084 103.635 189.294 104.003 189.373 104.37L189.688 105.499C189.976 106.628 190.265 107.757 190.527 108.913L190.921 110.593L191.393 112.825C191.865 115.1 192.285 117.385 192.652 119.678C192.889 121.28 193.125 122.881 193.335 124.509C193.597 126.688 193.833 128.868 194.017 131.047C194.017 131.283 194.017 131.493 194.017 131.73C194.017 131.966 194.017 132.754 194.017 133.279C194.148 134.959 194.305 136.666 194.463 138.373L194.62 140.604C194.62 142.285 194.804 143.939 194.804 145.567C194.475 149.33 194.423 153.113 194.646 156.884C196.031 165.454 200.388 173.263 206.951 178.939C208.148 179.98 209.429 180.92 210.782 181.749C213.631 183.304 216.366 185.058 218.967 187L219.938 187.84L221.643 189.311L223.742 191.175C224.293 191.7 224.844 192.199 225.369 192.75C225.894 193.302 226.471 193.827 226.996 194.378L227.73 195.192L229.042 196.767C230.931 198.658 232.978 201.441 232.086 203.883Z" fill="#E8C6CC"/>
<path d="M156.971 92.2659C158.309 92.581 159.595 92.8961 160.959 93.3162C161.641 93.5262 162.271 93.7888 162.953 94.0514L165.131 94.7866C166.6 95.2592 168.095 95.653 169.591 96.0731C171.055 96.4677 172.546 96.7573 174.051 96.9396C178.476 97.4121 182.941 97.3592 187.353 96.7821V96.5983C186.744 93.6056 184.993 90.9683 182.473 89.2464C179.272 87.6185 175.31 89.0889 171.847 88.1961C169.112 87.4088 166.736 85.6909 165.131 83.3387C164.281 82.1748 163.128 81.2666 161.799 80.713C161.13 80.4525 160.401 80.3908 159.698 80.5352C158.995 80.6795 158.349 81.0239 157.837 81.527C157.386 82.1151 157.072 82.797 156.919 83.5225C156.499 85.0453 156.289 86.6207 155.817 88.1174C155.305 89.3727 154.577 90.5281 153.666 91.5307C154.741 91.7933 155.869 92.0296 156.971 92.2659Z" fill="#E77584"/>
<path d="M225.841 192.776C221.157 200.483 215.941 207.853 210.231 214.832C204.406 222.079 198.214 229.667 191.472 236.782L191.682 237.019L192.993 238.384C199.841 231.19 206.111 223.523 211.962 216.223C217.613 209.306 222.793 202.017 227.468 194.404C226.943 193.905 226.392 193.354 225.841 192.776ZM222.115 189.337L220.41 187.866C215.834 195.294 210.768 202.408 205.246 209.16C199.421 216.407 193.203 223.995 186.461 231.137L187.904 232.844C194.777 225.597 201.022 217.904 206.977 210.552C212.462 203.823 217.518 196.755 222.115 189.389V189.337ZM194.961 140.421L194.804 138.189C184.598 138.031 174.392 138.583 164.422 139.108C156.997 139.502 149.363 139.895 141.78 140C141.78 140.762 141.78 141.497 141.78 142.232C149.415 142.232 157.102 141.707 164.58 141.313C174.549 140.788 184.781 140.263 194.961 140.421ZM194.358 133.095C194.358 132.57 194.358 132.071 194.358 131.546C194.358 131.021 194.358 131.099 194.358 130.863C184.362 130.863 174.366 131.257 164.606 131.782C157.286 132.176 149.782 132.57 142.305 132.675C142.305 133.41 142.305 134.171 142.174 134.907C149.73 134.907 157.338 134.382 164.737 133.988C174.339 133.489 184.362 132.937 194.358 133.095ZM191.55 112.641L191.078 110.409C182.132 110.409 173.185 110.882 164.422 111.354C158.073 111.696 151.566 112.037 145.06 112.195C144.876 112.93 144.719 113.691 144.561 114.426C151.278 114.269 157.994 113.928 164.553 113.56C173.421 113.114 182.499 112.615 191.55 112.641ZM189.845 105.315L189.53 104.186C189.53 103.819 189.347 103.451 189.242 103.11C180.899 103.11 172.582 103.609 164.422 104.029C158.755 104.318 152.983 104.633 147.211 104.817C146.949 105.552 146.713 106.313 146.477 107.048C152.537 106.891 158.598 106.549 164.553 106.234C172.87 105.814 181.344 105.368 189.845 105.315Z" fill="#E77584"/>
<path d="M167.807 195.402C167.597 197.87 167.23 200.312 166.862 202.754C166.495 205.196 165.997 208.005 165.498 210.631L164.868 213.65C161.926 213.615 158.986 213.825 156.079 214.28C150.202 214.49 142.961 214.28 139.419 208.556C137.703 205.544 136.918 202.09 137.163 198.631C137.411 195.196 137.991 191.793 138.895 188.47C140.094 183.925 140.971 179.301 141.518 174.633C141.518 173.793 141.676 172.979 141.728 172.138H142.699C147.561 171.937 152.416 172.677 156.997 174.318C160.899 175.764 164.156 178.557 166.18 182.195C167.935 186.361 168.498 190.934 167.807 195.402Z" fill="#E77584"/>
<path d="M240.192 236.546L236.073 238.148C235.312 238.436 234.578 238.305 234.42 237.859L173.474 72.442C173.316 72.0219 173.789 71.4442 174.523 71.1554C175.258 70.8666 175.992 70.9716 176.176 71.3917L241.242 235.181C241.425 235.68 240.953 236.257 240.192 236.546Z" fill="#312F2F"/>
<path d="M177.252 89.2201L176.779 89.7452C176.333 90.2703 175.914 90.8742 175.415 91.3731C174.917 91.872 173.106 92.7385 172.346 91.7932C172.151 91.5588 172.056 91.2568 172.083 90.953C172.16 90.1387 172.47 89.3638 172.975 88.7212C174.377 86.6548 176.158 84.8729 178.222 83.4699L179.928 82.3408C180.571 81.8417 181.346 81.5406 182.158 81.4744C182.346 81.5054 182.525 81.5771 182.683 81.6844C183.084 81.9752 183.364 82.4033 183.47 82.8873C183.577 83.3714 183.502 83.8777 183.26 84.3101C182.866 84.6731 182.414 84.9661 181.922 85.1766C181.324 85.54 180.746 85.9344 180.19 86.3581C179.122 87.2169 178.138 88.1752 177.252 89.2201Z" fill="#E77584"/>
<path d="M178.013 95.6267C177.778 95.6276 177.546 95.5815 177.33 95.4914C177.114 95.4012 176.918 95.2686 176.753 95.1015C176.576 94.9323 176.434 94.7287 176.337 94.503C176.24 94.2773 176.191 94.0343 176.191 93.7887C176.191 93.5431 176.24 93.3001 176.337 93.0744C176.434 92.8488 176.576 92.6451 176.753 92.4759C179.136 90.3645 181.92 88.757 184.939 87.7497C185.172 87.6778 185.416 87.6535 185.658 87.6784C185.9 87.7033 186.135 87.7767 186.348 87.8944C186.561 88.012 186.748 88.1714 186.898 88.3631C187.048 88.5548 187.158 88.7748 187.222 89.01C187.322 89.4582 187.251 89.9277 187.023 90.3262C186.795 90.7247 186.426 91.0233 185.989 91.163C183.478 92.0081 181.165 93.3573 179.193 95.1278C178.878 95.4391 178.455 95.6176 178.013 95.6267Z" fill="#E77584"/>
<path d="M373.026 257H276.844C274.238 253.499 271.615 249.998 268.974 246.497C260.595 235.277 252.121 224.153 243.551 213.125C241.865 211.227 240.572 209.014 239.746 206.613C239.358 205.407 239.33 204.114 239.666 202.892C240.001 201.67 240.686 200.573 241.635 199.734C241.976 199.472 242.396 199.052 242.055 199.235C246.393 191.126 251.754 183.607 258.007 176.865C260.63 173.976 265.537 169.303 269.761 169.67C271.225 169.9 272.622 170.447 273.853 171.272C278.776 174.123 283.533 177.253 288.1 180.646C289.062 181.346 290.032 182.081 291.012 182.851C300.719 190.308 309.823 198.605 318.848 207.034L365.785 250.436L367.753 252.248L373.026 257Z" fill="#ACD4E5"/>
<path d="M268.737 180.409C268.351 180.15 267.891 180.021 267.426 180.042C266.968 180.013 266.514 180.143 266.14 180.409C265.87 180.686 265.703 181.048 265.668 181.433C265.578 181.822 265.578 182.226 265.668 182.615C265.956 183.56 267.137 183.692 267.898 183.481C268.08 183.41 268.256 183.322 268.423 183.219C268.666 183.062 268.865 182.845 269 182.589C269.214 182.251 269.305 181.849 269.257 181.452C269.21 181.055 269.026 180.687 268.737 180.409Z" fill="#679EB0"/>
<path d="M291.012 182.72C290.87 182.918 290.692 183.087 290.487 183.219C290.326 183.332 290.15 183.421 289.962 183.481C289.202 183.691 288.021 183.481 287.732 182.615C287.643 182.226 287.643 181.822 287.732 181.433C287.764 181.093 287.902 180.772 288.126 180.514C289.07 181.215 290.032 181.95 291.012 182.72Z" fill="#679EB0"/>
<path d="M257.01 194.509C256.64 194.234 256.183 194.103 255.724 194.142C255.514 194.1 255.297 194.104 255.088 194.154C254.879 194.203 254.684 194.297 254.514 194.429C254.345 194.561 254.206 194.728 254.107 194.919C254.008 195.109 253.951 195.319 253.94 195.533C253.835 195.92 253.835 196.328 253.94 196.715C254.229 197.634 255.383 197.765 256.144 197.555C256.33 197.503 256.507 197.424 256.669 197.319C256.914 197.156 257.12 196.94 257.272 196.688C257.477 196.348 257.563 195.948 257.515 195.554C257.468 195.159 257.29 194.791 257.01 194.509Z" fill="#679EB0"/>
<path d="M279.048 194.509C278.679 194.234 278.222 194.103 277.763 194.142C277.552 194.1 277.335 194.104 277.126 194.154C276.918 194.203 276.722 194.297 276.553 194.429C276.383 194.561 276.245 194.728 276.146 194.919C276.046 195.109 275.989 195.319 275.978 195.533C275.874 195.92 275.874 196.328 275.978 196.715C276.267 197.634 277.421 197.765 278.182 197.555C278.368 197.503 278.545 197.424 278.707 197.319C278.952 197.156 279.158 196.94 279.311 196.688C279.516 196.348 279.601 195.948 279.553 195.554C279.506 195.159 279.328 194.791 279.048 194.509Z" fill="#679EB0"/>
<path d="M301.087 194.509C300.717 194.234 300.26 194.103 299.801 194.142C299.591 194.1 299.373 194.104 299.165 194.154C298.956 194.203 298.76 194.297 298.591 194.429C298.422 194.561 298.283 194.728 298.184 194.919C298.085 195.109 298.028 195.319 298.017 195.533C297.912 195.92 297.912 196.328 298.017 196.715C298.305 197.634 299.46 197.765 300.221 197.555C300.413 197.497 300.598 197.418 300.772 197.319C301.009 197.155 301.206 196.939 301.349 196.688C301.554 196.348 301.639 195.948 301.592 195.554C301.544 195.159 301.367 194.791 301.087 194.509Z" fill="#679EB0"/>
<path d="M246.673 208.53C246.3 208.264 245.843 208.143 245.387 208.189C244.928 208.148 244.47 208.279 244.102 208.557C243.833 208.824 243.666 209.177 243.629 209.554C243.536 209.951 243.536 210.365 243.629 210.762C243.918 211.681 245.099 211.812 245.86 211.602C246.051 211.552 246.23 211.463 246.384 211.34C246.633 211.201 246.834 210.991 246.961 210.736C247.17 210.39 247.255 209.983 247.202 209.583C247.15 209.182 246.963 208.811 246.673 208.53Z" fill="#679EB0"/>
<path d="M268.737 208.53C268.353 208.267 267.889 208.146 267.426 208.189C266.966 208.148 266.508 208.279 266.14 208.557C265.871 208.824 265.704 209.177 265.668 209.554C265.574 209.951 265.574 210.365 265.668 210.762C265.956 211.681 267.137 211.812 267.898 211.602C268.089 211.552 268.268 211.463 268.423 211.34C268.671 211.201 268.872 210.991 269 210.736C269.211 210.393 269.301 209.988 269.253 209.587C269.205 209.187 269.024 208.814 268.737 208.53Z" fill="#679EB0"/>
<path d="M290.776 208.53C290.392 208.267 289.928 208.146 289.464 208.189C289.005 208.151 288.548 208.281 288.178 208.557C287.91 208.824 287.743 209.177 287.706 209.554C287.612 209.951 287.612 210.365 287.706 210.762C287.995 211.681 289.175 211.812 289.936 211.602C290.128 211.552 290.306 211.463 290.461 211.34C290.71 211.201 290.911 210.991 291.038 210.736C291.25 210.393 291.339 209.988 291.291 209.587C291.244 209.187 291.062 208.814 290.776 208.53Z" fill="#679EB0"/>
<path d="M312.814 208.53C312.415 208.3 311.963 208.178 311.502 208.178C311.042 208.178 310.589 208.3 310.191 208.53C309.922 208.798 309.755 209.15 309.718 209.528C309.625 209.925 309.625 210.339 309.718 210.736C310.007 211.655 311.187 211.786 311.948 211.576C312.14 211.526 312.318 211.437 312.473 211.313C312.722 211.175 312.923 210.964 313.05 210.71C313.259 210.372 313.349 209.974 313.306 209.579C313.263 209.185 313.09 208.816 312.814 208.53Z" fill="#679EB0"/>
<path d="M257.01 222.578C256.634 222.315 256.182 222.185 255.724 222.21C255.256 222.195 254.795 222.333 254.412 222.604C254.158 222.881 253.993 223.229 253.94 223.602C253.835 223.997 253.835 224.414 253.94 224.809C254.229 225.728 255.383 225.86 256.144 225.65C256.331 225.589 256.508 225.5 256.669 225.387C256.913 225.235 257.12 225.028 257.272 224.783C257.479 224.439 257.566 224.035 257.518 223.635C257.471 223.236 257.292 222.864 257.01 222.578Z" fill="#679EB0"/>
<path d="M279.048 222.578C278.673 222.315 278.22 222.185 277.763 222.21C277.294 222.195 276.834 222.333 276.451 222.604C276.196 222.881 276.032 223.229 275.979 223.602C275.874 223.997 275.874 224.414 275.979 224.809C276.267 225.728 277.421 225.86 278.182 225.65C278.369 225.589 278.546 225.5 278.707 225.387C278.952 225.235 279.158 225.028 279.311 224.783C279.518 224.439 279.604 224.035 279.557 223.635C279.509 223.236 279.33 222.864 279.048 222.578Z" fill="#679EB0"/>
<path d="M301.087 222.578C300.711 222.315 300.259 222.185 299.801 222.21C299.333 222.195 298.872 222.333 298.489 222.604C298.235 222.881 298.07 223.229 298.017 223.602C297.912 223.997 297.912 224.414 298.017 224.809C298.305 225.728 299.46 225.86 300.221 225.65C300.414 225.584 300.599 225.496 300.772 225.387C301.001 225.241 301.195 225.044 301.336 224.812C301.478 224.58 301.565 224.318 301.591 224.047C301.616 223.776 301.579 223.502 301.482 223.248C301.386 222.993 301.233 222.764 301.034 222.578H301.087Z" fill="#679EB0"/>
<path d="M323.178 222.578C322.802 222.315 322.35 222.185 321.892 222.21C321.424 222.195 320.963 222.333 320.58 222.604C320.326 222.881 320.161 223.229 320.108 223.602C320.014 223.999 320.014 224.412 320.108 224.809C320.397 225.728 321.551 225.86 322.312 225.65C322.505 225.584 322.69 225.496 322.863 225.387C323.092 225.241 323.285 225.044 323.427 224.812C323.569 224.58 323.656 224.318 323.682 224.047C323.707 223.776 323.67 223.502 323.573 223.248C323.477 222.993 323.324 222.764 323.125 222.578H323.178Z" fill="#679EB0"/>
<path d="M268.737 236.572C268.351 236.313 267.891 236.184 267.426 236.205C266.968 236.176 266.514 236.305 266.14 236.572C265.87 236.849 265.703 237.211 265.668 237.596C265.578 237.985 265.578 238.389 265.668 238.778C265.956 239.723 267.137 239.854 267.898 239.644C268.085 239.584 268.262 239.495 268.423 239.382C268.659 239.228 268.857 239.021 269 238.778C269.211 238.435 269.301 238.03 269.253 237.629C269.205 237.229 269.024 236.856 268.737 236.572Z" fill="#679EB0"/>
<path d="M290.776 236.572C290.389 236.313 289.929 236.184 289.464 236.205C289.007 236.18 288.554 236.309 288.178 236.572C287.908 236.849 287.741 237.211 287.706 237.596C287.616 237.985 287.616 238.389 287.706 238.778C287.995 239.723 289.176 239.854 289.936 239.644C290.123 239.584 290.3 239.495 290.461 239.382C290.698 239.228 290.895 239.021 291.038 238.778C291.25 238.435 291.339 238.03 291.291 237.629C291.244 237.229 291.062 236.856 290.776 236.572Z" fill="#679EB0"/>
<path d="M312.814 236.572C312.431 236.305 311.968 236.176 311.502 236.205C311.045 236.18 310.592 236.309 310.217 236.572C309.946 236.849 309.779 237.211 309.745 237.596C309.655 237.985 309.655 238.389 309.745 238.778C310.033 239.723 311.214 239.854 311.975 239.644C312.162 239.583 312.338 239.495 312.499 239.382C312.736 239.228 312.934 239.021 313.077 238.778C313.288 238.435 313.377 238.03 313.33 237.629C313.282 237.229 313.1 236.856 312.814 236.572Z" fill="#679EB0"/>
<path d="M334.853 236.572C334.459 236.328 334.004 236.199 333.541 236.199C333.077 236.199 332.623 236.328 332.229 236.572C331.979 236.863 331.815 237.218 331.757 237.596C331.667 237.985 331.667 238.389 331.757 238.778C332.045 239.723 333.226 239.854 333.987 239.644C334.174 239.584 334.351 239.495 334.511 239.382C334.75 239.222 334.955 239.017 335.115 238.778C335.322 238.433 335.409 238.03 335.361 237.63C335.313 237.231 335.135 236.859 334.853 236.572Z" fill="#679EB0"/>
<path d="M279.048 250.672C278.673 250.409 278.22 250.279 277.763 250.304C277.295 250.267 276.83 250.397 276.451 250.672C276.201 250.962 276.037 251.317 275.978 251.696C275.874 252.083 275.874 252.491 275.978 252.878C276.267 253.823 277.421 253.954 278.182 253.718C278.368 253.666 278.545 253.587 278.707 253.482C278.952 253.319 279.158 253.103 279.311 252.851C279.516 252.511 279.601 252.111 279.553 251.717C279.506 251.322 279.328 250.954 279.048 250.672Z" fill="#679EB0"/>
<path d="M301.087 250.672C300.711 250.409 300.259 250.279 299.801 250.304C299.334 250.267 298.869 250.397 298.489 250.672C298.239 250.962 298.075 251.317 298.017 251.696C297.912 252.083 297.912 252.491 298.017 252.878C298.305 253.823 299.46 253.954 300.221 253.718C300.413 253.66 300.598 253.581 300.772 253.482C301.009 253.318 301.206 253.102 301.349 252.851C301.554 252.511 301.639 252.111 301.592 251.717C301.544 251.322 301.367 250.954 301.087 250.672Z" fill="#679EB0"/>
<path d="M323.177 250.672C322.802 250.409 322.349 250.279 321.892 250.304C321.425 250.267 320.96 250.397 320.58 250.672C320.33 250.962 320.166 251.317 320.108 251.696C320.018 252.085 320.018 252.489 320.108 252.878C320.396 253.823 321.551 253.954 322.312 253.718C322.504 253.66 322.689 253.581 322.863 253.482C323.1 253.318 323.297 253.102 323.44 252.851C323.645 252.511 323.73 252.111 323.683 251.717C323.635 251.322 323.457 250.954 323.177 250.672Z" fill="#679EB0"/>
<path d="M345.163 250.672C344.788 250.409 344.335 250.279 343.878 250.304C343.419 250.264 342.961 250.395 342.592 250.672C342.325 250.954 342.151 251.312 342.094 251.696C342.004 252.085 342.004 252.489 342.094 252.878C342.382 253.823 343.563 253.954 344.298 253.718C344.49 253.66 344.675 253.581 344.849 253.482C345.086 253.318 345.283 253.102 345.426 252.851C345.631 252.511 345.716 252.111 345.669 251.717C345.621 251.322 345.443 250.954 345.163 250.672Z" fill="#679EB0"/>
<path d="M213.458 167.202C210.617 165.012 208.03 162.511 205.744 159.745C205.092 158.875 204.324 158.097 203.462 157.435C203.249 157.327 203.017 157.265 202.78 157.251L202.57 156.883C201.258 154.494 199.264 152.525 197.795 150.214C196.288 147.843 195.039 145.316 194.069 142.679C193.364 140.66 192.786 138.599 192.338 136.508C192.091 134.418 191.696 132.347 191.157 130.312C189.767 126.583 188.114 122.75 186.487 119.1C185.411 116.658 184.126 114.348 182.893 111.985L182.184 110.593C181.319 108.808 180.558 106.996 179.561 105.342C177.961 102.506 177.395 99.2016 177.96 95.9943V95.6267C178.13 94.8624 178.431 94.1337 178.852 93.4737C179.437 92.7037 180.203 92.09 181.082 91.6869C181.96 91.2839 182.925 91.104 183.89 91.1631C184.273 91.1844 184.647 91.2827 184.992 91.4519C185.531 91.7563 186.048 92.0985 186.539 92.4759L186.907 92.7385C188.24 93.7881 189.385 95.058 190.291 96.4932C192.757 100.248 194.988 104.081 197.375 107.889C198.967 110.536 200.775 113.048 202.78 115.398C204.091 116.842 205.535 118.024 206.978 119.442C208.487 120.564 209.658 122.081 210.362 123.826C211.228 126.137 212.094 128.474 212.986 130.811C214.586 135.379 216.029 140.027 217.367 144.674C218.754 148.571 219.386 152.697 219.23 156.831C219.021 157.693 218.889 158.571 218.836 159.457C218.836 160.428 219.177 161.4 219.256 162.371C219.458 164.171 219.148 165.991 218.364 167.622C218.231 167.925 218.029 168.193 217.774 168.402C217.519 168.612 217.217 168.759 216.895 168.83C216.478 168.823 216.071 168.705 215.714 168.489C214.938 168.104 214.185 167.674 213.458 167.202Z" fill="#EAD8D5"/>
<path d="M214.166 124.273C209.928 122.253 206.129 119.416 202.989 115.923L206.663 115.214C206.663 115.214 207.056 115.214 206.977 114.952C206.899 114.689 206.584 114.768 206.426 114.794L202.753 115.503H202.622C202.438 115.293 202.229 115.083 202.045 114.847C200.359 112.836 198.849 110.684 197.532 108.414C197.139 107.731 196.745 107.048 196.378 106.339H196.535C197.558 105.918 198.657 105.712 199.762 105.736C199.762 105.736 200.208 105.736 200.208 105.499C200.208 105.263 199.894 105.289 199.762 105.289C198.516 105.272 197.278 105.495 196.116 105.946C195.302 104.423 194.489 102.9 193.649 101.377C192.213 98.7233 190.507 96.2245 188.56 93.9201C188.35 93.71 187.51 93.9201 187.772 94.1564C191.107 98.466 193.982 103.112 196.352 108.02C198.894 112.572 202.236 116.628 206.216 119.993C208.467 121.786 210.924 123.303 213.536 124.509C213.635 124.554 213.743 124.577 213.851 124.577C213.96 124.577 214.067 124.554 214.166 124.509C214.323 124.509 214.35 124.352 214.166 124.273Z" fill="#312F2F"/>
<path d="M185.227 92.2134C185.156 92.1435 185.068 92.0925 184.972 92.065C184.876 92.0375 184.774 92.0343 184.677 92.0558C184.677 92.0558 184.257 92.0558 184.362 92.3184C185.779 94.2184 186.683 96.4522 186.985 98.8038C186.985 99.1189 187.93 99.0926 187.877 98.8038C187.564 96.4184 186.652 94.1512 185.227 92.2134Z" fill="white"/>
<path d="M216.475 168.62C213.031 166.633 209.894 164.157 207.161 161.268C204.426 158.334 201.934 155.181 199.71 151.842C198.424 149.978 197.086 148.061 195.958 146.118C195.801 145.882 194.935 146.118 195.092 146.118C197.296 149.558 199.526 152.971 202.019 156.201C204.464 159.458 207.262 162.435 210.362 165.075C212.085 166.529 213.938 167.821 215.898 168.935C215.994 168.988 216.102 169.016 216.212 169.016C216.322 169.016 216.431 168.988 216.527 168.935C216.632 168.856 216.632 168.725 216.475 168.62Z" fill="#312F2F"/>
<path d="M166.443 89.2725C166.163 90.7999 165.659 92.2775 164.947 93.6574C163.506 97.1137 161.877 100.488 160.067 103.766C158.204 107.022 156.237 110.252 154.636 113.665C153.208 116.807 152.024 120.055 151.094 123.38C150.368 126.745 149.322 130.033 147.972 133.2C144.675 139.69 140.977 145.969 136.901 152C136.001 153.39 134.992 154.707 133.883 155.938C132.452 157.366 130.898 158.667 129.24 159.824C128.589 160.381 127.816 160.777 126.983 160.979C126.337 161.041 125.685 160.931 125.095 160.659C124.505 160.386 123.998 159.963 123.625 159.43C122.896 158.349 122.412 157.121 122.208 155.833C121.079 149.025 120.709 142.112 121.106 135.222C120.935 131.699 121.217 128.169 121.946 124.719C123.855 118.806 127.908 113.822 133.306 110.75C135.274 109.595 137.163 108.361 139.026 107.048C139.946 106.417 140.823 105.724 141.649 104.974C142.392 104.148 143.076 103.271 143.696 102.348C146.287 99.0411 148.504 95.4571 150.307 91.6619C152.109 88.2381 154.837 85.3903 158.178 83.4435L158.677 83.2072H158.965C160.306 82.5006 161.87 82.3497 163.32 82.7871C164.025 83.0648 164.648 83.5165 165.131 84.0999C165.387 84.4107 165.599 84.7553 165.76 85.124C166.071 85.7158 166.284 86.3543 166.39 87.0144C166.414 87.2589 166.414 87.5052 166.39 87.7496C166.453 88.2546 166.471 88.7643 166.443 89.2725Z" fill="#EAD8D5"/>
<path d="M164.947 85.7542C164.294 87.8616 163.183 89.7983 161.694 91.4256C161.432 91.7407 162.271 91.872 162.455 91.6619C163.983 90.0054 165.129 88.0336 165.813 85.8855C165.918 85.5441 165.052 85.4916 164.947 85.7542Z" fill="white"/>
<path d="M156.446 84.1788C156.351 84.1391 156.248 84.1187 156.145 84.1187C156.041 84.1187 155.939 84.1391 155.843 84.1788C155.002 84.7683 154.204 85.4177 153.456 86.1218H153.114L146.136 91.0581C145.904 90.0488 145.496 89.0886 144.929 88.2223C144.863 88.1526 144.779 88.1013 144.687 88.0737C144.595 88.046 144.498 88.043 144.404 88.0648C144.404 88.0648 143.984 88.0648 144.089 88.3536C144.697 89.2964 145.116 90.3488 145.322 91.4519C145.31 91.4948 145.31 91.5403 145.322 91.5832L143.879 92.6072C143.145 93.1061 142.436 93.6312 141.675 94.0776C140.915 94.5239 140.128 94.8653 139.393 95.3116C138.042 96.261 136.862 97.433 135.903 98.7775L132.204 103.504L129.581 102.217C128.511 101.609 127.318 101.25 126.091 101.167C126.091 101.167 125.645 101.167 125.645 101.403C125.645 101.639 125.96 101.613 126.091 101.613C127.205 101.726 128.28 102.085 129.239 102.663L132.23 104.186C132.23 104.186 132.23 104.186 132.23 104.344C133.409 105.623 134.208 107.205 134.539 108.913C134.539 109.044 134.723 109.123 134.907 109.149H134.592C133.27 109.736 131.997 110.43 130.787 111.223C128.144 112.828 126.119 115.28 125.042 118.181C125.042 118.522 125.829 118.575 125.908 118.181C126.837 115.586 128.576 113.359 130.866 111.827C132.002 111.003 133.214 110.291 134.487 109.7C136.003 109.084 137.447 108.3 138.789 107.363C140.048 106.357 141.224 105.251 142.305 104.055C143.411 103.062 144.454 102.001 145.427 100.878C146.43 99.6273 147.309 98.2819 148.051 96.8608C148.812 95.3379 149.415 93.7362 150.15 92.1871C151.634 89.1199 153.884 86.4881 156.683 84.5464C156.787 84.3626 156.551 84.2313 156.446 84.1788ZM149.809 90.8743C148.995 92.3446 148.392 93.92 147.71 95.4429C147.039 96.9274 146.24 98.3507 145.322 99.6965C144.393 101.024 143.385 102.295 142.305 103.504C141.242 104.713 140.102 105.853 138.894 106.917C138.298 107.448 137.647 107.914 136.953 108.309C136.495 108.58 136.022 108.825 135.536 109.044C135.443 108.55 135.302 108.067 135.116 107.6C134.953 107.129 134.752 106.672 134.513 106.234C134.267 105.784 133.986 105.354 133.673 104.948C133.516 104.764 133.411 104.58 133.28 104.423C133.149 104.265 132.939 104.16 132.939 103.976C132.939 103.793 133.306 103.504 133.385 103.372L134.408 102.112L136.35 99.7228C137.331 98.353 138.496 97.1249 139.813 96.0731C140.524 95.6209 141.26 95.2089 142.017 94.839C142.777 94.4189 143.486 93.92 144.22 93.4212L148.707 90.2441L151.75 88.1173C151.015 88.9707 150.364 89.8941 149.809 90.8743Z" fill="#312F2F"/>
</g>
<defs>
<clipPath id="clip0_175_381">
<rect width="373" height="257" fill="white"/>
</clipPath>
</defs>
</svg>
