<svg width="88" height="129" viewBox="0 0 88 129" fill="none" xmlns="http://www.w3.org/2000/svg">
<g clip-path="url(#clip0_209_514)">
<path d="M86.1634 29.1157L78.3878 17.7772C77.6002 16.6076 77.185 15.2329 77.1952 13.8293V3.64233H10.8285V13.8293C10.8388 15.2329 10.4235 16.6076 9.63594 17.7772L1.86033 29.1157C1.07049 30.2887 0.655134 31.6677 0.66776 33.0753V110.506C0.667759 112.858 1.13827 115.188 2.05239 117.361C2.9665 119.534 4.3063 121.509 5.99525 123.172C7.6842 124.835 9.68922 126.154 11.8957 127.053C14.1021 127.952 16.4668 128.414 18.8545 128.412H69.205C71.5927 128.414 73.9574 127.952 76.1638 127.053C78.3703 126.154 80.3753 124.835 82.0642 123.172C83.7532 121.509 85.093 119.534 86.0071 117.361C86.9212 115.188 87.3917 112.858 87.3917 110.506V33.0753C87.3938 31.6641 86.9658 30.2847 86.1634 29.1157Z" fill="white" fill-opacity="0.5"/>
<path d="M69.2051 129H18.7831C13.8045 128.997 9.03066 127.048 5.50919 123.58C1.98771 120.113 0.00636633 115.411 4.93935e-05 110.506V33.0754C-0.00549455 31.5474 0.455771 30.0531 1.32382 28.7868L9.09939 17.4483C9.83806 16.3818 10.2329 15.1206 10.2323 13.8294V3.64242C10.2323 3.48661 10.2951 3.33718 10.407 3.227C10.5188 3.11683 10.6705 3.05493 10.8286 3.05493H77.1596C77.3177 3.05493 77.4694 3.11683 77.5812 3.227C77.693 3.33718 77.7558 3.48661 77.7558 3.64242V13.8294C77.7553 15.1206 78.1501 16.3818 78.8888 17.4483L86.6167 28.7868C87.4847 30.0531 87.9459 31.5474 87.9404 33.0754V110.506C87.9341 115.403 85.9594 120.098 82.4482 123.564C78.937 127.03 74.1753 128.984 69.2051 129ZM11.4845 4.2534V13.8529C11.4842 15.3782 11.0188 16.8682 10.1489 18.1298L2.37326 29.4683C1.63787 30.54 1.24726 31.8052 1.25227 33.0989V110.529C1.25859 115.123 3.11427 119.526 6.4121 122.773C9.70992 126.02 14.1805 127.845 18.8427 127.849H69.2051C73.8673 127.845 78.3379 126.02 81.6357 122.773C84.9335 119.526 86.7892 115.123 86.7955 110.529V33.0989C86.802 31.805 86.4113 30.5394 85.6745 29.4683L77.8989 18.1298C77.029 16.8682 76.5636 15.3782 76.5633 13.8529V4.2534H11.4845Z" fill="#312F2F"/>
<path d="M77.3859 0.235107H9.81473C9.21537 0.235107 8.72949 0.713815 8.72949 1.30433V8.4129C8.72949 9.00342 9.21537 9.48213 9.81473 9.48213H77.3859C77.9853 9.48213 78.4712 9.00342 78.4712 8.4129V1.30433C78.4712 0.713815 77.9853 0.235107 77.3859 0.235107Z" fill="#ACD4E5"/>
<path d="M52.9384 104.126C45.0564 102.672 36.9689 102.672 29.0869 104.126H20.5361V108.826C20.5361 112.01 29.707 114.595 41.0245 114.595C52.3421 114.595 61.513 112.01 61.513 108.826V104.126H52.9384Z" fill="#F0CB66"/>
<path d="M61.489 104.02C61.489 106.934 52.3181 109.296 41.0006 109.296C29.6831 109.296 20.5122 106.946 20.5122 104.02C20.5122 101.095 29.6831 98.7446 41.0006 98.7446C52.3181 98.7446 61.489 101.106 61.489 104.02Z" fill="#F0CB66"/>
<path d="M41.0007 109.531C36.1458 109.596 31.3007 109.083 26.5706 108.003C26.5403 107.997 26.5117 107.984 26.4866 107.966C26.4616 107.948 26.4405 107.925 26.4249 107.898C26.4092 107.872 26.3993 107.842 26.3956 107.812C26.392 107.782 26.3947 107.751 26.4036 107.721C26.4107 107.691 26.4236 107.663 26.4418 107.638C26.46 107.613 26.4831 107.591 26.5096 107.575C26.5362 107.558 26.5658 107.547 26.5967 107.542C26.6277 107.537 26.6593 107.538 26.6898 107.545C31.381 108.615 36.1859 109.124 41.0007 109.061C53.1173 109.061 61.2745 106.452 61.2745 104.02C61.2745 102.845 59.5214 101.67 56.4446 100.789C56.4123 100.782 56.3819 100.768 56.3552 100.749C56.3286 100.73 56.3063 100.705 56.2898 100.677C56.2733 100.649 56.2629 100.618 56.2593 100.585C56.2557 100.553 56.259 100.52 56.269 100.489C56.2789 100.458 56.2953 100.429 56.3171 100.405C56.339 100.38 56.3657 100.36 56.3957 100.347C56.4256 100.333 56.4582 100.325 56.4912 100.325C56.5243 100.324 56.5571 100.33 56.5877 100.343C59.9627 101.341 61.7515 102.622 61.7515 104.02C61.7276 107.11 52.6283 109.531 41.0007 109.531Z" fill="#312F2F"/>
<path d="M21.8361 110.236C21.7729 110.236 21.7122 110.211 21.6675 110.167C21.6228 110.123 21.5977 110.063 21.5977 110.001V105.888C21.5977 105.826 21.6228 105.766 21.6675 105.722C21.7122 105.678 21.7729 105.653 21.8361 105.653C21.8994 105.653 21.9601 105.678 22.0048 105.722C22.0495 105.766 22.0747 105.826 22.0747 105.888V110.001C22.0747 110.063 22.0495 110.123 22.0048 110.167C21.9601 110.211 21.8994 110.236 21.8361 110.236Z" fill="#312F2F"/>
<path d="M20.5125 108.732C20.4492 108.732 20.3885 108.707 20.3438 108.663C20.2991 108.619 20.2739 108.559 20.2739 108.497V104.384C20.2739 104.322 20.2991 104.262 20.3438 104.218C20.3885 104.174 20.4492 104.149 20.5125 104.149C20.5757 104.149 20.6364 104.174 20.6811 104.218C20.7258 104.262 20.7509 104.322 20.7509 104.384V108.497C20.7509 108.559 20.7258 108.619 20.6811 108.663C20.6364 108.707 20.5757 108.732 20.5125 108.732Z" fill="#312F2F"/>
<path d="M24.9245 111.74C24.8613 111.74 24.8006 111.715 24.7559 111.671C24.7111 111.627 24.686 111.567 24.686 111.505V107.392C24.686 107.33 24.7111 107.27 24.7559 107.226C24.8006 107.182 24.8613 107.157 24.9245 107.157C24.9878 107.157 25.0484 107.182 25.0932 107.226C25.1379 107.27 25.1631 107.33 25.1631 107.392V111.505C25.1631 111.567 25.1379 111.627 25.0932 111.671C25.0484 111.715 24.9878 111.74 24.9245 111.74Z" fill="#312F2F"/>
<path d="M29.3733 112.844C29.31 112.844 29.2494 112.819 29.2046 112.775C29.1599 112.731 29.1348 112.671 29.1348 112.609V108.497C29.1348 108.434 29.1599 108.375 29.2046 108.331C29.2494 108.286 29.31 108.262 29.3733 108.262C29.4366 108.262 29.4972 108.286 29.5419 108.331C29.5867 108.375 29.6118 108.434 29.6118 108.497V112.609C29.6118 112.671 29.5867 112.731 29.5419 112.775C29.4972 112.819 29.4366 112.844 29.3733 112.844Z" fill="#312F2F"/>
<path d="M36.4334 113.796C36.3701 113.796 36.3094 113.771 36.2647 113.727C36.2199 113.683 36.1948 113.623 36.1948 113.561V109.449C36.1948 109.386 36.2199 109.327 36.2647 109.282C36.3094 109.238 36.3701 109.214 36.4334 109.214C36.4966 109.214 36.5573 109.238 36.602 109.282C36.6467 109.327 36.6718 109.386 36.6718 109.449V113.526C36.677 113.559 36.6747 113.594 36.6651 113.627C36.6554 113.659 36.6387 113.69 36.616 113.715C36.5933 113.741 36.5652 113.761 36.5337 113.775C36.5021 113.789 36.4679 113.796 36.4334 113.796Z" fill="#312F2F"/>
<path d="M58.6389 110.952C58.5757 110.952 58.515 110.928 58.4703 110.884C58.4255 110.84 58.4004 110.78 58.4004 110.718V106.605C58.4004 106.574 58.4066 106.544 58.4186 106.515C58.4305 106.487 58.4481 106.461 58.4703 106.439C58.4924 106.417 58.5187 106.4 58.5476 106.388C58.5766 106.376 58.6076 106.37 58.6389 106.37C58.6702 106.37 58.7013 106.376 58.7302 106.388C58.7591 106.4 58.7854 106.417 58.8076 106.439C58.8297 106.461 58.8473 106.487 58.8593 106.515C58.8712 106.544 58.8774 106.574 58.8774 106.605V110.718C58.8774 110.78 58.8523 110.84 58.8076 110.884C58.7628 110.928 58.7022 110.952 58.6389 110.952Z" fill="#312F2F"/>
<path d="M23.9707 101.318C23.9232 101.318 23.8769 101.303 23.8384 101.275C23.7999 101.248 23.7711 101.209 23.7561 101.165C23.7325 101.107 23.733 101.043 23.7576 100.986C23.7822 100.928 23.8288 100.883 23.8872 100.859C28.4071 99.144 35.968 98.674 36.0396 98.6623C36.1111 98.6505 36.29 98.7563 36.29 98.8855C36.2934 98.9167 36.29 98.9483 36.2801 98.9782C36.2703 99.008 36.2541 99.0355 36.2327 99.0588C36.2113 99.0821 36.1852 99.1007 36.156 99.1133C36.1269 99.126 36.0953 99.1324 36.0634 99.1323C35.9919 99.1323 28.5025 99.614 24.0661 101.306L23.9707 101.318Z" fill="#312F2F"/>
<path d="M52.9384 99.426C45.0438 98.1126 36.9815 98.1126 29.0869 99.426H20.5361V103.703C20.5361 106.617 29.707 108.978 41.0245 108.978C52.3421 108.978 61.513 106.629 61.513 103.703V99.426H52.9384Z" fill="#F0CB66"/>
<path d="M41.0006 104.643C52.3161 104.643 61.489 102.281 61.489 99.3672C61.489 96.4535 52.3161 94.0916 41.0006 94.0916C29.6852 94.0916 20.5122 96.4535 20.5122 99.3672C20.5122 102.281 29.6852 104.643 41.0006 104.643Z" fill="#F0CB66"/>
<path d="M41.0005 104.878C36.1464 104.94 31.302 104.431 26.5703 103.362C26.5396 103.354 26.5108 103.34 26.4856 103.321C26.4605 103.301 26.4395 103.277 26.424 103.25C26.4084 103.223 26.3986 103.192 26.395 103.161C26.3915 103.13 26.3943 103.099 26.4034 103.068C26.4103 103.039 26.4233 103.01 26.4416 102.986C26.46 102.961 26.4834 102.94 26.5102 102.925C26.5371 102.909 26.5668 102.9 26.5977 102.896C26.6286 102.892 26.6598 102.895 26.6896 102.904C31.3823 103.963 36.1865 104.468 41.0005 104.408C53.117 104.408 61.2742 101.799 61.2742 99.3673C61.2742 98.1923 59.5212 97.0173 56.4443 96.1479C56.3861 96.1265 56.338 96.0847 56.3094 96.0304C56.2807 95.9761 56.2736 95.9133 56.2893 95.8541C56.2975 95.8238 56.3118 95.7954 56.3314 95.7707C56.3509 95.7459 56.3753 95.7252 56.4031 95.7099C56.4309 95.6946 56.4615 95.6849 56.4932 95.6814C56.5249 95.6779 56.5569 95.6807 56.5874 95.6896C59.9624 96.7001 61.7513 97.969 61.7513 99.3673C61.7274 102.457 52.6281 104.878 41.0005 104.878Z" fill="#312F2F"/>
<path d="M21.8361 105.583C21.7729 105.583 21.7122 105.558 21.6675 105.514C21.6228 105.47 21.5977 105.41 21.5977 105.348V101.247C21.5977 101.185 21.6228 101.125 21.6675 101.081C21.7122 101.037 21.7729 101.012 21.8361 101.012C21.8994 101.012 21.9601 101.037 22.0048 101.081C22.0495 101.125 22.0747 101.185 22.0747 101.247V105.301C22.0818 105.335 22.081 105.371 22.0723 105.405C22.0635 105.439 22.0471 105.471 22.0242 105.498C22.0013 105.525 21.9725 105.547 21.9399 105.562C21.9074 105.576 21.8719 105.584 21.8361 105.583Z" fill="#312F2F"/>
<path d="M20.5125 104.126C20.4492 104.126 20.3885 104.101 20.3438 104.057C20.2991 104.013 20.2739 103.953 20.2739 103.891V99.7902C20.2739 99.7278 20.2991 99.6681 20.3438 99.624C20.3885 99.5799 20.4492 99.5552 20.5125 99.5552C20.5757 99.5552 20.6364 99.5799 20.6811 99.624C20.7258 99.6681 20.7509 99.7278 20.7509 99.7902V103.891C20.7509 103.953 20.7258 104.013 20.6811 104.057C20.6364 104.101 20.5757 104.126 20.5125 104.126Z" fill="#312F2F"/>
<path d="M24.9245 107.087C24.8613 107.087 24.8006 107.062 24.7559 107.018C24.7111 106.974 24.686 106.914 24.686 106.852V102.751C24.686 102.689 24.7111 102.629 24.7559 102.585C24.8006 102.541 24.8613 102.516 24.9245 102.516C24.9878 102.516 25.0484 102.541 25.0932 102.585C25.1379 102.629 25.1631 102.689 25.1631 102.751V106.852C25.1631 106.914 25.1379 106.974 25.0932 107.018C25.0484 107.062 24.9878 107.087 24.9245 107.087Z" fill="#312F2F"/>
<path d="M29.3733 108.191C29.31 108.191 29.2494 108.167 29.2046 108.122C29.1599 108.078 29.1348 108.019 29.1348 107.956V103.844C29.1348 103.782 29.1599 103.722 29.2046 103.678C29.2494 103.634 29.31 103.609 29.3733 103.609C29.4366 103.609 29.4972 103.634 29.5419 103.678C29.5867 103.722 29.6118 103.782 29.6118 103.844V107.956C29.6118 108.019 29.5867 108.078 29.5419 108.122C29.4972 108.167 29.4366 108.191 29.3733 108.191Z" fill="#312F2F"/>
<path d="M36.4334 109.143C36.3701 109.143 36.3094 109.118 36.2647 109.074C36.2199 109.03 36.1948 108.97 36.1948 108.908V104.796C36.1948 104.733 36.2199 104.673 36.2647 104.629C36.3094 104.585 36.3701 104.561 36.4334 104.561C36.4966 104.561 36.5573 104.585 36.602 104.629C36.6467 104.673 36.6718 104.733 36.6718 104.796V108.908C36.6718 108.97 36.6467 109.03 36.602 109.074C36.5573 109.118 36.4966 109.143 36.4334 109.143Z" fill="#312F2F"/>
<path d="M44.8767 108.015C44.8135 108.015 44.7528 107.99 44.7081 107.946C44.6633 107.902 44.6382 107.842 44.6382 107.78V104.796C44.6382 104.733 44.6633 104.673 44.7081 104.629C44.7528 104.585 44.8135 104.561 44.8767 104.561C44.94 104.561 45.0006 104.585 45.0454 104.629C45.0901 104.673 45.1152 104.733 45.1152 104.796V107.78C45.1152 107.842 45.0901 107.902 45.0454 107.946C45.0006 107.99 44.94 108.015 44.8767 108.015Z" fill="#312F2F"/>
<path d="M59.9744 104.349C59.9111 104.349 59.8504 104.324 59.8057 104.28C59.761 104.236 59.7358 104.176 59.7358 104.114V101.353C59.7358 101.291 59.761 101.231 59.8057 101.187C59.8504 101.143 59.9111 101.118 59.9744 101.118C60.0376 101.118 60.0983 101.143 60.143 101.187C60.1878 101.231 60.2129 101.291 60.2129 101.353V104.126C60.2098 104.186 60.1833 104.243 60.1389 104.284C60.0945 104.326 60.0356 104.349 59.9744 104.349Z" fill="#312F2F"/>
<path d="M55.7288 107.533C55.6655 107.533 55.6048 107.509 55.5601 107.464C55.5154 107.42 55.4902 107.361 55.4902 107.298V103.186C55.4902 103.124 55.5154 103.064 55.5601 103.02C55.6048 102.976 55.6655 102.951 55.7288 102.951C55.792 102.951 55.8527 102.976 55.8974 103.02C55.9421 103.064 55.9673 103.124 55.9673 103.186V107.298C55.9673 107.361 55.9421 107.42 55.8974 107.464C55.8527 107.509 55.792 107.533 55.7288 107.533Z" fill="#312F2F"/>
<path d="M61.489 104.619C61.4257 104.619 61.3651 104.595 61.3203 104.551C61.2756 104.507 61.2505 104.447 61.2505 104.384V100.284C61.2505 100.221 61.2756 100.162 61.3203 100.118C61.3651 100.074 61.4257 100.049 61.489 100.049C61.5522 100.049 61.6129 100.074 61.6576 100.118C61.7024 100.162 61.7275 100.221 61.7275 100.284V104.384C61.7275 104.447 61.7024 104.507 61.6576 104.551C61.6129 104.595 61.5522 104.619 61.489 104.619Z" fill="#312F2F"/>
<path d="M23.9706 96.6647C23.9182 96.6606 23.8687 96.6396 23.8297 96.6049C23.7907 96.5703 23.7644 96.5239 23.7549 96.473C23.7454 96.4222 23.7532 96.3696 23.7771 96.3235C23.801 96.2775 23.8396 96.2404 23.8871 96.2182C28.4069 94.5028 35.9678 94.021 36.0394 94.021C36.0704 94.0159 36.1022 94.0175 36.1326 94.0258C36.1629 94.034 36.191 94.0488 36.2149 94.069C36.2388 94.0892 36.2579 94.1143 36.2708 94.1425C36.2838 94.1708 36.2903 94.2015 36.2898 94.2325C36.2931 94.2643 36.2898 94.2965 36.28 94.327C36.2702 94.3575 36.2543 94.3857 36.2331 94.4099C36.2118 94.4341 36.1859 94.4537 36.1567 94.4677C36.1275 94.4817 36.0957 94.4896 36.0632 94.491C35.9917 94.491 28.5023 94.961 24.066 96.653L23.9706 96.6647Z" fill="#312F2F"/>
<path d="M37.1366 112.468C30.1872 111.246 23.073 111.246 16.1235 112.468H8.58643V116.451C8.58643 119.154 16.6721 121.351 26.6301 121.351C36.5881 121.351 44.6737 119.154 44.6737 116.451V112.468H37.1366Z" fill="#F0CB66"/>
<path d="M26.6301 117.062C36.5953 117.062 44.6737 114.984 44.6737 112.421C44.6737 109.858 36.5953 107.78 26.6301 107.78C16.6648 107.78 8.58643 109.858 8.58643 112.421C8.58643 114.984 16.6648 117.062 26.6301 117.062Z" fill="#F0CB66"/>
<path d="M26.6299 117.297C22.3371 117.36 18.0524 116.91 13.8694 115.958C13.8077 115.942 13.7549 115.903 13.7224 115.849C13.69 115.795 13.6807 115.731 13.6965 115.67C13.7123 115.609 13.752 115.557 13.8068 115.525C13.8616 115.493 13.927 115.484 13.9887 115.5C18.1172 116.439 22.3455 116.885 26.5822 116.827C37.2319 116.827 44.3873 114.548 44.3873 112.421C44.3873 111.434 42.837 110.412 40.1537 109.613C40.0921 109.596 40.0398 109.555 40.0085 109.5C39.9772 109.445 39.9694 109.38 39.9867 109.319C40.0041 109.258 40.0453 109.207 40.1012 109.176C40.1572 109.145 40.2232 109.138 40.2849 109.155C43.2783 110.048 44.8644 111.176 44.8644 112.421C44.8763 115.159 36.8742 117.297 26.6299 117.297Z" fill="#312F2F"/>
<path d="M9.76734 117.92C9.70408 117.92 9.64342 117.895 9.59869 117.851C9.55396 117.807 9.52881 117.747 9.52881 117.685V114.066C9.52881 114.035 9.53498 114.005 9.54697 113.976C9.55896 113.948 9.57654 113.922 9.59869 113.9C9.62083 113.878 9.64712 113.861 9.67606 113.849C9.705 113.837 9.73602 113.831 9.76734 113.831C9.79866 113.831 9.82968 113.837 9.85862 113.849C9.88755 113.861 9.91384 113.878 9.93599 113.9C9.95814 113.922 9.97572 113.948 9.98771 113.976C9.99969 114.005 10.0059 114.035 10.0059 114.066V117.685C10.0059 117.747 9.98072 117.807 9.93599 117.851C9.89126 117.895 9.8306 117.92 9.76734 117.92Z" fill="#312F2F"/>
<path d="M8.58648 116.604C8.55413 116.604 8.52211 116.598 8.49237 116.585C8.46262 116.573 8.43578 116.554 8.41346 116.531C8.39115 116.508 8.37384 116.481 8.36258 116.451C8.35132 116.421 8.34634 116.389 8.34795 116.357V112.75C8.34795 112.688 8.3731 112.628 8.41783 112.584C8.46256 112.54 8.52323 112.515 8.58648 112.515C8.64974 112.515 8.7104 112.54 8.75514 112.584C8.79987 112.628 8.82498 112.688 8.82498 112.75V116.357C8.82659 116.389 8.82164 116.421 8.81038 116.451C8.79912 116.481 8.78181 116.508 8.7595 116.531C8.73719 116.554 8.71034 116.573 8.6806 116.585C8.65086 116.598 8.61883 116.604 8.58648 116.604Z" fill="#312F2F"/>
<path d="M12.4743 119.248C12.4111 119.248 12.3504 119.223 12.3057 119.179C12.261 119.135 12.2358 119.075 12.2358 119.013V115.394C12.2358 115.363 12.242 115.333 12.254 115.304C12.266 115.275 12.2835 115.25 12.3057 115.228C12.3278 115.206 12.3541 115.189 12.3831 115.177C12.412 115.165 12.443 115.159 12.4743 115.159C12.5057 115.159 12.5367 115.165 12.5656 115.177C12.5945 115.189 12.6209 115.206 12.643 115.228C12.6652 115.25 12.6827 115.275 12.6947 115.304C12.7067 115.333 12.7129 115.363 12.7129 115.394V119.013C12.7129 119.075 12.6878 119.135 12.643 119.179C12.5983 119.223 12.5376 119.248 12.4743 119.248Z" fill="#312F2F"/>
<path d="M16.3381 120.211C16.2749 120.211 16.2142 120.187 16.1695 120.142C16.1248 120.098 16.0996 120.039 16.0996 119.976V116.357C16.0996 116.295 16.1248 116.235 16.1695 116.191C16.2142 116.147 16.2749 116.122 16.3381 116.122C16.3699 116.121 16.4017 116.126 16.4314 116.137C16.4611 116.148 16.4881 116.165 16.5106 116.187C16.5331 116.21 16.5506 116.236 16.562 116.265C16.5734 116.295 16.5784 116.326 16.5766 116.357V119.976C16.5784 120.008 16.5734 120.039 16.562 120.068C16.5506 120.097 16.5331 120.124 16.5106 120.146C16.4881 120.168 16.4611 120.186 16.4314 120.197C16.4017 120.208 16.3699 120.213 16.3381 120.211Z" fill="#312F2F"/>
<path d="M22.6111 121.057C22.5478 121.057 22.4871 121.032 22.4424 120.988C22.3977 120.944 22.3726 120.885 22.3726 120.822V117.203C22.3726 117.172 22.3787 117.142 22.3907 117.113C22.4027 117.085 22.4203 117.059 22.4424 117.037C22.4645 117.015 22.4908 116.998 22.5198 116.986C22.5487 116.974 22.5797 116.968 22.6111 116.968C22.6424 116.968 22.6734 116.974 22.7023 116.986C22.7313 116.998 22.7576 117.015 22.7797 117.037C22.8019 117.059 22.8194 117.085 22.8314 117.113C22.8434 117.142 22.8496 117.172 22.8496 117.203V120.822C22.8496 120.885 22.8245 120.944 22.7797 120.988C22.735 121.032 22.6743 121.057 22.6111 121.057Z" fill="#312F2F"/>
<path d="M30.053 121.057C29.9897 121.057 29.9291 121.032 29.8843 120.988C29.8396 120.944 29.8145 120.885 29.8145 120.822V117.203C29.8145 117.141 29.8396 117.081 29.8843 117.037C29.9291 116.993 29.9897 116.968 30.053 116.968C30.1162 116.968 30.1769 116.993 30.2216 117.037C30.2664 117.081 30.2915 117.141 30.2915 117.203V120.822C30.2915 120.885 30.2664 120.944 30.2216 120.988C30.1769 121.032 30.1162 121.057 30.053 121.057Z" fill="#312F2F"/>
<path d="M39.5935 119.636C39.5303 119.636 39.4696 119.611 39.4249 119.567C39.3801 119.523 39.355 119.463 39.355 119.401V115.782C39.355 115.719 39.3801 115.66 39.4249 115.615C39.4696 115.571 39.5303 115.547 39.5935 115.547C39.6568 115.547 39.7174 115.571 39.7622 115.615C39.8069 115.66 39.832 115.719 39.832 115.782V119.401C39.832 119.463 39.8069 119.523 39.7622 119.567C39.7174 119.611 39.6568 119.636 39.5935 119.636Z" fill="#312F2F"/>
<path d="M44.6619 117.051C44.5986 117.051 44.5379 117.026 44.4932 116.982C44.4485 116.938 44.4233 116.878 44.4233 116.816V113.197C44.4233 113.134 44.4485 113.075 44.4932 113.031C44.5379 112.987 44.5986 112.962 44.6619 112.962C44.6936 112.96 44.7254 112.965 44.7551 112.976C44.7849 112.987 44.8118 113.005 44.8343 113.027C44.8568 113.049 44.8744 113.076 44.8857 113.105C44.8971 113.134 44.9021 113.165 44.9004 113.197V116.816C44.9021 116.847 44.8971 116.878 44.8857 116.908C44.8744 116.937 44.8568 116.963 44.8343 116.986C44.8118 117.008 44.7849 117.025 44.7551 117.036C44.7254 117.047 44.6936 117.052 44.6619 117.051Z" fill="#312F2F"/>
<path d="M11.6397 110.071C11.5922 110.071 11.5459 110.056 11.5074 110.029C11.4688 110.002 11.44 109.963 11.425 109.919C11.4014 109.861 11.402 109.796 11.4266 109.739C11.4511 109.682 11.4978 109.636 11.5562 109.613C15.0428 108.55 18.6463 107.903 22.2894 107.686C22.3201 107.683 22.3511 107.686 22.3806 107.695C22.4101 107.704 22.4375 107.719 22.4609 107.739C22.4844 107.758 22.5035 107.783 22.517 107.81C22.5306 107.837 22.5383 107.867 22.5398 107.898C22.5414 107.928 22.5368 107.959 22.5263 107.988C22.5158 108.018 22.4995 108.044 22.4785 108.067C22.4574 108.09 22.432 108.109 22.4036 108.122C22.3753 108.135 22.3445 108.143 22.3132 108.144C22.2536 108.144 15.6587 108.567 11.747 110.06L11.6397 110.071Z" fill="#312F2F"/>
<path d="M72.0433 115.018C65.2581 113.796 58.3043 113.796 51.5191 115.018H44.1729V118.942C44.1729 121.61 52.0558 123.783 61.7872 123.783C71.5186 123.783 79.4611 121.61 79.4611 118.942V115.018H72.0433Z" fill="#F0CB66"/>
<path d="M79.4611 114.959C79.4611 117.462 71.5662 119.495 61.8468 119.495C52.1273 119.495 44.2324 117.462 44.2324 114.959C44.2324 112.457 52.1154 110.424 61.8468 110.424C71.5782 110.424 79.4611 112.457 79.4611 114.959Z" fill="#F0CB66"/>
<path d="M61.787 119.729C57.6102 119.783 53.442 119.341 49.3723 118.414C49.3107 118.398 49.2578 118.359 49.2254 118.305C49.1929 118.251 49.1836 118.186 49.1994 118.126C49.2152 118.065 49.2549 118.013 49.3097 117.981C49.3645 117.949 49.4299 117.94 49.4916 117.955C53.5223 118.873 57.6503 119.311 61.787 119.26C72.1743 119.26 79.1628 117.027 79.1628 114.959C79.1628 113.996 77.6483 112.997 75.0365 112.21C75.0062 112.203 74.9776 112.19 74.9526 112.172C74.9275 112.154 74.9065 112.131 74.8908 112.104C74.8752 112.078 74.8652 112.049 74.8616 112.018C74.8579 111.988 74.8606 111.957 74.8696 111.928C74.8889 111.868 74.9304 111.818 74.9857 111.788C75.0411 111.757 75.1061 111.748 75.1677 111.763C78.0895 112.633 79.6399 113.737 79.6399 114.959C79.6399 117.626 71.7927 119.729 61.787 119.729Z" fill="#312F2F"/>
<path d="M45.3176 120.329C45.2543 120.329 45.1937 120.304 45.1489 120.26C45.1042 120.216 45.0791 120.156 45.0791 120.094V116.569C45.0791 116.506 45.1042 116.447 45.1489 116.403C45.1937 116.358 45.2543 116.334 45.3176 116.334C45.3809 116.334 45.4415 116.358 45.4862 116.403C45.531 116.447 45.5561 116.506 45.5561 116.569V120.094C45.5561 120.156 45.531 120.216 45.4862 120.26C45.4415 120.304 45.3809 120.329 45.3176 120.329Z" fill="#312F2F"/>
<path d="M44.1731 119.036C44.1098 119.036 44.0492 119.011 44.0044 118.967C43.9597 118.923 43.9346 118.864 43.9346 118.801V115.276C43.9346 115.214 43.9597 115.154 44.0044 115.11C44.0492 115.066 44.1098 115.041 44.1731 115.041C44.2364 115.041 44.297 115.066 44.3418 115.11C44.3865 115.154 44.4116 115.214 44.4116 115.276V118.801C44.4116 118.864 44.3865 118.923 44.3418 118.967C44.297 119.011 44.2364 119.036 44.1731 119.036Z" fill="#312F2F"/>
<path d="M47.9655 121.621C47.9023 121.621 47.8416 121.596 47.7969 121.552C47.7522 121.508 47.7271 121.448 47.7271 121.386V117.861C47.7271 117.799 47.7522 117.739 47.7969 117.695C47.8416 117.651 47.9023 117.626 47.9655 117.626C48.0288 117.626 48.0895 117.651 48.1342 117.695C48.1789 117.739 48.2041 117.799 48.2041 117.861V121.386C48.2041 121.448 48.1789 121.508 48.1342 121.552C48.0895 121.596 48.0288 121.621 47.9655 121.621Z" fill="#312F2F"/>
<path d="M51.7459 122.573C51.6826 122.573 51.6219 122.548 51.5772 122.504C51.5325 122.46 51.5073 122.4 51.5073 122.338V118.813C51.5073 118.782 51.5135 118.752 51.5255 118.723C51.5375 118.695 51.5551 118.669 51.5772 118.647C51.5993 118.625 51.6256 118.608 51.6546 118.596C51.6835 118.584 51.7145 118.578 51.7459 118.578C51.7772 118.578 51.8082 118.584 51.8371 118.596C51.8661 118.608 51.8924 118.625 51.9145 118.647C51.9367 118.669 51.9542 118.695 51.9662 118.723C51.9782 118.752 51.9843 118.782 51.9843 118.813V122.338C51.9843 122.4 51.9592 122.46 51.9145 122.504C51.8698 122.548 51.8091 122.573 51.7459 122.573Z" fill="#312F2F"/>
<path d="M57.8635 123.395C57.8003 123.395 57.7396 123.371 57.6948 123.326C57.6501 123.282 57.625 123.223 57.625 123.16V119.635C57.625 119.573 57.6501 119.513 57.6948 119.469C57.7396 119.425 57.8003 119.4 57.8635 119.4C57.9268 119.4 57.9875 119.425 58.0322 119.469C58.0769 119.513 58.102 119.573 58.102 119.635V123.16C58.102 123.223 58.0769 123.282 58.0322 123.326C57.9875 123.371 57.9268 123.395 57.8635 123.395Z" fill="#312F2F"/>
<path d="M65.1502 123.395C65.0869 123.395 65.0262 123.371 64.9815 123.326C64.9368 123.282 64.9116 123.223 64.9116 123.16V119.635C64.9116 119.573 64.9368 119.513 64.9815 119.469C65.0262 119.425 65.0869 119.4 65.1502 119.4C65.2134 119.4 65.2741 119.425 65.3188 119.469C65.3635 119.513 65.3887 119.573 65.3887 119.635V123.16C65.3887 123.223 65.3635 123.282 65.3188 123.326C65.2741 123.371 65.2134 123.395 65.1502 123.395Z" fill="#312F2F"/>
<path d="M78.1015 120.423C78.0692 120.424 78.0369 120.419 78.0066 120.408C77.9763 120.397 77.9485 120.38 77.9251 120.358C77.9017 120.336 77.883 120.31 77.8703 120.28C77.8576 120.251 77.851 120.22 77.8511 120.188V116.663C77.851 116.631 77.8576 116.599 77.8703 116.57C77.883 116.541 77.9017 116.514 77.9251 116.492C77.9485 116.47 77.9763 116.453 78.0066 116.442C78.0369 116.431 78.0692 116.426 78.1015 116.428C78.1648 116.428 78.2255 116.453 78.2702 116.497C78.3149 116.541 78.34 116.6 78.34 116.663V120.188C78.34 120.25 78.3149 120.31 78.2702 120.354C78.2255 120.398 78.1648 120.423 78.1015 120.423Z" fill="#312F2F"/>
<path d="M74.4407 122.009C74.3774 122.009 74.3168 121.984 74.272 121.94C74.2273 121.896 74.2021 121.836 74.2021 121.774V118.249C74.2021 118.187 74.2273 118.127 74.272 118.083C74.3168 118.039 74.3774 118.014 74.4407 118.014C74.5039 118.014 74.5646 118.039 74.6093 118.083C74.6541 118.127 74.6792 118.187 74.6792 118.249V121.774C74.6792 121.836 74.6541 121.896 74.6093 121.94C74.5646 121.984 74.5039 122.009 74.4407 122.009Z" fill="#312F2F"/>
<path d="M79.4612 119.506C79.3979 119.506 79.3373 119.481 79.2925 119.437C79.2478 119.393 79.2227 119.333 79.2227 119.271V115.746C79.2227 115.684 79.2478 115.624 79.2925 115.58C79.3373 115.536 79.3979 115.511 79.4612 115.511C79.5244 115.511 79.5851 115.536 79.6298 115.58C79.6746 115.624 79.6997 115.684 79.6997 115.746V119.271C79.6997 119.333 79.6746 119.393 79.6298 119.437C79.5851 119.481 79.5244 119.506 79.4612 119.506Z" fill="#312F2F"/>
<path d="M47.1546 112.668C47.1074 112.667 47.0615 112.653 47.0216 112.628C46.9817 112.603 46.9494 112.568 46.928 112.527C46.9044 112.469 46.9049 112.405 46.9295 112.347C46.9541 112.29 47.0007 112.245 47.0591 112.221C51.6386 110.341 60.6902 110.2 61.0719 110.189C61.1351 110.189 61.1958 110.213 61.2406 110.258C61.2853 110.302 61.3104 110.361 61.3104 110.424C61.3104 110.486 61.2853 110.546 61.2406 110.59C61.1958 110.634 61.1351 110.659 61.0719 110.659C60.9765 110.659 51.7459 110.811 47.2499 112.656L47.1546 112.668Z" fill="#312F2F"/>
<path d="M63.2422 46.3173C59.4498 42.2989 51.3881 40.6892 43.9941 49.1373C36.6001 40.6892 28.4906 42.2989 24.7459 46.3173C20.7866 50.512 19.9757 57.691 25.5688 63.7186C31.162 69.7462 43.9941 82.9764 43.9941 82.9764C43.9941 82.9764 56.7785 69.8637 62.4193 63.7304C68.0602 57.597 67.2016 50.512 63.2422 46.3173Z" fill="#E77584"/>
<path d="M11.4846 9.71701C11.4214 9.71701 11.3607 9.69225 11.316 9.64818C11.2712 9.60411 11.2461 9.54434 11.2461 9.48201V0.234999C11.2461 0.172675 11.2712 0.112898 11.316 0.068828C11.3607 0.0247581 11.4214 0 11.4846 0C11.5479 0 11.6085 0.0247581 11.6533 0.068828C11.698 0.112898 11.7232 0.172675 11.7232 0.234999V9.48201C11.7232 9.54434 11.698 9.60411 11.6533 9.64818C11.6085 9.69225 11.5479 9.71701 11.4846 9.71701Z" fill="white"/>
<path d="M16.8508 9.71701C16.7876 9.71701 16.7269 9.69225 16.6822 9.64818C16.6375 9.60411 16.6123 9.54434 16.6123 9.48201V0.234999C16.6123 0.172675 16.6375 0.112898 16.6822 0.068828C16.7269 0.0247581 16.7876 0 16.8508 0C16.9141 0 16.9748 0.0247581 17.0195 0.068828C17.0642 0.112898 17.0894 0.172675 17.0894 0.234999V9.48201C17.0894 9.54434 17.0642 9.60411 17.0195 9.64818C16.9748 9.69225 16.9141 9.71701 16.8508 9.71701Z" fill="white"/>
<path d="M22.2175 9.71701C22.1543 9.71701 22.0936 9.69225 22.0489 9.64818C22.0042 9.60411 21.979 9.54434 21.979 9.48201V0.234999C21.979 0.172675 22.0042 0.112898 22.0489 0.068828C22.0936 0.0247581 22.1543 0 22.2175 0C22.2808 0 22.3415 0.0247581 22.3862 0.068828C22.4309 0.112898 22.4561 0.172675 22.4561 0.234999V9.48201C22.4561 9.54434 22.4309 9.60411 22.3862 9.64818C22.3415 9.69225 22.2808 9.71701 22.2175 9.71701Z" fill="white"/>
<path d="M27.6199 9.71701C27.5566 9.71701 27.496 9.69225 27.4512 9.64818C27.4065 9.60411 27.3813 9.54434 27.3813 9.48201V0.234999C27.3813 0.172675 27.4065 0.112898 27.4512 0.068828C27.496 0.0247581 27.5566 0 27.6199 0C27.6831 0 27.7438 0.0247581 27.7885 0.068828C27.8333 0.112898 27.8584 0.172675 27.8584 0.234999V9.48201C27.8584 9.54434 27.8333 9.60411 27.7885 9.64818C27.7438 9.69225 27.6831 9.71701 27.6199 9.71701Z" fill="white"/>
<path d="M32.9509 9.71701C32.8877 9.71701 32.827 9.69225 32.7823 9.64818C32.7375 9.60411 32.7124 9.54434 32.7124 9.48201V0.234999C32.7124 0.172675 32.7375 0.112898 32.7823 0.068828C32.827 0.0247581 32.8877 0 32.9509 0C33.0142 0 33.0749 0.0247581 33.1196 0.068828C33.1643 0.112898 33.1895 0.172675 33.1895 0.234999V9.48201C33.1895 9.54434 33.1643 9.60411 33.1196 9.64818C33.0749 9.69225 33.0142 9.71701 32.9509 9.71701Z" fill="white"/>
<path d="M38.3889 9.71701C38.3257 9.71701 38.265 9.69225 38.2203 9.64818C38.1755 9.60411 38.1504 9.54434 38.1504 9.48201V0.234999C38.1504 0.172675 38.1755 0.112898 38.2203 0.068828C38.265 0.0247581 38.3257 0 38.3889 0C38.4522 0 38.5128 0.0247581 38.5576 0.068828C38.6023 0.112898 38.6274 0.172675 38.6274 0.234999V9.48201C38.6274 9.54434 38.6023 9.60411 38.5576 9.64818C38.5128 9.69225 38.4522 9.71701 38.3889 9.71701Z" fill="white"/>
<path d="M43.7673 9.71709C43.7041 9.71709 43.6434 9.69233 43.5987 9.64826C43.554 9.60419 43.5288 9.54442 43.5288 9.48209V0.235082C43.5288 0.172758 43.554 0.112981 43.5987 0.0689107C43.6434 0.0248407 43.7041 8.26687e-05 43.7673 8.26687e-05C43.7991 -0.00161332 43.8309 0.00330562 43.8606 0.0145152C43.8903 0.0257248 43.9173 0.0429768 43.9398 0.0651456C43.9623 0.0873145 43.9798 0.113901 43.9912 0.14318C44.0026 0.172459 44.0076 0.203776 44.0058 0.235082V9.48209C44.0076 9.5134 44.0026 9.54472 43.9912 9.57399C43.9798 9.60327 43.9623 9.62986 43.9398 9.65203C43.9173 9.6742 43.8903 9.69145 43.8606 9.70266C43.8309 9.71387 43.7991 9.71879 43.7673 9.71709Z" fill="white"/>
<path d="M49.1579 9.71701C49.0947 9.71701 49.034 9.69225 48.9893 9.64818C48.9445 9.60411 48.9194 9.54434 48.9194 9.48201V0.234999C48.9194 0.172675 48.9445 0.112898 48.9893 0.068828C49.034 0.0247581 49.0947 0 49.1579 0C49.2212 0 49.2818 0.0247581 49.3266 0.068828C49.3713 0.112898 49.3965 0.172675 49.3965 0.234999V9.48201C49.3965 9.54434 49.3713 9.60411 49.3266 9.64818C49.2818 9.69225 49.2212 9.71701 49.1579 9.71701Z" fill="white"/>
<path d="M54.5483 9.71706C54.516 9.71865 54.4837 9.71376 54.4534 9.70266C54.423 9.69157 54.3953 9.67451 54.3719 9.65253C54.3485 9.63054 54.3298 9.60409 54.3171 9.57479C54.3043 9.54548 54.2978 9.51394 54.2979 9.48206V0.235049C54.2978 0.203175 54.3043 0.171627 54.3171 0.142322C54.3298 0.113017 54.3485 0.0865657 54.3719 0.0645836C54.3953 0.0426016 54.423 0.0255491 54.4534 0.0144552C54.4837 0.00336129 54.516 -0.00154418 54.5483 4.95428e-05C54.6115 4.95428e-05 54.6722 0.0248076 54.717 0.0688775C54.7617 0.112947 54.7868 0.172725 54.7868 0.235049V9.48206C54.7868 9.54438 54.7617 9.60416 54.717 9.64823C54.6722 9.6923 54.6115 9.71706 54.5483 9.71706Z" fill="white"/>
<path d="M59.927 9.71701C59.8637 9.71701 59.803 9.69225 59.7583 9.64818C59.7136 9.60411 59.6885 9.54434 59.6885 9.48201V0.234999C59.6885 0.172675 59.7136 0.112898 59.7583 0.068828C59.803 0.0247581 59.8637 0 59.927 0C59.9902 0 60.0509 0.0247581 60.0956 0.068828C60.1404 0.112898 60.1655 0.172675 60.1655 0.234999V9.48201C60.1655 9.54434 60.1404 9.60411 60.0956 9.64818C60.0509 9.69225 59.9902 9.71701 59.927 9.71701Z" fill="white"/>
<path d="M65.3175 9.71709C65.2857 9.71879 65.2539 9.71387 65.2242 9.70266C65.1945 9.69145 65.1675 9.6742 65.145 9.65203C65.1225 9.62986 65.105 9.60327 65.0936 9.57399C65.0822 9.54472 65.0772 9.5134 65.0789 9.48209V0.235082C65.0772 0.203776 65.0822 0.172459 65.0936 0.14318C65.105 0.113901 65.1225 0.0873145 65.145 0.0651456C65.1675 0.0429768 65.1945 0.0257248 65.2242 0.0145152C65.2539 0.00330562 65.2857 -0.00161332 65.3175 8.26687e-05C65.3807 8.26687e-05 65.4414 0.0248407 65.4861 0.0689107C65.5309 0.112981 65.556 0.172758 65.556 0.235082V9.48209C65.556 9.54442 65.5309 9.60419 65.4861 9.64826C65.4414 9.69233 65.3807 9.71709 65.3175 9.71709Z" fill="white"/>
<path d="M70.6955 9.71701C70.6323 9.71701 70.5716 9.69225 70.5269 9.64818C70.4821 9.60411 70.457 9.54434 70.457 9.48201V0.234999C70.457 0.172675 70.4821 0.112898 70.5269 0.068828C70.5716 0.0247581 70.6323 0 70.6955 0C70.7588 0 70.8194 0.0247581 70.8642 0.068828C70.9089 0.112898 70.9341 0.172675 70.9341 0.234999V9.48201C70.9341 9.54434 70.9089 9.60411 70.8642 9.64818C70.8194 9.69225 70.7588 9.71701 70.6955 9.71701Z" fill="white"/>
<path d="M76.0862 9.71701C76.0229 9.71701 75.9622 9.69225 75.9175 9.64818C75.8728 9.60411 75.8477 9.54434 75.8477 9.48201V0.234999C75.8477 0.172675 75.8728 0.112898 75.9175 0.068828C75.9622 0.0247581 76.0229 0 76.0862 0C76.1494 0 76.2101 0.0247581 76.2548 0.068828C76.2996 0.112898 76.3247 0.172675 76.3247 0.234999V9.48201C76.3247 9.54434 76.2996 9.60411 76.2548 9.64818C76.2101 9.69225 76.1494 9.71701 76.0862 9.71701Z" fill="white"/>
</g>
<defs>
<clipPath id="clip0_209_514">
<rect width="88" height="129" fill="white"/>
</clipPath>
</defs>
</svg>
