<svg width="36" height="36" viewBox="0 0 36 36" fill="none" xmlns="http://www.w3.org/2000/svg">
<path d="M31.4206 12.4574C31.4055 11.3214 31.1928 10.1966 30.7921 9.13344C30.4446 8.23666 29.9139 7.42223 29.2339 6.74218C28.5538 6.06213 27.7394 5.53141 26.8426 5.18394C25.7931 4.78997 24.6844 4.57695 23.5636 4.55394C22.1206 4.48944 21.6631 4.47144 18.0001 4.47144C14.3371 4.47144 13.8676 4.47144 12.4351 4.55394C11.3148 4.57712 10.2066 4.79014 9.15761 5.18394C8.26069 5.53117 7.44614 6.0618 6.76606 6.74188C6.08597 7.42197 5.55534 8.23652 5.20811 9.13344C4.81335 10.1821 4.60079 11.2906 4.57961 12.4109C4.51511 13.8554 4.49561 14.3129 4.49561 17.9759C4.49561 21.6389 4.49561 22.1069 4.57961 23.5409C4.60211 24.6629 4.81361 25.7699 5.20811 26.8214C5.55592 27.7181 6.08695 28.5323 6.76726 29.2121C7.44757 29.8919 8.2622 30.4223 9.15911 30.7694C10.2053 31.1792 11.3137 31.4075 12.4366 31.4444C13.8811 31.5089 14.3386 31.5284 18.0016 31.5284C21.6646 31.5284 22.1341 31.5284 23.5666 31.4444C24.6873 31.4224 25.7961 31.2098 26.8456 30.8159C27.7421 30.4681 28.5564 29.9372 29.2364 29.2572C29.9164 28.5772 30.4472 27.763 30.7951 26.8664C31.1896 25.8164 31.4011 24.7094 31.4236 23.5859C31.4881 22.1429 31.5076 21.6854 31.5076 18.0209C31.5046 14.3579 31.5046 13.8929 31.4206 12.4574ZM17.9911 24.9029C14.1601 24.9029 11.0566 21.7994 11.0566 17.9684C11.0566 14.1374 14.1601 11.0339 17.9911 11.0339C19.8302 11.0339 21.5941 11.7645 22.8945 13.065C24.195 14.3655 24.9256 16.1293 24.9256 17.9684C24.9256 19.8076 24.195 21.5714 22.8945 22.8719C21.5941 24.1723 19.8302 24.9029 17.9911 24.9029ZM25.2016 12.3944C24.9892 12.3946 24.7788 12.3529 24.5826 12.2718C24.3863 12.1906 24.208 12.0715 24.0578 11.9213C23.9076 11.7711 23.7885 11.5927 23.7073 11.3965C23.6261 11.2002 23.5844 10.9898 23.5846 10.7774C23.5846 10.5652 23.6264 10.355 23.7076 10.1589C23.7889 9.96283 23.9079 9.78466 24.058 9.63457C24.2081 9.48449 24.3863 9.36544 24.5823 9.28422C24.7784 9.20299 24.9886 9.16119 25.2009 9.16119C25.4131 9.16119 25.6233 9.20299 25.8194 9.28422C26.0155 9.36544 26.1936 9.48449 26.3437 9.63457C26.4938 9.78466 26.6129 9.96283 26.6941 10.1589C26.7753 10.355 26.8171 10.5652 26.8171 10.7774C26.8171 11.6714 26.0941 12.3944 25.2016 12.3944Z" fill="#8A8585"/>
<path d="M17.9911 22.4731C20.4788 22.4731 22.4956 20.4564 22.4956 17.9686C22.4956 15.4808 20.4788 13.4641 17.9911 13.4641C15.5033 13.4641 13.4866 15.4808 13.4866 17.9686C13.4866 20.4564 15.5033 22.4731 17.9911 22.4731Z" fill="#8A8585"/>
</svg>
