<svg width="36" height="36" viewBox="0 0 36 36" fill="none" xmlns="http://www.w3.org/2000/svg">
<path d="M25.5 5.25887C25.5 5.05996 25.421 4.86919 25.2803 4.72854C25.1397 4.58789 24.9489 4.50887 24.75 4.50887H21C19.1117 4.41481 17.2629 5.07196 15.8576 6.33674C14.4523 7.60152 13.6047 9.37111 13.5 11.2589V15.3089H9.75C9.55109 15.3089 9.36032 15.3879 9.21967 15.5285C9.07902 15.6692 9 15.86 9 16.0589V19.9589C9 20.1578 9.07902 20.3485 9.21967 20.4892C9.36032 20.6299 9.55109 20.7089 9.75 20.7089H13.5V30.7589C13.5 30.9578 13.579 31.1486 13.7197 31.2892C13.8603 31.4299 14.0511 31.5089 14.25 31.5089H18.75C18.9489 31.5089 19.1397 31.4299 19.2803 31.2892C19.421 31.1486 19.5 30.9578 19.5 30.7589V20.7089H23.43C23.5968 20.7113 23.7596 20.658 23.8927 20.5575C24.0258 20.457 24.1216 20.3149 24.165 20.1539L25.245 16.2539C25.2748 16.1431 25.2789 16.0269 25.2567 15.9143C25.2346 15.8016 25.1869 15.6956 25.1174 15.6043C25.0478 15.513 24.9582 15.4389 24.8555 15.3877C24.7528 15.3365 24.6398 15.3095 24.525 15.3089H19.5V11.2589C19.5373 10.8876 19.7117 10.5435 19.989 10.2939C20.2664 10.0443 20.6269 9.907 21 9.90887H24.75C24.9489 9.90887 25.1397 9.82985 25.2803 9.6892C25.421 9.54855 25.5 9.35778 25.5 9.15887V5.25887Z" fill="#8A8585"/>
</svg>
