<svg width="179" height="107" viewBox="0 0 179 107" fill="none" xmlns="http://www.w3.org/2000/svg">
<g clip-path="url(#clip0_272_94)">
<path d="M85.1089 86.8399C76.0936 91.6516 36.6233 112.743 19.7174 97.2887C0.966379 80.1666 15.9391 29.3974 34.7429 23.0929C37.7304 22.0919 42.651 21.6002 50.6646 18.1231C59.4514 14.2948 62.7904 10.8879 67.6232 8.13085C79.9247 1.10639 97.7619 0.825387 111.557 7.44594C114.843 9.02644 131.995 17.1924 134.544 32.0315C139.271 58.9703 91.699 83.3101 85.1089 86.8399Z" fill="#F0CFD5"/>
<path d="M90.2758 75.3899C103.155 74.4032 115.397 69.3896 125.265 61.06C129.869 57.1439 134.632 52.3673 136.899 46.6599C139.166 40.9525 137.566 34.9993 135.669 29.3271C133.472 22.7416 130.59 16.0508 125.529 11.1337C121.039 7.01915 115.361 4.43103 109.308 3.74048C100.016 2.47761 90.5554 3.61418 81.8278 7.04188C73.1002 10.4696 65.3967 16.0741 59.4517 23.3211C58.1886 25.3051 56.392 26.8935 54.2675 27.9046C52.3238 28.4068 50.3037 28.5438 48.31 28.3085C44.2356 28.1324 40.2012 27.4299 36.3072 26.2187C35.534 25.9904 35.0595 27.167 35.8327 27.3953C41.3539 29.3053 47.2202 30.0118 53.0373 29.4675C55.5614 29.0227 57.8122 27.6114 59.3111 25.5339C61.2344 23.1353 63.3063 20.8596 65.5146 18.7201C74.348 10.6518 85.5943 5.71462 97.5162 4.67122C103.592 4.04591 109.731 4.68572 115.547 6.55028C122.205 9.02876 127.621 14.0244 130.625 20.4587C132.139 23.4743 133.414 26.6039 134.438 29.8188C135.59 32.8306 136.358 35.9753 136.723 39.1788C137.25 46.2033 132.857 51.8404 128.217 56.5468C118.019 66.7941 104.469 73.0282 90.0474 74.108C89.239 74.108 89.3971 75.4251 90.2231 75.3724L90.2758 75.3899Z" fill="#F0CFD5"/>
<path d="M62.2983 18.7729C54.566 20.8685 46.7808 22.73 38.943 24.3573C32.5286 25.6744 25.3586 26.2714 19.7526 29.9417C14.1466 33.612 11.1239 40.1272 9.52475 46.4667C7.92555 52.8063 6.90628 59.5147 5.83429 65.9947C4.83259 72.0358 4.37568 78.2875 6.25606 84.1881C8.33589 90.2031 11.9742 95.5597 16.8002 99.7121C21.1761 103.663 26.3779 107.457 32.6165 106.947C38.8551 106.438 44.3381 102.715 49.0303 99.0448C55.5868 93.7018 61.5705 87.6929 66.8851 81.1149C72.416 74.5611 77.5171 67.6569 82.1566 60.4455C82.5959 59.7606 81.5942 59.0054 81.1549 59.6903C73.7038 71.4577 64.9367 82.3396 55.0229 92.1257C50.3519 97.0074 44.8548 101.026 38.7848 103.997C35.9866 105.338 32.8787 105.903 29.7871 105.63C26.6295 105.082 23.6718 103.714 21.2112 101.661C15.8945 97.8864 11.5958 92.8547 8.69879 87.0154C6.28226 81.2855 5.57435 74.9798 6.66025 68.8572C7.48621 62.7284 8.71637 56.5644 9.8938 50.5234C11.1942 43.8677 13.4085 36.7906 18.6806 32.2598C24.4975 27.3251 33.0558 26.8685 40.2259 25.3583C47.765 23.7778 55.2513 21.9514 62.685 19.9319C63.4758 19.7212 62.9837 18.5621 62.2105 18.7729L62.2983 18.7729Z" fill="#F0CFD5"/>
<path d="M37.1681 97.1833C39.8041 104.208 48.6085 103.681 54.6187 102.452C58.3484 101.571 62.0172 100.451 65.6022 99.0975C69.4497 97.8653 73.1786 96.2902 76.7439 94.3911C83.6679 90.4398 87.6747 83.8544 92.2438 77.5675C97.4105 70.5431 103.614 63.9401 111.821 60.463C111.898 60.4307 111.968 60.3835 112.027 60.3241C112.086 60.2647 112.133 60.1943 112.165 60.1168C112.197 60.0393 112.213 59.9564 112.213 59.8726C112.213 59.7889 112.196 59.7061 112.164 59.6288C112.131 59.5515 112.084 59.4814 112.025 59.4224C111.965 59.3634 111.895 59.3166 111.817 59.2848C111.74 59.253 111.657 59.2368 111.573 59.2371C111.489 59.2374 111.406 59.2541 111.329 59.2864C104.789 62.2864 99.06 66.8016 94.6163 72.4572C89.8187 78.2173 86.2864 85.2417 80.5574 90.194C74.8284 95.1462 67.1487 97.394 60.1193 99.6419C53.9333 101.626 41.5088 105.121 38.3631 96.7443C38.0644 95.9891 36.9045 96.4633 37.1857 97.236L37.1681 97.1833Z" fill="#F0CFD5"/>
<path d="M95.8464 40.4258C88.8169 43.1829 81.9456 45.94 74.758 48.2581C67.5704 50.5761 60.6991 52.7361 53.3885 52.9293C49.7507 53.0346 44.9531 52.7537 42.5455 49.6103C40.138 46.4668 40.9991 42.3048 41.7196 38.9331C43.1999 32.2667 46.2888 26.0631 50.7173 20.8627C60.3712 9.89205 73.8298 2.9887 88.3776 1.54544C102.313 0.140549 116.847 5.7952 122.558 19.2997C128.832 34.1038 123.437 50.1722 115.968 63.3958C115.564 64.0982 116.583 64.8533 116.987 64.1509C124.017 51.7703 129.148 37.3526 125.212 23.1105C123.393 16.1272 119.136 10.0234 113.209 5.90056C107.289 2.05834 100.375 0.0260093 93.3158 0.0527274C77.7648 0.230462 62.9143 6.54264 52.0002 17.6139C46.9508 22.7799 43.2354 29.0964 41.1748 36.018C39.5756 41.5497 38.1346 49.54 44.3556 52.7361C47.973 54.2273 51.9342 54.6834 55.7961 54.0532C60.2049 53.5811 64.5591 52.6933 68.8005 51.4015C78.1268 48.6157 87.301 45.3449 96.2857 41.6024C96.4418 41.5395 96.5666 41.4172 96.6325 41.2624C96.6984 41.1077 96.7001 40.933 96.6372 40.777C96.5742 40.621 96.4519 40.4963 96.297 40.4304C96.1421 40.3646 95.9673 40.3629 95.8112 40.4258L95.8464 40.4258Z" fill="#F0CFD5"/>
<path d="M63.0717 91.2476C74.2279 87.0144 85.7049 83.6789 97.393 81.2729C107.726 79.1831 119.009 79.1129 127.62 72.2816C131.688 68.9385 135.102 64.872 137.689 60.2873C139.833 56.617 142.487 52.1741 142.54 47.8013C142.592 43.4286 138.656 39.8461 135.194 37.37C131.26 34.5848 126.836 32.5652 122.154 31.4168C111.065 28.5894 99.4667 30.4158 88.7643 34.0685C87.9911 34.3319 88.4831 35.491 89.2564 35.2276C98.4825 32.1017 108.341 30.3456 118.042 31.9261C122.824 32.6581 127.433 34.2528 131.644 36.6324C135.457 38.8627 141.028 42.533 141.274 47.3974C141.52 52.2619 137.988 57.6356 135.528 61.4463C132.899 65.712 129.468 69.4276 125.423 72.3869C121.043 75.2379 116.063 77.0408 110.872 77.6553C105.793 78.4806 100.732 79.2709 95.6883 80.3245C84.4279 82.7276 73.3658 85.9799 62.5972 90.0534C62.4411 90.1163 62.3163 90.2386 62.2504 90.3934C62.1845 90.5482 62.1828 90.7228 62.2457 90.8788C62.3086 91.0348 62.431 91.1595 62.5859 91.2253C62.7408 91.2912 62.9155 91.2929 63.0717 91.2301L63.0717 91.2476Z" fill="#F0CFD5"/>
<path d="M75.9003 82.6076C87.3407 79.6574 98.746 76.6719 109.923 72.7031C115.559 70.7117 121.074 68.3956 126.442 65.7665C131.58 63.5134 136.411 60.616 140.817 57.144C148.075 50.7517 144.56 38.3711 140.343 31.1886C135.071 22.4081 125.915 18.4744 115.933 18.5622C103.491 18.6675 91.7165 23.9358 80.9966 29.7837C80.2761 30.17 80.7506 31.3467 81.4711 30.9603C90.5743 26.0081 100.205 21.5651 110.573 20.2129C120.133 18.9661 130.502 20.6519 136.933 28.4666C140.216 32.6291 142.376 37.5627 143.207 42.7965C144.156 48.1702 143.77 53.3332 139.183 56.8454C134.841 60.0111 130.183 62.7183 125.282 64.9235C120.608 67.1889 115.81 69.1909 110.925 70.9822C99.4489 75.1968 87.5867 78.2876 75.7773 81.3432C75.004 81.5364 75.1622 82.8008 75.953 82.59L75.9003 82.6076Z" fill="#F0CFD5"/>
<path d="M77.0074 73.7041C89.7488 72.415 102.154 68.8459 113.631 63.1674C124.281 57.8991 135.879 50.6288 140.325 38.9857C142.183 34.3812 142.509 29.302 141.257 24.4978C139.605 18.7026 135.369 13.8206 130.923 9.92203C128.928 8.11688 126.574 6.75226 124.015 5.91712C121.457 5.08199 118.751 4.79509 116.074 5.07513C109.972 5.52574 103.981 6.94247 98.3242 9.27227C84.4235 14.9621 73.0709 25.2178 63.5285 36.615C63.0013 37.2296 64.0205 37.9847 64.5477 37.3701C72.7019 27.6412 82.1214 18.7202 93.5267 12.8899C98.6416 10.2208 104.108 8.28758 109.765 7.14739C115.388 6.04104 121.697 5.26832 126.829 8.37664C131.833 11.5508 135.907 15.992 138.638 21.249C141.049 26.1772 141.416 31.8573 139.657 37.054C135.985 48.82 124.562 56.1956 114.141 61.5167C102.506 67.4407 89.8744 71.162 76.8844 72.4924C76.076 72.4924 76.2518 73.8446 77.0602 73.7568L77.0074 73.7041Z" fill="#F0CFD5"/>
<path d="M60.1546 20.7748C51.1745 27.3602 39.5232 28.73 29.5413 33.2784C20.4382 37.4404 12.284 43.657 7.6446 52.701C3.88385 60.0591 1.52899 70.7011 7.13497 77.7958C9.99948 81.4134 14.5686 83.7491 18.7863 85.4349C23.108 87.1302 27.6443 88.2177 32.2653 88.6662C43.3718 89.8076 54.4783 87.6125 65.1279 84.5744C65.9012 84.3637 65.4091 83.1871 64.6359 83.4154C55.3294 86.3593 45.611 87.7941 35.8503 87.6652C27.1513 87.2789 17.7143 85.031 10.7376 79.5519C2.53068 73.107 4.63952 61.341 8.82204 53.2102C13.4966 44.1136 21.8968 38.0374 31.0878 34.0159C40.9115 29.7134 52.1762 28.2559 60.963 21.811C61.0958 21.7085 61.1825 21.5575 61.2039 21.3912C61.2253 21.2249 61.1797 21.0569 61.0772 20.9241C60.9747 20.7914 60.8236 20.7048 60.6571 20.6834C60.4907 20.662 60.3226 20.7075 60.1897 20.81L60.1546 20.7748Z" fill="#F0CFD5"/>
<path d="M55.1636 18.4568C45.34 24.6032 33.425 25.7797 23.3553 31.3642C13.2857 36.9486 7.62695 46.9409 3.33899 57.1088C-0.456917 66.1001 -1.93311 75.7588 3.97163 84.1881C7.00812 88.9339 11.5691 92.507 16.9058 94.3209C22.0695 95.6277 27.4205 96.0317 32.7221 95.515C45.2697 94.6721 57.3252 90.2467 68.4669 84.6447C69.1874 84.2759 68.6953 83.0993 67.9748 83.4681C58.6517 88.3792 48.6104 91.7871 38.2226 93.5658C33.0544 94.3701 27.805 94.5176 22.5997 94.0048C16.6686 93.5266 11.1698 90.716 7.31062 86.1901C3.46568 82.1815 1.28087 76.8677 1.195 71.3158C1.41406 66.6361 2.52341 62.0409 4.4637 57.7761C8.71652 47.6082 14.4982 37.4755 24.5328 32.1194C34.5673 26.7632 46.2714 25.4461 56.0071 19.37C56.6925 18.9485 56.0071 17.9475 55.2339 18.369L55.1636 18.4568Z" fill="#F0CFD5"/>
<path d="M64.9172 22.4782C70.1149 17.994 76.2229 14.6879 82.821 12.7871C89.4191 10.8864 96.351 10.4361 103.14 11.4674C109.708 12.4368 115.983 14.8347 121.522 18.4918C123.156 19.5493 124.518 20.9762 125.498 22.6572C126.478 24.3381 127.048 26.226 127.163 28.168C127.451 31.3855 127.315 34.6269 126.759 37.8091C125.711 44.0186 123.265 49.9093 119.606 55.0365C115.916 60.3049 110.257 66.2932 103.439 66.4513C97.4284 66.5918 92.0333 62.8161 86.849 60.3224C81.2901 57.6671 75.3678 55.8502 69.2754 54.9312C66.1936 54.4545 63.0799 54.2138 59.9614 54.2111C56.8684 54.2111 53.5822 54.6677 50.5771 53.6492C46.7109 52.3497 45.305 48.5038 43.4246 45.2199C42.4756 43.4637 41.3685 41.1457 39.0839 41.4969C36.0985 42.3091 33.275 43.6278 30.7364 45.3955C27.5539 47.2526 24.5737 49.4361 21.8442 51.9106C16.9939 56.2834 13.7252 61.1829 13.7427 67.8737C13.9056 73.1567 15.4791 78.3002 18.3002 82.7711C21.1213 87.2421 25.0873 90.8781 29.7875 93.3023C40.5601 98.9218 52.7738 95.8662 63.4761 91.7744C77.4597 86.3916 90.9781 79.8722 103.895 72.2816C110.14 68.6406 116.232 64.7712 122.172 60.6736C125.277 58.5312 128.346 56.3243 131.381 54.0531C134.354 51.9983 137.189 49.7516 139.869 47.3272C144.104 43.1652 138.902 38.6695 136.038 35.4383C132.129 30.8639 127.639 26.8198 122.682 23.4089C117.936 20.1628 112.538 17.9931 106.865 17.0518C100.328 16.0508 93.6325 16.9465 87.1478 17.9123C73.0149 19.8512 59.1743 23.5198 45.9376 28.8353C39.7953 31.181 34.2711 34.8992 29.7875 39.7056C25.7593 44.4735 22.7349 50.0043 20.8952 55.9673C20.0364 58.8949 19.3672 61.8748 18.8918 64.8883C18.0923 67.7156 17.9362 70.6857 18.4349 73.5811C19.9462 78.8494 26.923 78.1821 31.2461 78.1646C43.2367 78.0897 55.1253 75.9572 66.3933 71.8601C77.8771 67.6918 88.5722 61.6117 98.0259 53.8775C102.585 50.1467 106.818 46.0342 110.679 41.5847C112.759 39.3704 114.619 36.959 116.232 34.3846C116.804 33.6273 117.078 32.6861 117 31.7404C116.922 30.7946 116.499 29.9106 115.81 29.2568C113.807 27.606 110.661 27.887 108.254 28.0275C105.171 28.2476 102.12 28.7891 99.1506 29.6431C92.7887 31.605 86.6738 34.292 80.9267 37.651C67.8699 44.8062 55.865 53.7297 45.2523 64.1683C40.3717 68.8139 36.1235 74.0805 32.6168 79.8328C32.5623 79.9122 32.526 80.0027 32.5107 80.0977C32.4954 80.1927 32.5014 80.29 32.5284 80.3824C32.5553 80.4748 32.6024 80.5601 32.6663 80.6321C32.7302 80.7041 32.8094 80.761 32.898 80.7987C35.9207 82.3266 39.9275 80.7987 43.0731 80.0787C47.3611 79.189 51.6432 78.2055 55.9195 77.1285C64.232 75.2263 72.3329 72.4965 80.1008 68.9801C87.6837 65.5503 94.4566 60.5595 99.9765 54.3341C101.734 52.2443 104.3 49.575 103.491 46.572C102.683 43.5691 99.256 40.7769 96.5497 39.1612C90.2583 35.4032 82.6841 35.1749 75.6195 36.3339C67.9283 37.6344 60.5202 40.2545 53.7228 44.0784C47.1506 47.7559 41.2163 52.4703 36.1491 58.0395C33.558 60.7947 31.3044 63.8484 29.436 67.1362C28.0125 69.7352 26.3255 73.3704 27.3623 76.3909C28.3992 79.4114 32.1599 80.6407 35.0244 81.6592C38.2802 82.7336 41.5954 83.619 44.9535 84.311C51.8158 85.7748 58.8419 86.324 65.8486 85.9441C81.0484 85.0066 95.3998 78.6217 106.268 67.9615C112.021 62.5311 116.837 56.188 120.52 49.1887C123.402 43.4989 124.175 36.8959 118.429 32.6637C112.682 28.4314 104.985 27.167 98.2895 26.8158C91.4108 26.5087 84.5298 27.3697 77.9392 29.3622C61.8242 34.1037 48.064 44.7281 36.1316 56.178C29.9717 61.7776 24.6456 68.2295 20.3153 75.3372C18.6887 77.7718 17.7756 80.6125 17.6792 83.5383C17.825 85.2166 18.3823 86.8331 19.3018 88.2451C20.2213 89.6571 21.4748 90.821 22.9513 91.6339C25.9408 93.1969 29.1832 94.2195 32.529 94.6544C33.3373 94.7949 33.4779 93.5481 32.6871 93.39C29.0833 93.0074 25.6148 91.806 22.5471 89.8778C20.9447 88.7312 19.7843 87.07 19.2598 85.1715C18.7353 83.2731 18.8783 81.2523 19.6651 79.4465C22.1957 72.7908 27.4853 66.8376 32.3181 61.7625C42.6162 50.857 54.6014 40.7769 68.098 34.3846C79.7142 28.9055 93.0525 26.3065 105.776 28.9934C112.173 30.3632 121.908 33.2959 121.592 41.3915C121.276 47.8189 116.32 54.1585 112.577 58.9527C103.667 70.3674 91.4885 79.4289 77.2187 82.8534C64.9084 85.6098 52.1016 85.2233 39.9802 81.7295C36.7491 81.0952 33.6326 79.9762 30.7364 78.4104C26.6769 75.706 28.9791 70.4903 30.9825 67.1362C34.6031 61.2209 39.2649 56.0091 44.7426 51.7526C55.2868 43.1652 69.7851 36.6676 83.6858 37.0364C87.1242 37.0679 90.5224 37.7781 93.6852 39.1261C96.8133 40.531 100.715 43.1301 102.015 46.4492C103.316 49.7682 98.3774 54.4043 96.1104 56.617C93.4615 59.2197 90.5524 61.5441 87.429 63.5537C74.5299 71.8952 58.9421 75.4074 44.11 78.5684C42.3526 78.9723 40.4547 79.3411 38.627 79.7099C36.9118 80.287 35.0499 80.2561 33.3549 79.6221L33.6361 80.588C40.5777 68.7166 51.6315 59.1458 62.5271 50.9799C73.0713 42.9896 85.162 35.3505 97.938 31.2939C100.999 30.3064 104.157 29.647 107.357 29.3271C109.022 29.1426 110.702 29.1426 112.366 29.3271C113.772 29.5202 114.633 29.7661 115.283 31.0832C115.933 32.4003 115.512 33.2256 114.721 34.4373C111.391 39.2403 107.542 43.663 103.245 47.6257C86.2558 63.8155 64.3811 73.93 41.0346 76.3909C38.1877 76.6894 35.3232 76.8475 32.4587 76.9002C29.4833 77.0797 26.4974 76.9502 23.5488 76.5138C19.05 75.6182 19.1379 71.4211 19.6826 67.7332C20.1375 64.5974 20.7949 61.4943 21.6509 58.4434C23.2651 52.5141 25.9969 46.9472 29.6996 42.0413C34.1061 36.7412 39.8 32.6598 46.2364 30.1875C58.8796 25.0492 72.0966 21.4525 85.6013 19.4752C92.1318 18.1494 98.8094 17.6948 105.46 18.123C111.425 18.8789 117.125 21.0463 122.084 24.4451C127.04 27.8511 131.525 31.8958 135.423 36.4744C137.039 38.3183 140.818 41.655 140.396 44.254C140.132 46.0101 138.463 47.0637 137.162 48.0999C135.862 49.136 134.192 50.453 132.699 51.6121C121.361 60.2844 109.383 68.0863 96.866 74.9508C84.9309 81.6279 72.4639 87.3078 59.5924 91.9325C48.2749 95.8486 35.8855 97.2008 25.9388 89.2807C17.152 82.2563 10.7904 67.5927 18.3998 57.4951C22.9345 51.8767 28.7168 47.3913 35.288 44.3945C36.0085 44.0608 36.7291 43.7272 37.4496 43.4286C38.5919 42.9369 38.8203 42.7086 40.0329 43.2003C42.0187 44.0081 42.7392 46.4492 43.7234 48.258C44.7738 50.7 46.53 52.7729 48.767 54.2111C53.301 56.6873 59.522 55.2824 64.4427 55.6512C70.5654 56.1046 76.5847 57.4782 82.2975 59.7254C91.6642 63.4132 101.189 71.6669 111.259 65.1518C120.344 59.2863 126.284 48.4511 128.024 37.9847C128.85 33.0149 129.325 26.7104 126.794 22.1797C124.263 17.6489 118.007 14.681 113.104 12.8371C102.367 8.77953 90.5388 8.64891 79.7142 12.4683C74.0384 14.5123 68.7851 17.5775 64.2142 21.5123C63.5991 22.0392 64.3724 23.0402 64.9875 22.5133L64.9172 22.4782Z" fill="#DFAFAF"/>
<path d="M52.8968 13.3639C54.1445 23.9006 58.6785 33.3836 64.0209 42.3574C69.9035 52.7892 76.7898 62.6232 84.5821 71.7196C87.921 75.425 92.1563 79.868 96.9715 81.589C98.1138 82.0104 99.6427 82.186 100.398 80.9919C101.154 79.7977 100.082 78.024 99.256 76.9177C95.3932 72.0859 91.1756 67.5485 86.6382 63.343C82.3385 59.0346 78.238 54.5682 74.3366 49.9438C65.1632 39.1437 56.9212 27.5885 48.6967 16.0684C48.6376 15.9918 48.5617 15.9299 48.4749 15.8872C48.3881 15.8446 48.2926 15.8224 48.1959 15.8224C48.0991 15.8224 48.0037 15.8446 47.9168 15.8872C47.83 15.9299 47.7541 15.9918 47.695 16.0684C44.356 21.4772 47.695 28.8353 50.085 33.9983C53.5868 41.3231 57.6465 48.3683 62.2284 55.0716C66.9671 62.2293 72.1313 69.0964 77.6932 75.6358C80.0853 78.4941 82.6562 81.198 85.3904 83.7314C87.3763 85.4875 89.9244 88.1217 92.8592 87.3666C92.9964 87.3457 93.123 87.2804 93.2194 87.1806C93.3157 87.0808 93.3766 86.9521 93.3926 86.8144C93.4086 86.6766 93.3788 86.5374 93.3078 86.4183C93.2368 86.2991 93.1286 86.2065 92.9998 86.1549C80.2238 80.026 72.5968 67.7332 66.6394 55.3175C60.9455 43.253 56.9739 30.3456 52.2817 17.8772C51.2823 14.8157 50.1089 11.8137 48.767 8.88587C47.9938 7.34049 46.8339 7.12976 45.5335 8.2888C41.7727 11.801 43.8991 19.3172 44.9535 23.4967C48.0998 35.8973 53.3098 47.6811 60.3656 58.3556C64.4314 64.5539 69.0993 70.3361 74.3015 75.6182C78.8106 80.6135 84.4168 84.4965 90.6801 86.9627C90.7956 87.0102 90.9226 87.0226 91.0451 86.9981C91.1676 86.9736 91.2801 86.9135 91.3685 86.8252C91.4568 86.7369 91.517 86.6245 91.5415 86.5021C91.566 86.3797 91.5537 86.2527 91.5061 86.1373C81.2431 61.7097 65.3214 39.7934 58.2216 14.1366L57.0266 14.5406C60.755 26.5286 66.0744 37.9631 72.8429 48.5389C80.0656 59.8483 88.9403 69.9459 97.7799 80.0085L98.6585 79.1128C94.5911 75.5109 90.9953 71.4102 87.9562 66.9079C84.7578 62.6932 81.6356 58.42 78.5895 54.0882C75.3911 49.5223 72.2688 44.9038 69.2227 40.2325C66.4475 35.6658 63.4202 31.257 60.1547 27.0265C58.6082 25.1299 55.8843 22.5133 53.2307 24.0411C50.1026 25.7972 51.3679 30.609 52.3872 33.2607C54.3052 37.7996 56.7029 42.1208 59.5396 46.1506C62.5799 50.7692 65.7959 55.2648 69.0646 59.7078C76.3752 69.6474 84.0959 79.2709 92.2266 88.5783L92.2266 87.8056C90.891 89.8251 85.039 84.5568 83.9846 83.5383C81.6041 81.1817 79.5101 78.5527 77.7459 75.706C74.3023 70.2921 71.2824 64.6206 68.7131 58.742C66.139 53.0027 63.9434 47.1012 62.1405 41.0754C60.5407 34.8366 58.509 28.7165 56.0601 22.7592C54.3027 18.843 51.4382 12.521 46.377 12.3805C42.0363 12.24 41.1049 16.4899 41.9484 19.9318C43.4949 25.9026 47.2205 31.5573 50.4189 36.7379C53.9337 42.3925 57.7471 47.9067 61.7012 53.2804C65.6553 58.6541 69.8378 63.9225 74.1785 69.0854C78.2748 74.1703 82.7577 78.9318 87.5871 83.3275C88.5185 84.1354 89.9596 85.3822 91.2776 84.6446C92.5956 83.9071 92.0333 82.0456 91.2776 81.0095C87.6575 76.2855 81.7879 73.5108 77.0957 69.9986C66.1122 61.7975 58.8718 49.8033 53.1077 37.6159C51.7018 34.6305 50.3838 31.6275 49.0658 28.6246L47.4314 24.8489C47.0962 23.5422 46.4982 22.3173 45.6741 21.2489C44.4263 20.1426 42.9501 21.0206 42.1593 22.1797C41.0779 24.1441 40.741 26.4321 41.2103 28.6246C42.4109 35.15 44.679 41.4332 47.9235 47.2218C50.975 53.1512 54.5012 58.8243 58.4676 64.1859C66.5153 75.3191 76.7456 84.6997 88.5361 91.7569C89.0985 92.0905 89.9244 91.4407 89.4148 90.8612C87.1654 88.3324 83.7737 86.8397 81.0146 84.8905C78.0975 82.8353 75.3206 80.5884 72.7023 78.1646C66.9478 72.879 61.9401 66.8352 57.8174 60.1995C50.0541 47.5204 45.3995 33.1873 44.233 18.3689L43.1083 18.8431C50.6825 30.3456 58.2743 41.8832 66.3406 52.9994C70.2771 58.4083 74.2839 63.8171 78.6422 68.8045C80.6189 71.0782 82.7254 73.236 84.9511 75.2669C86.8361 77.2955 89.2439 78.7659 91.9103 79.5168C92.4726 79.6397 92.7889 78.9021 92.4902 78.4982L73.3701 52.5429C66.8994 44.1147 60.8694 35.3575 55.3044 26.3065C55.2358 26.2181 55.145 26.1495 55.0412 26.1076C54.9374 26.0657 54.8243 26.0521 54.7135 26.0682C54.6027 26.0843 54.4982 26.1295 54.4106 26.1991C54.323 26.2687 54.2554 26.3603 54.2148 26.4646C52.8617 31.3641 55.3571 36.7729 57.4132 41.1457C60.1359 46.8887 63.1447 52.4919 66.4285 57.9341C69.7675 63.5185 73.3642 68.9274 77.2187 74.1606C79.1518 76.7831 81.1435 79.3528 83.1937 81.8699C84.213 83.1343 85.2499 84.3812 86.3043 85.6105C87.6702 86.8234 88.7865 88.2907 89.5905 89.9305L90.1002 89.0524C87.4641 89.4563 85.408 87.4895 83.6858 85.7509C81.8277 83.8457 80.0681 81.847 78.4137 79.7626C75.0325 75.4597 71.9331 70.9429 69.1348 66.2405C63.4937 56.898 58.5907 47.1691 52.5278 38.1427C52.106 37.5105 51.2449 38.1427 51.4382 38.7749C53.2765 44.0659 55.774 49.1046 58.8718 53.7721C62.069 59.0036 65.5907 64.03 69.416 68.822C76.3225 77.2689 84.7754 84.627 95.0559 88.631C95.5304 88.8066 96.1279 88.2973 95.8643 87.8056C90.3286 77.146 82.7896 67.8035 75.6371 58.2327C72.2278 53.6492 68.9064 48.9955 65.9716 44.1838C64.4251 41.5672 62.9665 38.9154 61.6836 36.1232C61.3146 35.3505 57.835 27.0792 58.3622 26.9563C59.153 26.7456 58.9949 25.4987 58.204 25.6919C56.4467 26.1485 57.2023 28.168 57.6417 29.4499C58.6192 32.3766 59.7934 35.2338 61.1564 38.0022C64.0449 43.7207 67.395 49.1945 71.1734 54.3692C79.2221 65.4678 88.3428 76.0045 94.7396 88.2095L95.548 87.3842C85.2323 83.3275 76.8848 75.8816 69.8554 67.3293C66.373 62.9405 63.1458 58.3553 60.1899 53.5965C56.9769 48.821 54.3956 43.6503 52.5102 38.213L51.4206 38.8452C58.0459 48.8374 63.3531 59.62 69.7323 69.7528C72.7992 74.7569 76.2854 79.492 80.1535 83.907C82.6665 86.7168 85.9352 90.9315 90.188 90.3168C90.2845 90.3024 90.3765 90.2664 90.4572 90.2116C90.5379 90.1568 90.6052 90.0846 90.6541 90.0003C90.7031 89.9159 90.7324 89.8217 90.7399 89.7245C90.7475 89.6273 90.733 89.5296 90.6977 89.4388C89.9772 87.0329 87.183 84.8729 85.6716 82.9763C83.6682 80.6348 81.7293 78.1997 79.8548 75.6709C76.176 70.8123 72.7199 65.7956 69.4863 60.621C66.2528 55.4463 63.1598 49.9555 60.2074 44.1486C57.7823 39.3017 53.7755 32.5231 55.322 26.9211L54.2324 27.0792C59.8104 36.1341 65.8581 44.8915 72.3508 53.3155C78.7007 61.979 85.0565 70.6191 91.4182 79.2358L91.9981 78.2172C88.624 77.4972 85.9001 74.5294 83.5452 72.1937C81.454 70.104 79.4857 67.8913 77.5878 65.6083C73.4755 60.6385 69.6269 55.4404 65.8486 50.2072C58.2743 39.6705 51.157 28.9055 44.0397 18.0879C43.6707 17.5259 42.8623 17.9826 42.915 18.5621C44.0786 33.0808 48.5316 47.1449 55.9371 59.6902C59.8377 66.1787 64.5634 72.1347 69.996 77.4094C72.6601 80.0082 75.4958 82.4255 78.484 84.6446C80.0129 85.7861 81.5945 86.8749 83.2113 87.8934C85.0298 88.8544 86.704 90.0663 88.1847 91.4935L89.0633 90.5978C69.9257 79.3587 54.8123 60.9722 46.1134 40.6364C45.0853 38.1458 44.2108 35.5947 43.4949 32.9973C42.5124 30.3699 42.1457 27.5523 42.4229 24.7611C42.4229 24.3046 43.0907 22.1445 43.7409 22.1094C44.3912 22.0743 45.2874 23.1104 45.6565 23.6724C46.2922 24.8873 46.8327 26.1496 47.2733 27.448C48.5737 30.4685 49.8917 33.489 51.28 36.4744C56.0425 46.7477 61.6661 56.8453 69.6621 64.9937C73.4893 68.6821 77.6682 71.9876 82.1393 74.8631C84.5056 76.3793 86.729 78.1074 88.7822 80.026C89.1688 80.3948 90.1705 81.1499 90.3286 81.6592L90.6098 82.028C90.1002 83.1168 89.573 83.3451 89.0282 82.6953C87.5488 81.6908 86.233 80.4647 85.1268 79.0601C76.8429 70.5503 69.2064 61.4341 62.2811 51.7877C58.7664 47.1047 55.4626 42.2754 52.3696 37.2998C48.9038 32.207 45.999 26.7548 43.7058 21.0382C42.8974 18.8079 41.9484 15.0849 44.8129 13.8556C48.5034 12.24 51.3503 16.5776 52.8792 19.124C55.5819 24.0613 57.6711 29.31 59.1003 34.7534C62.4055 46.869 67.0255 58.5874 72.878 69.7001C75.4671 74.8176 78.7621 79.5467 82.6665 83.749C84.2833 85.3822 91.014 91.8446 93.3162 88.3851C93.3975 88.276 93.4414 88.1436 93.4414 88.0075C93.4414 87.8715 93.3975 87.7391 93.3162 87.63C86.8608 80.2426 80.6514 72.6328 74.6881 64.8005C68.7256 57.1872 63.1647 49.268 58.0283 41.0754C55.7613 37.37 52.4047 32.4529 52.5805 27.9046C52.5805 26.2889 53.3537 24.6382 55.2693 24.8138C56.2097 24.9584 57.0785 25.4017 57.7471 26.0782C59.5084 27.894 61.0426 29.9166 62.3163 32.1017C67.7992 39.934 72.755 48.1174 78.2731 55.9146C81.413 60.3517 84.6348 64.7303 87.9386 69.0503C90.7709 73.1555 94.1065 76.8899 97.8677 80.1665C98.4125 80.6055 99.2209 79.8153 98.7464 79.2709C90.0826 69.4015 81.3837 59.4971 74.1433 48.4511C67.2561 37.7777 61.8581 26.2154 58.0986 14.084C57.8526 13.2937 56.7279 13.803 56.9387 14.5757C63.9682 40.3027 79.9602 62.2366 90.2232 86.5763L91.0316 85.7509C85.2963 83.5352 80.1359 80.0534 75.9358 75.5655C71.609 71.2602 67.6417 66.6085 64.0736 61.6571C56.9125 51.7294 51.3889 40.7196 47.7126 29.0461C46.6911 25.9347 45.8694 22.7614 45.2523 19.5455C44.7426 16.7357 44.0748 13.1181 45.3753 10.4313C45.8146 9.5532 46.4297 8.25367 47.4841 9.3249C47.8767 9.99403 48.1726 10.7153 48.3628 11.4674L49.9269 15.4362C51.0867 18.4391 52.1939 21.4772 53.2834 24.5153C57.3781 35.8949 61.2091 47.3448 66.5867 58.2502C72.4914 70.1391 80.0832 81.466 92.4023 87.3666L92.5429 86.1549C89.3269 86.9627 85.5135 82.4144 83.5804 80.4124C81.0498 77.866 78.73 75.144 76.4455 72.3694C71.8524 66.8096 67.5471 61.0185 63.5464 55.019C59.4772 48.995 55.7742 42.7319 52.4575 36.2637C50.9927 33.3016 49.7589 30.231 48.767 27.0792C47.7302 23.8129 46.7988 19.9669 48.767 16.8411L47.7477 16.8411C54.2148 25.8675 60.6644 34.929 67.5884 43.6218C74.4743 52.1945 81.8437 60.3678 89.6608 68.102C91.4182 69.8581 93.0526 71.6142 94.6693 73.3704C95.5656 74.3713 96.4267 75.3899 97.2702 76.4436C97.6041 76.8475 97.938 77.2689 98.2543 77.708C99.0627 78.8143 100.012 80.6231 97.1648 80.307C95.9315 79.8778 94.792 79.216 93.8082 78.3577C92.7785 77.6247 91.7873 76.8392 90.8383 76.0045C88.7753 74.2504 86.8484 72.3424 85.0741 70.2972C78.1579 62.0577 71.9555 53.2454 66.5339 43.9555C60.6644 34.4549 55.4977 24.3046 54.2324 13.083C54.1963 12.9295 54.104 12.795 53.9737 12.706C53.8435 12.617 53.6846 12.5798 53.5283 12.6018C53.3721 12.6238 53.2297 12.7033 53.1291 12.8249C53.0285 12.9464 52.977 13.1011 52.9847 13.2586L52.8968 13.3639Z" fill="#DFAFAF"/>
</g>
<g clip-path="url(#clip1_272_94)">
<path d="M178.009 90.7288C176.504 90.1774 174.885 89.9778 173.285 90.1463L171.693 89.581C171.672 88.9947 171.516 88.4205 171.234 87.9012C170.952 87.382 170.552 86.9313 170.065 86.5828C168.773 85.7604 166.898 86.223 165.482 86.3429L161.944 86.6856C160.658 86.3815 159.351 86.1696 158.034 86.0517C156.11 85.9217 154.183 86.2758 152.443 87.0796C151.841 87.1793 151.249 87.3283 150.673 87.525C149.732 87.5531 148.792 87.6332 147.86 87.7649C145.614 88.0945 143.474 88.9083 141.597 90.1463L134.767 91.5169C132.251 91.5155 129.738 91.6872 127.248 92.0309C125.513 91.8709 123.77 91.8137 122.028 91.8596C121.444 91.7225 120.843 91.5855 120.259 91.4827C119.175 91.0617 118.056 90.7294 116.915 90.489L114.367 89.9921C112.85 89.2682 111.107 89.1215 109.484 89.581C108.611 89.6033 107.744 89.724 106.9 89.9407C105.529 90.4487 104.295 91.2527 103.292 92.2918C102.29 93.3309 101.545 94.5776 101.115 95.9371C100.124 98.2158 99.5223 101.248 101.415 103.27C103.309 105.292 106.723 104.983 109.448 104.983C115.38 104.895 121.257 103.859 126.841 101.916C129.105 101.591 131.352 101.197 133.599 100.786L135.05 100.529C137.74 100.717 140.358 100.854 143.118 101.008L144.481 101.368C150.726 102.979 157.432 104.007 163.766 102.276C166.056 101.704 168.208 100.703 170.1 99.3294C171.147 99.1325 172.172 98.8399 173.161 98.4556C175.006 97.7289 176.485 96.3335 177.284 94.5665C177.72 94.2521 178.118 93.8899 178.469 93.4872C178.671 93.2953 178.822 93.0595 178.909 92.7996C178.997 92.5396 179.02 92.263 178.975 91.993C178.93 91.7229 178.819 91.4672 178.651 91.2473C178.483 91.0274 178.263 90.8496 178.009 90.7288ZM175.992 93.8984C174.982 94.3785 173.911 94.7298 172.807 94.9434C172.816 94.8522 172.816 94.7605 172.807 94.6693C173.219 94.1788 173.477 93.5842 173.55 92.9561C173.908 92.6843 174.198 92.339 174.4 91.9452L174.701 92.0823C175.514 92.4935 176.098 93.0589 175.992 93.8984ZM106.193 94.7892C106.147 95.7295 106.248 96.671 106.493 97.5819C106.647 98.1168 106.861 98.6338 107.13 99.1238C107.14 99.424 107.206 99.7201 107.325 99.9975C106.839 99.7872 106.41 99.4703 106.072 99.0719C105.735 98.6734 105.497 98.2044 105.379 97.7018C105.298 97.1882 105.328 96.6639 105.468 96.1624C105.609 95.6609 105.855 95.1932 106.193 94.7892ZM109.554 90.9173C110.085 90.9173 110.616 90.9173 111.129 90.9173H111.324C110.433 91.0059 109.554 91.1898 108.705 91.4655C108.953 91.2365 109.241 91.051 109.554 90.9173ZM167.641 98.2843C166.809 98.4042 165.872 98.4899 165.111 98.5584C165.832 98.3204 166.526 98.0103 167.181 97.6333C167.783 97.4448 168.366 97.2392 168.95 97.0165C168.563 97.4844 168.124 97.9096 167.641 98.2843ZM138.66 98.4385L137.828 98.1986H138.465L139.013 98.3357H138.854L138.66 98.4385ZM109.607 93.7613C111.102 92.941 112.811 92.56 114.526 92.6648C113.223 92.9557 112.01 93.543 110.987 94.3781C110.529 94.7857 110.146 95.2667 109.855 95.8001C109.252 95.9798 108.697 96.2838 108.227 96.691C108.025 96.4243 107.931 96.0952 107.962 95.7658C108.061 95.323 108.269 94.9097 108.568 94.5608C108.866 94.212 109.247 93.9378 109.678 93.7613H109.607ZM157.379 98.2158H156.654L159.361 98.0102C158.794 98.0787 158.157 98.1472 157.503 98.2158H157.379ZM167.641 95.7829L165.553 96.0571C161.047 96.6167 156.524 96.9765 151.983 97.1364H150.673C152.796 96.5882 154.902 95.9714 156.99 95.2861C159.626 95.2861 162.298 95.2861 164.899 95.0291C166.241 94.9348 167.576 94.7632 168.897 94.5151C168.525 94.9791 168.104 95.404 167.641 95.7829ZM115.181 100.923C114.438 101.051 113.674 101.008 112.951 100.797C112.229 100.585 111.568 100.212 111.023 99.7063C110.861 99.4911 110.747 99.2462 110.687 98.9867C110.714 98.8703 110.749 98.7558 110.793 98.6441L111.447 98.5241C111.461 98.918 111.634 99.291 111.928 99.5632C112.223 99.8353 112.615 99.9851 113.022 99.9804C113.988 100.049 114.958 100.049 115.924 99.9804C115.9 100.054 115.893 100.131 115.903 100.207C115.913 100.284 115.94 100.357 115.982 100.422C116.024 100.487 116.08 100.543 116.146 100.585C116.213 100.627 116.288 100.654 116.366 100.666H117.145C116.702 100.786 116.278 100.871 115.835 100.957L115.181 100.923ZM152.726 89.5124H152.85C155.041 89.2844 157.245 89.1757 159.449 89.1869C155.91 90.3005 152.372 91.5341 148.833 92.7505L146.197 92.4078C147.506 91.7911 148.833 91.1914 150.178 90.6089C150.974 90.3177 151.841 89.9407 152.708 89.5981L152.726 89.5124ZM125.301 97.5476H125.107H125.266H125.301ZM159.254 93.0417C158.219 93.1383 157.18 93.1841 156.14 93.1788C157.697 92.9218 159.272 92.6648 160.829 92.4421L159.254 93.0417ZM166.792 90.0607L167.446 90.3519L166.438 90.4376C166.493 90.2858 166.54 90.1314 166.579 89.975L166.792 90.0607ZM163.483 89.4268L165.252 89.6495C165.189 90.0096 165.05 90.3534 164.845 90.6603C163.218 90.8488 161.59 91.0544 159.962 91.2942C158.334 91.5341 156.3 91.8767 154.477 92.1851C157.397 91.2085 160.334 90.2491 163.324 89.4096L163.483 89.4268ZM144.021 93.4872C144.208 93.4592 144.399 93.4592 144.587 93.4872H144.021ZM113.288 97.993C114.367 97.6504 115.446 97.2563 116.525 96.8794C118.595 96.8794 120.666 97.0165 122.718 97.1535L119.339 98.3528C117.852 98.4727 116.366 98.5755 114.88 98.6441C114.392 98.7039 113.899 98.7039 113.411 98.6441C112.792 98.4727 112.987 98.1815 113.288 97.993ZM145.507 95.3546L147.011 95.0462C148.922 95.149 150.85 95.2347 152.761 95.3032C150.992 95.8343 149.01 96.314 147.117 96.7424C146.008 96.4797 144.893 96.2055 143.773 95.92L145.507 95.3546ZM165.606 91.9281C166.933 91.7911 168.26 91.6711 169.587 91.5855C169.794 91.725 169.989 91.8796 170.171 92.048C170.071 92.3983 169.947 92.7417 169.8 93.076L168.526 93.2987C166.708 93.6149 164.869 93.8039 163.023 93.8641H162.421C163.655 93.5324 164.762 92.8596 165.606 91.9281ZM132.361 96.5196L131.14 96.434L131.653 96.177L132.591 96.4682L132.361 96.5196ZM116.561 94.8064C115.995 95.012 115.411 95.2347 114.791 95.5088H113.341C114.426 94.9407 115.646 94.6572 116.879 94.6865L116.561 94.8064ZM111.748 96.828H112.598C112.543 96.8585 112.494 96.8993 112.456 96.948L111.501 97.2049C111.589 96.9994 111.66 96.8794 111.748 96.7766V96.828ZM141.349 96.6738L143.207 97.1707L140.057 97.0507L141.349 96.6738ZM135.528 95.0462L134.696 95.7658L133.405 95.3718L134.307 94.9434H134.838L135.528 95.0462ZM125.514 95.8343L124.894 95.7487C124.512 95.4551 124.11 95.1861 123.691 94.9434L124.204 94.8235L126.221 95.92L125.514 95.8343ZM170.383 94.8406L170.224 95.2861L170.012 95.3889C170.123 95.1945 170.224 94.9943 170.313 94.7892L170.383 94.8406ZM140.553 93.4186H139.792H139.332L139.668 93.1103L140.783 93.2131L140.553 93.4186ZM127.973 95.3546C127.619 95.1833 127.265 94.9948 126.911 94.7892L127.672 94.892L128.344 95.0976H128.521L127.973 95.3546ZM120.276 93.6414H120.046L119.091 93.5043L118.932 93.3844H119.445L120.276 93.6414ZM108.617 98.6098H108.723L109.307 98.6955V99.0553C109.28 99.3288 109.28 99.6041 109.307 99.8776C109.014 99.5826 108.758 99.2547 108.546 98.9011C108.511 98.7661 108.511 98.6248 108.546 98.4899L108.617 98.6098ZM142.676 92.1508H142.322H141.526C142.399 91.8539 143.266 91.5798 144.127 91.3285C143.578 91.397 143.101 91.7225 142.605 92.0309L142.676 92.1508ZM130.715 94.5494L129.034 94.0183L129.495 93.9326H129.955C130.627 94.0525 131.299 94.1725 131.972 94.3267C131.476 94.2067 131.069 94.3095 130.645 94.4295L130.715 94.5494ZM108.121 93.3844L107.75 93.7613V93.5557L108.121 93.3844ZM112.509 102.533H113.394H114.066C114.968 102.533 115.835 102.653 116.773 102.67C115.945 102.818 115.103 102.881 114.261 102.859C113.65 102.824 113.051 102.684 112.491 102.447L112.509 102.533ZM133.829 99.1067H133.971H133.759H133.829ZM142.464 99.1067C142.977 99.1923 143.49 99.2951 144.003 99.3636C143.295 99.3636 142.605 99.278 141.897 99.2094L142.464 99.1067ZM135.687 92.8533L134.502 93.4015L133.245 93.1274L134.572 92.8533H135.687ZM163.395 99.9804H164.598C163.174 100.403 161.698 100.639 160.21 100.683C158.706 100.683 157.184 100.683 155.663 100.683C158.246 100.34 160.829 100.152 163.395 99.9461V99.9804ZM168.243 87.4565C168.724 87.4788 169.182 87.6616 169.54 87.9738C169.898 88.2861 170.134 88.7086 170.207 89.1698L168.756 88.6901L166.385 87.9705C166.307 87.8067 166.168 87.6779 165.996 87.6107C166.74 87.5059 167.49 87.443 168.243 87.4223V87.4565ZM108.174 103.647C106.63 103.814 105.067 103.686 103.574 103.27C100.035 101.934 101.504 97.5305 102.796 95.1148C103.467 93.7085 104.541 92.519 105.892 91.6883C106.351 91.4537 106.838 91.2753 107.343 91.1572C107.032 91.6101 106.782 92.0994 106.6 92.6134C106.288 92.8399 105.993 93.086 105.715 93.3501C104.728 94.2084 104.129 95.4074 104.047 96.6891C103.964 97.9707 104.404 99.2326 105.273 100.203C106.562 101.334 108.194 102.031 109.926 102.191C110.325 102.769 110.874 103.236 111.518 103.544C110.404 103.561 109.254 103.63 108.174 103.647ZM151.912 101.42L155.645 101.659H156.813C155.175 101.701 153.537 101.62 151.912 101.42ZM174.081 96.2798C173.371 96.7467 172.597 97.1157 171.781 97.3763C172.028 97.0458 172.236 96.6895 172.4 96.314C173.222 96.1688 174.032 95.9684 174.824 95.7144C174.59 95.9187 174.342 96.1076 174.081 96.2798ZM177.425 92.6134L177.248 92.819C177.221 92.7194 177.185 92.622 177.142 92.5278C176.971 92.1585 176.717 91.8307 176.399 91.5683C176.511 91.5601 176.623 91.5601 176.735 91.5683C177.319 91.7911 177.85 91.9966 177.425 92.6819V92.6134Z" fill="#D0DBE0"/>
<path d="M145.454 101.711C141.263 101.016 136.992 100.9 132.768 101.368C129.488 101.726 126.259 102.439 123.143 103.492C122.824 99.6033 122.488 95.7142 122.169 91.8251C125.414 91.8835 128.659 91.7346 131.883 91.3796C135.594 90.9623 139.266 90.2751 142.87 89.3237C143.743 93.4584 144.604 97.5873 145.454 101.711Z" fill="#747F86"/>
</g>
<defs>
<clipPath id="clip0_272_94">
<rect width="107" height="145" fill="white" transform="translate(0 107) rotate(-90)"/>
</clipPath>
<clipPath id="clip1_272_94">
<rect width="79" height="19" fill="white" transform="translate(100 86)"/>
</clipPath>
</defs>
</svg>
