<svg width="20" height="20" viewBox="0 0 20 20" fill="none" xmlns="http://www.w3.org/2000/svg">
<path d="M4.37508 3.33325H15.6251C17.0692 3.33325 18.2494 4.46363 18.3292 5.8879L18.3334 6.04159V13.9583C18.3334 15.4024 17.203 16.5826 15.7787 16.6623L15.6251 16.6666H4.37508C2.93089 16.6666 1.75071 15.5362 1.67103 14.1119L1.66675 13.9583V6.04159C1.66675 4.59739 2.79712 3.41721 4.2214 3.33754L4.37508 3.33325H15.6251H4.37508ZM17.0834 7.81075L10.2912 11.3863C10.135 11.4685 9.95267 11.4803 9.78908 11.4216L9.709 11.3863L2.91675 7.81158V13.9583C2.91675 14.7234 3.50601 15.3509 4.25547 15.4118L4.37508 15.4166H15.6251C16.3902 15.4166 17.0177 14.8273 17.0786 14.0778L17.0834 13.9583V7.81075ZM15.6251 4.58325H4.37508C3.60994 4.58325 2.98242 5.17251 2.92158 5.92198L2.91675 6.04159V6.39909L10.0001 10.127L17.0834 6.39825V6.04159C17.0834 5.27644 16.4942 4.64893 15.7447 4.58809L15.6251 4.58325Z" fill="#8A8585"/>
</svg>
