<svg width="20" height="20" viewBox="0 0 20 20" fill="none" xmlns="http://www.w3.org/2000/svg">
<path d="M5.88038 2.01528L6.85288 1.72215C7.95497 1.38995 9.1325 1.92681 9.60442 2.97667L10.3558 4.6481C10.7581 5.54296 10.5461 6.59463 9.82858 7.26376L8.58333 8.425C8.54692 8.45892 8.52383 8.50475 8.51833 8.55425C8.48142 8.88517 8.70575 9.52967 9.22258 10.4249C9.5985 11.076 9.93867 11.5325 10.2283 11.7893C10.43 11.9683 10.5411 12.0069 10.5884 11.9928L12.2637 11.4807C13.2017 11.1939 14.2182 11.5358 14.7921 12.3313L15.8593 13.8104C16.5311 14.7414 16.4103 16.0258 15.5768 16.8153L14.8381 17.5148C14.0411 18.2696 12.9064 18.5508 11.8492 18.2558C9.55408 17.6152 7.49633 15.6783 5.6531 12.4858C3.80731 9.28883 3.15965 6.5351 3.75669 4.22528C4.02992 3.16821 4.83503 2.33038 5.88038 2.01528ZM6.24113 3.21209C5.61392 3.40115 5.13085 3.90385 4.96692 4.53809C4.46471 6.48102 5.03876 8.92175 6.73563 11.8608C8.43025 14.7959 10.2543 16.5128 12.1853 17.0518C12.8196 17.2288 13.5003 17.0601 13.9786 16.6072L14.7172 15.9077C15.0961 15.5488 15.151 14.965 14.8457 14.5418L13.7784 13.0627C13.5175 12.7012 13.0555 12.5457 12.6291 12.6761L10.9497 13.1895C9.97492 13.4801 9.09017 12.6955 8.14009 11.0499C7.49983 9.941 7.20143 9.08375 7.27607 8.4155C7.31473 8.06927 7.47604 7.74835 7.73081 7.51078L8.97608 6.34957C9.30225 6.04542 9.39858 5.56738 9.21575 5.16063L8.46433 3.4892C8.24981 3.01199 7.71458 2.76796 7.21363 2.91896L6.24113 3.21209Z" fill="#8A8585"/>
</svg>
